<svg width="2492" height="877" viewBox="0 0 2492 877" fill="none" xmlns="http://www.w3.org/2000/svg">
<path d="M0 0H2492V877H0V0Z" fill="url(#paint0_linear_94_489)"/>
<path d="M2393.55 123H1451V754.439H2393.55V123Z" fill="black"/>
<path d="M2201.86 402.44L2204.66 380.013C2205.66 372.043 2209.78 364.794 2216.11 359.861C2222.45 354.929 2230.49 352.716 2238.46 353.711C2246.43 354.705 2253.68 358.825 2258.61 365.164C2263.55 371.503 2265.76 379.541 2264.76 387.511L2261.97 409.938C2261.83 411.008 2261.28 411.981 2260.43 412.643C2259.58 413.306 2258.5 413.603 2257.43 413.471L2205.4 406.98C2204.33 406.845 2203.35 406.292 2202.69 405.44C2202.03 404.589 2201.73 403.51 2201.86 402.44Z" fill="#2F2E41"/>
<path d="M2226.79 409.13C2239.05 409.13 2248.99 399.189 2248.99 386.927C2248.99 374.664 2239.05 364.723 2226.79 364.723C2214.52 364.723 2204.58 374.664 2204.58 386.927C2204.58 399.189 2214.52 409.13 2226.79 409.13Z" fill="#FFB8B8"/>
<path d="M2197.33 380.92C2198.12 374.619 2201.38 368.889 2206.4 364.988C2211.41 361.088 2217.76 359.335 2224.07 360.114L2228.55 360.673C2234.85 361.467 2240.58 364.728 2244.48 369.74C2248.38 374.753 2250.14 381.108 2249.36 387.411L2249.3 387.86L2239.82 386.677L2237.72 377.221L2235.94 386.193L2231.04 385.582L2229.98 380.811L2229.09 385.338L2197.27 381.369L2197.33 380.92Z" fill="#2F2E41"/>
<path d="M2118.19 466.131C2118.87 467.463 2119.83 468.631 2121.01 469.551C2122.19 470.471 2123.55 471.121 2125.01 471.456C2126.47 471.792 2127.98 471.803 2129.44 471.49C2130.91 471.177 2132.28 470.548 2133.47 469.646L2153.64 481.459L2163.81 470.955L2135.09 454.672C2133.45 452.769 2131.16 451.537 2128.66 451.209C2126.17 450.881 2123.64 451.48 2121.55 452.892C2119.47 454.305 2117.98 456.433 2117.36 458.873C2116.74 461.313 2117.03 463.895 2118.19 466.131Z" fill="#FFB8B8"/>
<path d="M2184.29 487.359C2169.41 487.359 2143.23 480.7 2141.78 480.328L2141.33 480.21L2145.45 459.352L2185.43 467.249L2207.15 436.662L2232.09 434.126L2231.39 435.042C2231.07 435.469 2198.92 477.786 2193.92 484.884C2192.66 486.675 2189.05 487.359 2184.29 487.359Z" fill="#3F3D56"/>
<path d="M2188.27 565.647L2187.68 565.363C2187.55 565.302 2174.91 559.155 2168.37 547.154C2161.85 535.209 2192.35 484.542 2194.48 481.026L2194.52 464.935L2205.49 435.314L2219.48 427.406L2207.47 455.436L2188.27 565.647Z" fill="#3F3D56"/>
<path d="M2174.26 738.591L2160.89 738.59L2154.52 687.011L2174.26 687.012L2174.26 738.591Z" fill="#FFB8B8"/>
<path d="M2177.67 751.553L2134.55 751.551V751.006C2134.55 746.555 2136.32 742.287 2139.47 739.139C2142.61 735.992 2146.88 734.224 2151.33 734.224L2177.67 734.225L2177.67 751.553Z" fill="#2F2E41"/>
<path d="M2317.89 726.872L2305.18 731.035L2283.08 684.002L2301.83 677.857L2317.89 726.872Z" fill="#FFB8B8"/>
<path d="M2325.17 738.128L2284.19 751.553L2284.02 751.035C2282.64 746.805 2282.99 742.198 2285 738.227C2287.01 734.257 2290.52 731.247 2294.75 729.861H2294.75L2319.77 721.661L2325.17 738.128Z" fill="#2F2E41"/>
<path d="M2292 718.439L2253.88 654.798L2221.7 586.805L2192.74 646.866L2181.24 724.654L2140.89 725.214L2202.79 479.273L2251.14 486.497L2248.94 518.413L2250.25 520.277C2261.17 535.793 2272.47 551.836 2265.99 569.13L2284.35 623.653L2325 714.439L2292 718.439Z" fill="#2F2E41"/>
<path d="M2205 532.439C2197.99 532.439 2190 524.439 2194.15 510.781L2193.88 510.586L2203.84 466.579C2195.15 454.147 2206.61 443.887 2207.68 442.971L2213.15 433.124L2237.29 417.815L2249.5 519.29L2249.32 519.462C2240.5 527.902 2210.88 532.439 2205 532.439Z" fill="#FF6884"/>
<path d="M2254.43 555.337C2253.47 555.352 2252.52 555.25 2251.58 555.035C2250.64 554.8 2249.12 553.604 2246.77 545.958C2237.44 515.56 2226.42 424.098 2234.42 415.147L2234.61 414.942L2247.76 417.134C2248.85 416.327 2254.58 412.323 2259.88 413.019C2260.97 413.156 2262.02 413.516 2262.96 414.074C2263.91 414.633 2264.73 415.38 2265.37 416.268L2265.47 416.387L2269.65 475.981L2285 546.112L2284.63 546.279C2283.74 546.685 2264.58 555.337 2254.43 555.337Z" fill="#3F3D56"/>
<path d="M2245.59 532.044C2247.09 531.994 2248.55 531.617 2249.88 530.94C2251.22 530.262 2252.38 529.301 2253.3 528.123C2254.23 526.945 2254.88 525.58 2255.22 524.123C2255.55 522.666 2255.56 521.153 2255.25 519.691L2274.5 506.433L2269.3 492.771L2242.38 511.875C2239.96 512.561 2237.87 514.112 2236.51 516.234C2235.16 518.355 2234.63 520.9 2235.02 523.386C2235.42 525.872 2236.72 528.127 2238.66 529.723C2240.61 531.318 2243.08 532.144 2245.59 532.044Z" fill="#FFB8B8"/>
<path d="M2268.15 517.056L2251 504.483L2275.1 471.619L2256.61 438.98L2264.89 415.319L2265.42 416.338C2265.67 416.813 2290.37 463.865 2294.68 471.406C2299.16 479.249 2269.71 515.166 2268.45 516.691L2268.15 517.056Z" fill="#3F3D56"/>
<path d="M1882.48 664.974L1867.89 658.83L1857.88 585.679H1724.57L1713.72 658.531L1700.67 665.059C1700.04 665.371 1699.54 665.885 1699.25 666.518C1698.95 667.15 1698.88 667.864 1699.04 668.544C1699.2 669.224 1699.58 669.829 1700.13 670.263C1700.68 670.696 1701.35 670.932 1702.05 670.932H1881.28C1881.99 670.932 1882.69 670.684 1883.24 670.231C1883.79 669.778 1884.17 669.147 1884.32 668.445C1884.46 667.744 1884.35 667.015 1884.02 666.382C1883.68 665.749 1883.14 665.252 1882.48 664.974Z" fill="#E6E6E6"/>
<path d="M2119.37 595.411H1464.54C1461.11 595.404 1457.81 594.033 1455.39 591.601C1452.96 589.169 1451.6 585.874 1451.6 582.438V490.099H2132.31V582.438C2132.31 585.874 2130.95 589.169 2128.53 591.601C2126.1 594.033 2122.81 595.404 2119.37 595.411Z" fill="#CCCCCC"/>
<path d="M2133 533.74H1451V138.639C1451 134.493 1452.65 130.518 1455.59 127.586C1458.52 124.654 1462.49 123.005 1466.64 123H2117.36C2121.51 123.005 2125.48 124.654 2128.41 127.586C2131.35 130.518 2133 134.493 2133 138.639V533.74Z" fill="#3F3D56"/>
<path d="M2092.27 505.064H1491.73C1488.54 505.06 1485.47 503.789 1483.21 501.529C1480.95 499.268 1479.68 496.204 1479.68 493.007V163.733C1479.68 160.536 1480.95 157.472 1483.21 155.211C1485.47 152.951 1488.54 151.679 1491.73 151.676H2092.27C2095.46 151.679 2098.53 152.951 2100.79 155.211C2103.05 157.472 2104.32 160.536 2104.32 163.733V493.007C2104.32 496.204 2103.05 499.268 2100.79 501.529C2098.53 503.789 2095.46 505.06 2092.27 505.064Z" fill="white"/>
<path d="M1960.42 671.695H1622.97C1622.63 671.702 1622.29 671.595 1622.01 671.39C1621.73 671.185 1621.53 670.894 1621.43 670.562C1621.37 670.335 1621.37 670.099 1621.41 669.869C1621.46 669.64 1621.56 669.424 1621.7 669.239C1621.84 669.054 1622.03 668.903 1622.24 668.8C1622.44 668.697 1622.68 668.643 1622.91 668.643H1960.3C1960.66 668.63 1961.02 668.741 1961.31 668.958C1961.61 669.174 1961.82 669.484 1961.91 669.836C1961.96 670.06 1961.96 670.291 1961.91 670.514C1961.86 670.737 1961.75 670.945 1961.61 671.123C1961.47 671.302 1961.29 671.446 1961.08 671.545C1960.87 671.644 1960.65 671.695 1960.42 671.695Z" fill="#CCCCCC"/>
<path d="M2085.86 204.91H1940.86V315.683H2085.86V204.91Z" fill="#F2F2F2"/>
<path d="M2078.65 210.414H1948.06V310.178H2078.65V210.414Z" fill="white"/>
<path d="M2015.65 284.414C2015.67 284.415 2015.69 284.414 2015.7 284.413C2024.54 283.951 2032.87 280.139 2039 273.753C2045.13 267.366 2048.6 258.885 2048.7 250.034C2048.8 241.183 2045.52 232.627 2039.54 226.105C2033.55 219.583 2025.31 215.585 2016.48 214.924C2016.37 214.916 2016.26 214.93 2016.16 214.966C2016.06 215.001 2015.96 215.058 2015.88 215.133C2015.8 215.206 2015.74 215.295 2015.69 215.394C2015.65 215.493 2015.63 215.6 2015.62 215.708L2014.86 283.61C2014.86 283.821 2014.94 284.025 2015.09 284.175C2015.24 284.326 2015.44 284.412 2015.65 284.414Z" fill="#3F3D56"/>
<path d="M1988.35 226.152C1988.62 226.156 1988.88 226.266 1989.07 226.46L2012.44 250.366C2012.54 250.461 2012.61 250.575 2012.66 250.699C2012.71 250.824 2012.73 250.957 2012.73 251.091L2012.37 283.582C2012.37 283.722 2012.34 283.859 2012.28 283.987C2012.22 284.114 2012.14 284.228 2012.04 284.322C2011.93 284.417 2011.81 284.49 2011.68 284.536C2011.55 284.582 2011.41 284.6 2011.27 284.59C2004.77 284.103 1998.53 281.814 1993.26 277.979C1987.99 274.144 1983.9 268.916 1981.43 262.881C1978.97 256.846 1978.24 250.245 1979.33 243.818C1980.41 237.391 1983.26 231.393 1987.57 226.499C1987.66 226.394 1987.77 226.309 1987.9 226.249C1988.03 226.189 1988.17 226.157 1988.31 226.153C1988.32 226.152 1988.33 226.152 1988.35 226.152Z" fill="#E6E6E6"/>
<path d="M2012.12 214.646C2012.38 214.65 2012.63 214.752 2012.81 214.932C2012.92 215.029 2013 215.145 2013.05 215.273C2013.1 215.402 2013.13 215.541 2013.13 215.68L2012.8 244.996C2012.8 245.198 2012.74 245.394 2012.62 245.561C2012.51 245.728 2012.35 245.857 2012.16 245.932C2011.97 246.007 2011.77 246.025 2011.57 245.983C2011.37 245.942 2011.19 245.843 2011.05 245.698L1990.65 224.837C1990.55 224.738 1990.48 224.62 1990.43 224.491C1990.38 224.362 1990.36 224.223 1990.36 224.085C1990.37 223.946 1990.4 223.81 1990.46 223.685C1990.52 223.559 1990.6 223.448 1990.71 223.356C1996.64 218.134 2004.16 215.066 2012.05 214.648C2012.07 214.647 2012.09 214.646 2012.12 214.646Z" fill="#FF6884"/>
<path d="M2001.61 298.495C2001.59 299.732 2001.21 300.936 2000.51 301.957C1999.82 302.978 1998.83 303.768 1997.68 304.229C1996.53 304.689 1995.28 304.799 1994.07 304.544C1992.86 304.289 1991.75 303.681 1990.88 302.797C1990.02 301.913 1989.44 300.792 1989.21 299.576C1988.98 298.36 1989.12 297.104 1989.6 295.967C1990.09 294.83 1990.9 293.862 1991.94 293.187C1992.97 292.511 1994.19 292.158 1995.42 292.172C1997.08 292.192 1998.66 292.869 1999.82 294.055C2000.98 295.24 2001.62 296.837 2001.61 298.495Z" fill="#9F6EFA"/>
<path d="M2019.47 298.695C2019.46 299.932 2019.08 301.137 2018.38 302.157C2017.68 303.178 2016.7 303.968 2015.55 304.429C2014.4 304.889 2013.14 304.999 2011.93 304.744C2010.72 304.489 2009.61 303.881 2008.75 302.997C2007.88 302.113 2007.3 300.992 2007.07 299.776C2006.85 298.561 2006.98 297.305 2007.47 296.167C2007.96 295.03 2008.77 294.062 2009.8 293.387C2010.84 292.711 2012.05 292.358 2013.29 292.372C2014.95 292.392 2016.53 293.07 2017.69 294.255C2018.85 295.44 2019.49 297.037 2019.47 298.695Z" fill="#3F3D56"/>
<path d="M2037.34 298.895C2037.32 300.132 2036.94 301.337 2036.25 302.357C2035.55 303.378 2034.56 304.169 2033.41 304.629C2032.27 305.09 2031.01 305.199 2029.8 304.944C2028.59 304.69 2027.48 304.082 2026.61 303.197C2025.75 302.313 2025.17 301.192 2024.94 299.976C2024.71 298.761 2024.85 297.505 2025.34 296.367C2025.82 295.23 2026.63 294.263 2027.67 293.587C2028.71 292.911 2029.92 292.558 2031.16 292.572C2032.81 292.593 2034.4 293.27 2035.56 294.455C2036.71 295.641 2037.35 297.237 2037.34 298.895Z" fill="#E6E6E6"/>
<path d="M2084.33 333.116H1939.33V443.89H2084.33V333.116Z" fill="#F2F2F2"/>
<path d="M2077.12 338.621H1946.54V438.385H2077.12V338.621Z" fill="white"/>
<path d="M1968.7 371.41C1971.69 371.41 1974.12 368.982 1974.12 365.988C1974.12 362.993 1971.69 360.566 1968.7 360.566C1965.7 360.566 1963.27 362.993 1963.27 365.988C1963.27 368.982 1965.7 371.41 1968.7 371.41Z" fill="#3F3D56"/>
<path d="M2055.81 361.769C2056.3 361.768 2056.77 361.862 2057.22 362.047C2057.67 362.231 2058.07 362.502 2058.42 362.844C2058.76 363.185 2059.03 363.591 2059.22 364.037C2059.4 364.484 2059.5 364.962 2059.5 365.446C2059.5 365.929 2059.4 366.408 2059.22 366.854C2059.03 367.301 2058.76 367.707 2058.42 368.048C2058.07 368.39 2057.67 368.66 2057.22 368.845C2056.77 369.029 2056.3 369.124 2055.81 369.123H1998.79C1997.81 369.123 1996.88 368.736 1996.19 368.046C1995.5 367.356 1995.11 366.421 1995.11 365.446C1995.11 364.471 1995.5 363.535 1996.19 362.846C1996.88 362.156 1997.81 361.769 1998.79 361.769H2055.81ZM2055.81 360.868H1998.79C1998.18 360.867 1997.59 360.985 1997.03 361.215C1996.48 361.444 1995.97 361.781 1995.55 362.207C1995.12 362.632 1994.78 363.137 1994.55 363.693C1994.32 364.248 1994.2 364.844 1994.2 365.446C1994.2 366.048 1994.32 366.643 1994.55 367.199C1994.78 367.755 1995.12 368.26 1995.55 368.685C1995.97 369.11 1996.48 369.447 1997.03 369.677C1997.59 369.907 1998.18 370.024 1998.79 370.024H2055.81C2056.41 370.024 2057.01 369.907 2057.57 369.677C2058.12 369.447 2058.63 369.11 2059.05 368.685C2059.48 368.26 2059.82 367.755 2060.05 367.199C2060.28 366.643 2060.4 366.048 2060.4 365.446C2060.4 364.844 2060.28 364.248 2060.05 363.693C2059.82 363.137 2059.48 362.632 2059.05 362.207C2058.63 361.781 2058.12 361.444 2057.57 361.215C2057.01 360.985 2056.41 360.867 2055.81 360.868Z" fill="#3F3D56"/>
<path d="M2033.31 370.024H1990.38C1989.17 370.024 1988 369.541 1987.15 368.683C1986.29 367.824 1985.8 366.66 1985.8 365.446C1985.8 364.232 1986.29 363.067 1987.15 362.209C1988 361.35 1989.17 360.868 1990.38 360.868H2033.31C2034.53 360.868 2035.69 361.35 2036.55 362.209C2037.41 363.067 2037.89 364.232 2037.89 365.446C2037.89 366.66 2037.41 367.824 2036.55 368.683C2035.69 369.541 2034.53 370.024 2033.31 370.024Z" fill="#9F6EFA"/>
<path d="M1968.7 393.925C1971.69 393.925 1974.12 391.498 1974.12 388.503C1974.12 385.509 1971.69 383.081 1968.7 383.081C1965.7 383.081 1963.27 385.509 1963.27 388.503C1963.27 391.498 1965.7 393.925 1968.7 393.925Z" fill="#3F3D56"/>
<path d="M2055.81 384.284C2056.3 384.283 2056.77 384.378 2057.22 384.562C2057.67 384.747 2058.07 385.017 2058.42 385.359C2058.76 385.7 2059.03 386.106 2059.22 386.552C2059.4 386.999 2059.5 387.478 2059.5 387.961C2059.5 388.444 2059.4 388.923 2059.22 389.37C2059.03 389.816 2058.76 390.222 2058.42 390.563C2058.07 390.905 2057.67 391.176 2057.22 391.36C2056.77 391.544 2056.3 391.639 2055.81 391.638H1998.79C1997.81 391.638 1996.88 391.251 1996.19 390.561C1995.5 389.872 1995.11 388.936 1995.11 387.961C1995.11 386.986 1995.5 386.05 1996.19 385.361C1996.88 384.671 1997.81 384.284 1998.79 384.284H2055.81ZM2055.81 383.383H1998.79C1997.57 383.383 1996.41 383.866 1995.55 384.724C1994.69 385.583 1994.21 386.747 1994.21 387.961C1994.21 389.175 1994.69 390.339 1995.55 391.198C1996.41 392.056 1997.57 392.539 1998.79 392.539H2055.81C2057.03 392.539 2058.19 392.056 2059.05 391.198C2059.91 390.339 2060.39 389.175 2060.39 387.961C2060.39 386.747 2059.91 385.583 2059.05 384.724C2058.19 383.866 2057.03 383.383 2055.81 383.383Z" fill="#3F3D56"/>
<path d="M2049.52 392.539H1990.38C1989.17 392.539 1988 392.056 1987.15 391.198C1986.29 390.339 1985.8 389.175 1985.8 387.961C1985.8 386.747 1986.29 385.583 1987.15 384.724C1988 383.866 1989.17 383.383 1990.38 383.383H2049.52C2050.74 383.383 2051.9 383.866 2052.76 384.724C2053.62 385.583 2054.1 386.747 2054.1 387.961C2054.1 389.175 2053.62 390.339 2052.76 391.198C2051.9 392.056 2050.74 392.539 2049.52 392.539Z" fill="#9F6EFA"/>
<path d="M1968.7 416.44C1971.69 416.44 1974.12 414.012 1974.12 411.018C1974.12 408.023 1971.69 405.596 1968.7 405.596C1965.7 405.596 1963.27 408.023 1963.27 411.018C1963.27 414.012 1965.7 416.44 1968.7 416.44Z" fill="#3F3D56"/>
<path d="M2055.81 406.799C2056.3 406.798 2056.77 406.892 2057.22 407.077C2057.67 407.261 2058.07 407.532 2058.42 407.873C2058.76 408.215 2059.03 408.621 2059.22 409.067C2059.4 409.514 2059.5 409.992 2059.5 410.476C2059.5 410.959 2059.4 411.438 2059.22 411.884C2059.03 412.331 2058.76 412.736 2058.42 413.078C2058.07 413.419 2057.67 413.69 2057.22 413.875C2056.77 414.059 2056.3 414.154 2055.81 414.153H1998.79C1997.81 414.153 1996.88 413.765 1996.19 413.076C1995.5 412.386 1995.11 411.451 1995.11 410.476C1995.11 409.5 1995.5 408.565 1996.19 407.876C1996.88 407.186 1997.81 406.799 1998.79 406.799H2055.81ZM2055.81 405.898H1998.79C1997.57 405.898 1996.41 406.38 1995.55 407.239C1994.69 408.097 1994.21 409.262 1994.21 410.476C1994.21 411.69 1994.69 412.854 1995.55 413.713C1996.41 414.571 1997.57 415.053 1998.79 415.053H2055.81C2057.03 415.053 2058.19 414.571 2059.05 413.713C2059.91 412.854 2060.39 411.69 2060.39 410.476C2060.39 409.262 2059.91 408.097 2059.05 407.239C2058.19 406.38 2057.03 405.898 2055.81 405.898Z" fill="#3F3D56"/>
<path d="M2014.4 415.053H1990.38C1989.78 415.054 1989.19 414.937 1988.63 414.707C1988.07 414.477 1987.57 414.14 1987.14 413.715C1986.72 413.29 1986.38 412.785 1986.15 412.229C1985.92 411.673 1985.8 411.077 1985.8 410.476C1985.8 409.874 1985.92 409.278 1986.15 408.722C1986.38 408.166 1986.72 407.662 1987.14 407.236C1987.57 406.811 1988.07 406.474 1988.63 406.244C1989.19 406.015 1989.78 405.897 1990.38 405.898H2014.4C2015.61 405.9 2016.77 406.383 2017.63 407.241C2018.49 408.099 2018.97 409.263 2018.97 410.476C2018.97 411.689 2018.49 412.852 2017.63 413.71C2016.77 414.569 2015.61 415.052 2014.4 415.053Z" fill="#9F6EFA"/>
<path d="M1907.28 224.508H1502.19V432.118H1907.28V224.508Z" fill="#F2F2F2"/>
<path d="M1893.78 234.824H1515.69V421.802H1893.78V234.824Z" fill="white"/>
<path d="M1846.89 393.277H1571.27C1571.04 393.277 1570.82 393.186 1570.66 393.024C1570.5 392.862 1570.41 392.643 1570.41 392.414V260.31C1570.41 260.082 1570.5 259.862 1570.66 259.7C1570.82 259.539 1571.04 259.448 1571.27 259.448C1571.5 259.448 1571.72 259.539 1571.88 259.7C1572.04 259.862 1572.13 260.082 1572.13 260.31V391.552H1846.89C1847.12 391.552 1847.34 391.642 1847.5 391.804C1847.66 391.966 1847.75 392.185 1847.75 392.414C1847.75 392.643 1847.66 392.862 1847.5 393.024C1847.34 393.186 1847.12 393.277 1846.89 393.277Z" fill="#3F3D56"/>
<path d="M1630.16 383.789H1605.09C1604.41 383.788 1603.76 383.518 1603.28 383.038C1602.8 382.558 1602.53 381.907 1602.53 381.228V346.671C1602.53 345.992 1602.8 345.342 1603.28 344.862C1603.76 344.382 1604.41 344.112 1605.09 344.111H1630.16C1630.84 344.112 1631.49 344.382 1631.97 344.862C1632.45 345.342 1632.72 345.992 1632.72 346.671V381.228C1632.72 381.907 1632.45 382.558 1631.97 383.038C1631.49 383.518 1630.84 383.788 1630.16 383.789Z" fill="#9F6EFA"/>
<path d="M1675.87 383.788H1650.8C1650.13 383.788 1649.47 383.518 1648.99 383.038C1648.51 382.558 1648.25 381.907 1648.24 381.228V313.894C1648.25 313.215 1648.51 312.564 1648.99 312.084C1649.47 311.604 1650.13 311.334 1650.8 311.333H1675.87C1676.55 311.334 1677.2 311.604 1677.68 312.084C1678.16 312.564 1678.43 313.215 1678.43 313.894V381.228C1678.43 381.907 1678.16 382.558 1677.68 383.038C1677.2 383.518 1676.55 383.788 1675.87 383.788Z" fill="#FF6884"/>
<path d="M1721.59 383.789H1696.52C1695.84 383.788 1695.19 383.518 1694.71 383.038C1694.23 382.558 1693.96 381.907 1693.96 381.228V346.671C1693.96 345.992 1694.23 345.342 1694.71 344.862C1695.19 344.382 1695.84 344.112 1696.52 344.111H1721.59C1722.27 344.112 1722.92 344.382 1723.4 344.862C1723.88 345.342 1724.15 345.992 1724.15 346.671V381.228C1724.15 381.907 1723.88 382.558 1723.4 383.038C1722.92 383.518 1722.27 383.788 1721.59 383.789Z" fill="#9F6EFA"/>
<path d="M1767.3 383.789H1742.24C1741.57 383.803 1740.93 383.554 1740.45 383.095C1739.97 382.637 1739.69 382.008 1739.68 381.344V300.839C1739.69 300.176 1739.97 299.546 1740.45 299.088C1740.93 298.63 1741.57 298.381 1742.24 298.395H1767.3C1767.97 298.381 1768.61 298.63 1769.09 299.088C1769.57 299.546 1769.85 300.176 1769.86 300.839V381.344C1769.85 382.007 1769.57 382.637 1769.09 383.095C1768.61 383.554 1767.97 383.803 1767.3 383.789Z" fill="#9F6EFA"/>
<path d="M1813.02 383.788H1787.95C1787.27 383.788 1786.62 383.518 1786.14 383.038C1785.66 382.558 1785.39 381.907 1785.39 381.228V277.666C1785.39 276.987 1785.66 276.337 1786.14 275.857C1786.62 275.377 1787.27 275.107 1787.95 275.106H1813.02C1813.7 275.107 1814.35 275.377 1814.83 275.857C1815.31 276.337 1815.58 276.987 1815.58 277.666V381.228C1815.58 381.907 1815.31 382.558 1814.83 383.038C1814.35 383.518 1813.7 383.788 1813.02 383.788Z" fill="#FF6884"/>
<path d="M1617.62 333.76C1620.48 333.76 1622.8 331.443 1622.8 328.585C1622.8 325.727 1620.48 323.41 1617.62 323.41C1614.77 323.41 1612.45 325.727 1612.45 328.585C1612.45 331.443 1614.77 333.76 1617.62 333.76Z" fill="#3F3D56"/>
<path d="M1663.34 300.12C1666.2 300.12 1668.51 297.803 1668.51 294.945C1668.51 292.087 1666.2 289.77 1663.34 289.77C1660.48 289.77 1658.16 292.087 1658.16 294.945C1658.16 297.803 1660.48 300.12 1663.34 300.12Z" fill="#3F3D56"/>
<path d="M1709.05 333.76C1711.91 333.76 1714.23 331.443 1714.23 328.585C1714.23 325.727 1711.91 323.41 1709.05 323.41C1706.2 323.41 1703.88 325.727 1703.88 328.585C1703.88 331.443 1706.2 333.76 1709.05 333.76Z" fill="#3F3D56"/>
<path d="M1754.77 283.732C1757.63 283.732 1759.95 281.414 1759.95 278.556C1759.95 275.698 1757.63 273.381 1754.77 273.381C1751.91 273.381 1749.59 275.698 1749.59 278.556C1749.59 281.414 1751.91 283.732 1754.77 283.732Z" fill="#3F3D56"/>
<path d="M1800.49 264.756C1803.34 264.756 1805.66 262.438 1805.66 259.58C1805.66 256.722 1803.34 254.405 1800.49 254.405C1797.63 254.405 1795.31 256.722 1795.31 259.58C1795.31 262.438 1797.63 264.756 1800.49 264.756Z" fill="#3F3D56"/>
<path d="M1709.16 329.744L1663.34 295.421L1618.14 329.275L1617.11 327.895L1663.34 293.265L1708.95 327.425L1754.27 277.83L1754.45 277.756L1800.16 259.337L1800.81 260.937L1755.27 279.283L1709.16 329.744Z" fill="#3F3D56"/>
<path d="M2392.55 754.439H2011.55C2011.28 754.439 2011.03 754.334 2010.84 754.146C2010.65 753.959 2010.55 753.704 2010.55 753.439C2010.55 753.174 2010.65 752.919 2010.84 752.732C2011.03 752.544 2011.28 752.439 2011.55 752.439H2392.55C2392.81 752.439 2393.07 752.544 2393.25 752.732C2393.44 752.919 2393.55 753.174 2393.55 753.439C2393.55 753.704 2393.44 753.959 2393.25 754.146C2393.07 754.334 2392.81 754.439 2392.55 754.439Z" fill="#CCCCCC"/>
<defs>
<linearGradient id="paint0_linear_94_489" x1="508.06" y1="-2.06252e-07" x2="2169.8" y2="-3.90772e-06" gradientUnits="userSpaceOnUse">
<stop stop-color="#705ECE"/>
<stop offset="1" stop-color="#705ECE" stop-opacity="0"/>
</linearGradient>
</defs>
</svg>
