<svg width="2929" height="1050" viewBox="0 0 2929 1050" fill="none" xmlns="http://www.w3.org/2000/svg">
<rect width="2929" height="1050" fill="url(#paint0_linear_95_552)"/>
<mask id="mask0_95_552" style="mask-type:luminance" maskUnits="userSpaceOnUse" x="1736" y="209" width="943" height="632">
<path d="M2678.55 209H1736V840.439H2678.55V209Z" fill="white"/>
</mask>
<g mask="url(#mask0_95_552)">
<path d="M2486.86 488.44L2489.66 466.013C2490.66 458.043 2494.78 450.794 2501.11 445.861C2507.45 440.929 2515.49 438.716 2523.46 439.711C2531.43 440.705 2538.68 444.825 2543.61 451.164C2548.55 457.503 2550.76 465.541 2549.76 473.511L2546.97 495.938C2546.83 497.008 2546.28 497.981 2545.43 498.643C2544.58 499.306 2543.5 499.603 2542.43 499.471L2490.4 492.98C2489.33 492.845 2488.35 492.292 2487.69 491.44C2487.03 490.589 2486.73 489.51 2486.86 488.44Z" fill="#2F2E41"/>
<path d="M2511.79 495.13C2524.05 495.13 2533.99 485.189 2533.99 472.927C2533.99 460.664 2524.05 450.723 2511.79 450.723C2499.52 450.723 2489.58 460.664 2489.58 472.927C2489.58 485.189 2499.52 495.13 2511.79 495.13Z" fill="#FFB8B8"/>
<path d="M2482.33 466.92C2483.12 460.619 2486.38 454.889 2491.4 450.988C2496.41 447.088 2502.76 445.335 2509.07 446.114L2513.55 446.673C2519.85 447.467 2525.58 450.728 2529.48 455.74C2533.38 460.753 2535.14 467.108 2534.36 473.411L2534.3 473.86L2524.82 472.677L2522.72 463.221L2520.94 472.193L2516.04 471.582L2514.98 466.811L2514.09 471.338L2482.27 467.369L2482.33 466.92Z" fill="#2F2E41"/>
<path d="M2403.19 552.131C2403.87 553.463 2404.83 554.631 2406.01 555.551C2407.19 556.471 2408.55 557.121 2410.01 557.456C2411.47 557.792 2412.98 557.803 2414.44 557.49C2415.91 557.177 2417.28 556.548 2418.47 555.646L2438.64 567.459L2448.81 556.955L2420.09 540.672C2418.45 538.769 2416.16 537.537 2413.66 537.209C2411.17 536.881 2408.64 537.48 2406.55 538.892C2404.47 540.305 2402.98 542.433 2402.36 544.873C2401.74 547.313 2402.03 549.895 2403.19 552.131Z" fill="#FFB8B8"/>
<path d="M2469.29 573.359C2454.41 573.359 2428.23 566.7 2426.78 566.328L2426.33 566.21L2430.45 545.352L2470.43 553.249L2492.15 522.662L2517.09 520.126L2516.39 521.042C2516.07 521.469 2483.92 563.786 2478.92 570.884C2477.66 572.675 2474.05 573.359 2469.29 573.359Z" fill="#3F3D56"/>
<path d="M2473.27 651.647L2472.68 651.363C2472.55 651.302 2459.91 645.155 2453.37 633.154C2446.85 621.209 2477.35 570.542 2479.48 567.026L2479.52 550.935L2490.49 521.314L2504.48 513.406L2492.47 541.436L2473.27 651.647Z" fill="#3F3D56"/>
<path d="M2459.26 824.591L2445.88 824.59L2439.52 773.011L2459.26 773.012L2459.26 824.591Z" fill="#FFB8B8"/>
<path d="M2462.67 837.553L2419.55 837.551V837.006C2419.55 832.555 2421.32 828.287 2424.47 825.139C2427.61 821.992 2431.88 820.224 2436.33 820.224H2436.33L2462.67 820.225L2462.67 837.553Z" fill="#2F2E41"/>
<path d="M2602.89 812.872L2590.18 817.035L2568.08 770.002L2586.83 763.857L2602.89 812.872Z" fill="#FFB8B8"/>
<path d="M2610.17 824.128L2569.19 837.553L2569.02 837.035C2567.64 832.805 2567.99 828.198 2570 824.227C2572.01 820.257 2575.52 817.247 2579.75 815.861H2579.75L2604.77 807.661L2610.17 824.128Z" fill="#2F2E41"/>
<path d="M2577 804.439L2538.88 740.798L2506.7 672.805L2477.74 732.866L2466.24 810.654L2425.89 811.214L2426.05 810.584L2487.79 565.273L2536.14 572.497L2533.94 604.413L2535.25 606.277C2546.18 621.793 2557.47 637.836 2550.99 655.13L2569.35 709.653L2610 800.439L2577 804.439Z" fill="#2F2E41"/>
<path d="M2490 618.439C2482.99 618.439 2475 610.439 2479.15 596.781L2478.88 596.586L2488.84 552.579C2480.15 540.147 2491.61 529.887 2492.68 528.971L2498.15 519.124L2522.29 503.815L2534.5 605.29L2534.32 605.462C2525.5 613.902 2495.88 618.439 2490 618.439Z" fill="#FF6884"/>
<path d="M2539.43 641.337C2538.47 641.352 2537.52 641.25 2536.58 641.035C2535.64 640.8 2534.12 639.604 2531.78 631.958C2522.44 601.56 2511.42 510.098 2519.42 501.147L2519.61 500.942L2532.76 503.134C2533.85 502.327 2539.58 498.323 2544.88 499.019C2545.97 499.156 2547.02 499.516 2547.96 500.074C2548.91 500.633 2549.73 501.38 2550.37 502.268L2550.47 502.387L2554.65 561.981L2570 632.112L2569.63 632.279C2568.74 632.685 2549.58 641.337 2539.43 641.337Z" fill="#3F3D56"/>
<path d="M2530.59 618.044C2532.09 617.994 2533.55 617.617 2534.88 616.94C2536.22 616.262 2537.38 615.301 2538.31 614.123C2539.23 612.945 2539.88 611.58 2540.22 610.123C2540.55 608.666 2540.56 607.153 2540.25 605.691L2559.5 592.433L2554.3 578.771L2527.38 597.875C2524.96 598.561 2522.87 600.112 2521.51 602.234C2520.16 604.355 2519.63 606.9 2520.03 609.386C2520.42 611.872 2521.72 614.127 2523.66 615.723C2525.61 617.318 2528.08 618.144 2530.59 618.044Z" fill="#FFB8B8"/>
<path d="M2553.15 603.056L2536 590.483L2560.1 557.619L2541.61 524.98L2549.89 501.319L2550.42 502.338C2550.67 502.813 2575.37 549.865 2579.68 557.406C2584.16 565.249 2554.71 601.166 2553.45 602.691L2553.15 603.056Z" fill="#3F3D56"/>
<path d="M2167.48 750.974L2152.89 744.83L2142.88 671.679H2009.57L1998.72 744.531L1985.67 751.059C1985.04 751.371 1984.54 751.885 1984.25 752.518C1983.95 753.15 1983.88 753.864 1984.04 754.544C1984.2 755.224 1984.58 755.829 1985.13 756.263C1985.68 756.696 1986.36 756.932 1987.05 756.932H2166.28C2166.99 756.932 2167.69 756.684 2168.24 756.231C2168.79 755.778 2169.17 755.147 2169.32 754.445C2169.46 753.744 2169.35 753.015 2169.02 752.382C2168.68 751.749 2168.14 751.252 2167.48 750.974Z" fill="#E6E6E6"/>
<path d="M2404.37 681.411H1749.54C1746.11 681.404 1742.81 680.033 1740.39 677.601C1737.96 675.169 1736.6 671.874 1736.6 668.438V576.099H2417.32V668.438C2417.32 671.874 2415.95 675.169 2413.53 677.601C2411.1 680.033 2407.81 681.404 2404.37 681.411Z" fill="#CCCCCC"/>
<path d="M2418 619.74H1736V224.639C1736 220.493 1737.65 216.518 1740.59 213.586C1743.52 210.654 1747.49 209.005 1751.64 209H2402.36C2406.51 209.005 2410.48 210.654 2413.41 213.586C2416.35 216.518 2418 220.493 2418 224.639V619.74Z" fill="#3F3D56"/>
<path d="M2377.27 591.064H1776.73C1773.54 591.06 1770.47 589.789 1768.21 587.529C1765.95 585.268 1764.68 582.204 1764.68 579.007V249.733C1764.68 246.536 1765.95 243.472 1768.21 241.211C1770.47 238.951 1773.54 237.679 1776.73 237.676H2377.27C2380.46 237.679 2383.53 238.951 2385.79 241.211C2388.05 243.472 2389.32 246.536 2389.32 249.733V579.007C2389.32 582.204 2388.05 585.268 2385.79 587.529C2383.53 589.789 2380.46 591.06 2377.27 591.064Z" fill="white"/>
<path d="M2245.42 757.695H1907.97C1907.63 757.702 1907.29 757.595 1907.01 757.39C1906.73 757.185 1906.53 756.894 1906.43 756.562C1906.37 756.335 1906.37 756.099 1906.41 755.869C1906.46 755.64 1906.56 755.424 1906.7 755.239C1906.84 755.054 1907.03 754.903 1907.24 754.8C1907.45 754.697 1907.68 754.643 1907.91 754.643H2245.3C2245.66 754.63 2246.02 754.741 2246.31 754.958C2246.61 755.174 2246.82 755.484 2246.91 755.836C2246.96 756.06 2246.96 756.291 2246.91 756.514C2246.86 756.737 2246.75 756.945 2246.61 757.123C2246.47 757.302 2246.29 757.446 2246.08 757.545C2245.87 757.644 2245.65 757.695 2245.42 757.695Z" fill="#CCCCCC"/>
<path d="M2370.86 290.91H2225.86V401.683H2370.86V290.91Z" fill="#F2F2F2"/>
<path d="M2363.65 296.414H2233.06V396.178H2363.65V296.414Z" fill="white"/>
<path d="M2300.65 370.414C2300.67 370.415 2300.69 370.414 2300.7 370.413C2309.54 369.951 2317.87 366.139 2324 359.753C2330.13 353.366 2333.6 344.885 2333.7 336.034C2333.8 327.183 2330.52 318.627 2324.54 312.105C2318.55 305.583 2310.31 301.585 2301.48 300.924C2301.37 300.916 2301.26 300.93 2301.16 300.966C2301.06 301.002 2300.96 301.058 2300.88 301.133C2300.8 301.206 2300.74 301.295 2300.69 301.394C2300.65 301.493 2300.62 301.6 2300.62 301.708L2299.86 369.61C2299.86 369.821 2299.94 370.025 2300.09 370.175C2300.24 370.326 2300.44 370.412 2300.65 370.414Z" fill="#3F3D56"/>
<path d="M2273.35 312.152C2273.62 312.156 2273.87 312.266 2274.06 312.46L2297.44 336.366C2297.53 336.461 2297.61 336.575 2297.66 336.699C2297.71 336.824 2297.73 336.957 2297.73 337.091L2297.37 369.582C2297.37 369.722 2297.34 369.859 2297.28 369.987C2297.22 370.114 2297.14 370.228 2297.04 370.322C2296.93 370.417 2296.81 370.49 2296.68 370.536C2296.55 370.582 2296.41 370.6 2296.27 370.59C2289.77 370.103 2283.53 367.814 2278.26 363.979C2272.99 360.144 2268.9 354.916 2266.43 348.881C2263.97 342.846 2263.24 336.245 2264.32 329.818C2265.41 323.391 2268.26 317.393 2272.57 312.499C2272.66 312.394 2272.77 312.309 2272.9 312.249C2273.03 312.189 2273.17 312.157 2273.31 312.153C2273.32 312.152 2273.33 312.152 2273.35 312.152Z" fill="#E6E6E6"/>
<path d="M2297.12 300.647C2297.38 300.65 2297.63 300.752 2297.82 300.932C2297.92 301.029 2298 301.145 2298.05 301.274C2298.1 301.402 2298.13 301.541 2298.13 301.68L2297.8 330.996C2297.8 331.198 2297.74 331.394 2297.62 331.561C2297.51 331.728 2297.35 331.857 2297.16 331.932C2296.97 332.007 2296.77 332.025 2296.57 331.983C2296.37 331.942 2296.19 331.843 2296.05 331.698L2275.65 310.837C2275.55 310.738 2275.48 310.62 2275.43 310.491C2275.38 310.362 2275.36 310.223 2275.36 310.085C2275.37 309.946 2275.4 309.81 2275.46 309.685C2275.52 309.559 2275.6 309.448 2275.71 309.356C2281.64 304.134 2289.16 301.066 2297.05 300.648C2297.07 300.647 2297.09 300.646 2297.12 300.647Z" fill="#FF6884"/>
<path d="M2286.61 384.495C2286.59 385.732 2286.21 386.936 2285.51 387.957C2284.82 388.978 2283.83 389.768 2282.68 390.229C2281.53 390.689 2280.28 390.799 2279.07 390.544C2277.86 390.289 2276.75 389.681 2275.88 388.797C2275.02 387.913 2274.44 386.792 2274.21 385.576C2273.98 384.36 2274.12 383.104 2274.6 381.967C2275.09 380.83 2275.9 379.862 2276.94 379.187C2277.97 378.511 2279.19 378.158 2280.42 378.172C2282.08 378.192 2283.66 378.869 2284.82 380.055C2285.98 381.24 2286.62 382.837 2286.61 384.495Z" fill="#9F6EFA"/>
<path d="M2304.47 384.695C2304.46 385.932 2304.08 387.137 2303.38 388.157C2302.68 389.178 2301.7 389.968 2300.55 390.429C2299.4 390.889 2298.14 390.999 2296.93 390.744C2295.72 390.489 2294.61 389.881 2293.75 388.997C2292.88 388.113 2292.3 386.992 2292.07 385.776C2291.85 384.561 2291.98 383.305 2292.47 382.167C2292.96 381.03 2293.77 380.062 2294.8 379.387C2295.84 378.711 2297.05 378.358 2298.29 378.372C2299.95 378.392 2301.53 379.07 2302.69 380.255C2303.85 381.44 2304.49 383.037 2304.47 384.695Z" fill="#3F3D56"/>
<path d="M2322.34 384.895C2322.33 386.132 2321.95 387.337 2321.25 388.357C2320.55 389.378 2319.56 390.169 2318.41 390.629C2317.27 391.09 2316.01 391.199 2314.8 390.944C2313.59 390.69 2312.48 390.082 2311.62 389.197C2310.75 388.313 2310.17 387.192 2309.94 385.976C2309.71 384.761 2309.85 383.505 2310.34 382.367C2310.82 381.23 2311.63 380.263 2312.67 379.587C2313.71 378.911 2314.92 378.558 2316.16 378.572C2317.81 378.593 2319.4 379.27 2320.56 380.455C2321.71 381.641 2322.36 383.237 2322.34 384.895Z" fill="#E6E6E6"/>
<path d="M2369.33 419.116H2224.33V529.89H2369.33V419.116Z" fill="#F2F2F2"/>
<path d="M2362.12 424.621H2231.54V524.385H2362.12V424.621Z" fill="white"/>
<path d="M2253.69 457.41C2256.69 457.41 2259.12 454.982 2259.12 451.988C2259.12 448.993 2256.69 446.566 2253.69 446.566C2250.7 446.566 2248.27 448.993 2248.27 451.988C2248.27 454.982 2250.7 457.41 2253.69 457.41Z" fill="#3F3D56"/>
<path d="M2340.81 447.769C2341.3 447.768 2341.77 447.862 2342.22 448.047C2342.67 448.231 2343.07 448.502 2343.42 448.844C2343.76 449.185 2344.03 449.591 2344.22 450.037C2344.4 450.484 2344.5 450.962 2344.5 451.446C2344.5 451.929 2344.4 452.408 2344.22 452.854C2344.03 453.301 2343.76 453.707 2343.42 454.048C2343.07 454.39 2342.67 454.66 2342.22 454.845C2341.77 455.029 2341.3 455.124 2340.81 455.123H2283.79C2282.81 455.123 2281.88 454.736 2281.19 454.046C2280.5 453.356 2280.11 452.421 2280.11 451.446C2280.11 450.471 2280.5 449.535 2281.19 448.846C2281.88 448.156 2282.81 447.769 2283.79 447.769H2340.81ZM2340.81 446.868H2283.79C2283.18 446.867 2282.59 446.985 2282.03 447.215C2281.48 447.444 2280.97 447.781 2280.55 448.207C2280.12 448.632 2279.78 449.137 2279.55 449.693C2279.32 450.248 2279.2 450.844 2279.2 451.446C2279.2 452.048 2279.32 452.643 2279.55 453.199C2279.78 453.755 2280.12 454.26 2280.55 454.685C2280.97 455.11 2281.48 455.447 2282.03 455.677C2282.59 455.907 2283.18 456.024 2283.79 456.024H2340.81C2341.41 456.024 2342.01 455.907 2342.57 455.677C2343.12 455.447 2343.63 455.11 2344.05 454.685C2344.48 454.26 2344.82 453.755 2345.05 453.199C2345.28 452.643 2345.4 452.048 2345.4 451.446C2345.4 450.844 2345.28 450.248 2345.05 449.693C2344.82 449.137 2344.48 448.632 2344.05 448.207C2343.63 447.781 2343.12 447.444 2342.57 447.215C2342.01 446.985 2341.41 446.867 2340.81 446.868Z" fill="#3F3D56"/>
<path d="M2318.31 456.024H2275.38C2274.17 456.024 2273 455.541 2272.15 454.683C2271.29 453.824 2270.8 452.66 2270.8 451.446C2270.8 450.232 2271.29 449.067 2272.15 448.209C2273 447.35 2274.17 446.868 2275.38 446.868H2318.31C2319.52 446.868 2320.69 447.35 2321.55 448.209C2322.41 449.067 2322.89 450.232 2322.89 451.446C2322.89 452.66 2322.41 453.824 2321.55 454.683C2320.69 455.541 2319.52 456.024 2318.31 456.024Z" fill="#9F6EFA"/>
<path d="M2253.69 479.925C2256.69 479.925 2259.12 477.498 2259.12 474.503C2259.12 471.509 2256.69 469.081 2253.69 469.081C2250.7 469.081 2248.27 471.509 2248.27 474.503C2248.27 477.498 2250.7 479.925 2253.69 479.925Z" fill="#3F3D56"/>
<path d="M2340.81 470.284C2341.3 470.283 2341.78 470.378 2342.22 470.562C2342.67 470.747 2343.07 471.017 2343.42 471.359C2343.76 471.7 2344.03 472.106 2344.22 472.552C2344.4 472.999 2344.5 473.478 2344.5 473.961C2344.5 474.444 2344.4 474.923 2344.22 475.37C2344.03 475.816 2343.76 476.222 2343.42 476.563C2343.07 476.905 2342.67 477.176 2342.22 477.36C2341.78 477.544 2341.3 477.639 2340.81 477.638H2283.79C2282.81 477.638 2281.88 477.251 2281.19 476.561C2280.5 475.872 2280.11 474.936 2280.11 473.961C2280.11 472.986 2280.5 472.05 2281.19 471.361C2281.88 470.671 2282.81 470.284 2283.79 470.284H2340.81ZM2340.81 469.383H2283.79C2282.57 469.383 2281.41 469.866 2280.55 470.724C2279.69 471.583 2279.21 472.747 2279.21 473.961C2279.21 475.175 2279.69 476.339 2280.55 477.198C2281.41 478.056 2282.57 478.539 2283.79 478.539H2340.81C2342.03 478.539 2343.19 478.056 2344.05 477.198C2344.91 476.339 2345.39 475.175 2345.39 473.961C2345.39 472.747 2344.91 471.583 2344.05 470.724C2343.19 469.866 2342.03 469.383 2340.81 469.383Z" fill="#3F3D56"/>
<path d="M2334.52 478.539H2275.38C2274.17 478.539 2273 478.056 2272.15 477.198C2271.29 476.339 2270.8 475.175 2270.8 473.961C2270.8 472.747 2271.29 471.583 2272.15 470.724C2273 469.866 2274.17 469.383 2275.38 469.383H2334.52C2335.74 469.383 2336.9 469.866 2337.76 470.724C2338.62 471.583 2339.1 472.747 2339.1 473.961C2339.1 475.175 2338.62 476.339 2337.76 477.198C2336.9 478.056 2335.74 478.539 2334.52 478.539Z" fill="#9F6EFA"/>
<path d="M2253.69 502.44C2256.69 502.44 2259.12 500.012 2259.12 497.018C2259.12 494.023 2256.69 491.596 2253.69 491.596C2250.7 491.596 2248.27 494.023 2248.27 497.018C2248.27 500.012 2250.7 502.44 2253.69 502.44Z" fill="#3F3D56"/>
<path d="M2340.81 492.799C2341.3 492.798 2341.78 492.892 2342.22 493.077C2342.67 493.261 2343.07 493.532 2343.42 493.873C2343.76 494.215 2344.03 494.621 2344.22 495.067C2344.4 495.514 2344.5 495.992 2344.5 496.476C2344.5 496.959 2344.4 497.438 2344.22 497.884C2344.03 498.331 2343.76 498.736 2343.42 499.078C2343.07 499.419 2342.67 499.69 2342.22 499.875C2341.78 500.059 2341.3 500.154 2340.81 500.153H2283.79C2282.81 500.153 2281.88 499.765 2281.19 499.076C2280.5 498.386 2280.11 497.451 2280.11 496.476C2280.11 495.5 2280.5 494.565 2281.19 493.876C2281.88 493.186 2282.81 492.799 2283.79 492.799H2340.81ZM2340.81 491.898H2283.79C2282.57 491.898 2281.41 492.38 2280.55 493.239C2279.69 494.097 2279.21 495.262 2279.21 496.476C2279.21 497.69 2279.69 498.854 2280.55 499.713C2281.41 500.571 2282.57 501.053 2283.79 501.053H2340.81C2342.03 501.053 2343.19 500.571 2344.05 499.713C2344.91 498.854 2345.39 497.69 2345.39 496.476C2345.39 495.262 2344.91 494.097 2344.05 493.239C2343.19 492.38 2342.03 491.898 2340.81 491.898Z" fill="#3F3D56"/>
<path d="M2299.4 501.053H2275.38C2274.78 501.054 2274.19 500.937 2273.63 500.707C2273.07 500.477 2272.57 500.14 2272.14 499.715C2271.72 499.29 2271.38 498.785 2271.15 498.229C2270.92 497.673 2270.8 497.077 2270.8 496.476C2270.8 495.874 2270.92 495.278 2271.15 494.722C2271.38 494.166 2271.72 493.662 2272.14 493.236C2272.57 492.811 2273.07 492.474 2273.63 492.244C2274.19 492.015 2274.78 491.897 2275.38 491.898H2299.4C2300.61 491.9 2301.77 492.383 2302.63 493.241C2303.49 494.099 2303.97 495.263 2303.97 496.476C2303.97 497.689 2303.49 498.852 2302.63 499.71C2301.77 500.569 2300.61 501.052 2299.4 501.053Z" fill="#9F6EFA"/>
<path d="M2192.28 310.508H1787.19V518.118H2192.28V310.508Z" fill="#F2F2F2"/>
<path d="M2178.78 320.824H1800.69V507.802H2178.78V320.824Z" fill="white"/>
<path d="M2131.89 479.277H1856.27C1856.04 479.277 1855.82 479.186 1855.66 479.024C1855.5 478.862 1855.41 478.643 1855.41 478.414V346.31C1855.41 346.082 1855.5 345.862 1855.66 345.7C1855.82 345.539 1856.04 345.448 1856.27 345.448C1856.5 345.448 1856.72 345.539 1856.88 345.7C1857.04 345.862 1857.13 346.082 1857.13 346.31V477.552H2131.89C2132.12 477.552 2132.34 477.642 2132.5 477.804C2132.66 477.966 2132.75 478.185 2132.75 478.414C2132.75 478.643 2132.66 478.862 2132.5 479.024C2132.34 479.186 2132.12 479.277 2131.89 479.277Z" fill="#3F3D56"/>
<path d="M1915.16 469.789H1890.09C1889.41 469.788 1888.76 469.518 1888.28 469.038C1887.8 468.558 1887.53 467.907 1887.53 467.228V432.671C1887.53 431.992 1887.8 431.342 1888.28 430.862C1888.76 430.382 1889.41 430.112 1890.09 430.111H1915.16C1915.84 430.112 1916.49 430.382 1916.97 430.862C1917.45 431.342 1917.72 431.992 1917.72 432.671V467.228C1917.72 467.907 1917.45 468.558 1916.97 469.038C1916.49 469.518 1915.84 469.788 1915.16 469.789Z" fill="#9F6EFA"/>
<path d="M1960.87 469.788H1935.8C1935.13 469.788 1934.48 469.518 1934 469.038C1933.52 468.558 1933.25 467.907 1933.24 467.228V399.894C1933.25 399.215 1933.52 398.564 1934 398.084C1934.48 397.604 1935.13 397.334 1935.8 397.333H1960.87C1961.55 397.334 1962.2 397.604 1962.68 398.084C1963.16 398.564 1963.43 399.215 1963.43 399.894V467.228C1963.43 467.907 1963.16 468.558 1962.68 469.038C1962.2 469.518 1961.55 469.788 1960.87 469.788Z" fill="#FF6884"/>
<path d="M2006.59 469.789H1981.52C1980.84 469.788 1980.19 469.518 1979.71 469.038C1979.23 468.558 1978.96 467.907 1978.96 467.228V432.671C1978.96 431.992 1979.23 431.342 1979.71 430.862C1980.19 430.382 1980.84 430.112 1981.52 430.111H2006.59C2007.27 430.112 2007.92 430.382 2008.4 430.862C2008.88 431.342 2009.15 431.992 2009.15 432.671V467.228C2009.15 467.907 2008.88 468.558 2008.4 469.038C2007.92 469.518 2007.27 469.788 2006.59 469.789Z" fill="#9F6EFA"/>
<path d="M2052.3 469.789H2027.24C2026.57 469.803 2025.93 469.554 2025.45 469.095C2024.97 468.637 2024.69 468.008 2024.68 467.344V386.839C2024.69 386.176 2024.97 385.546 2025.45 385.088C2025.93 384.63 2026.57 384.381 2027.24 384.395H2052.3C2052.97 384.381 2053.61 384.63 2054.09 385.088C2054.57 385.546 2054.85 386.176 2054.87 386.839V467.344C2054.85 468.007 2054.57 468.637 2054.09 469.095C2053.61 469.554 2052.97 469.803 2052.3 469.789Z" fill="#9F6EFA"/>
<path d="M2098.02 469.788H2072.95C2072.27 469.788 2071.62 469.518 2071.14 469.038C2070.66 468.558 2070.39 467.907 2070.39 467.228V363.666C2070.39 362.987 2070.66 362.337 2071.14 361.857C2071.62 361.377 2072.27 361.107 2072.95 361.106H2098.02C2098.7 361.107 2099.35 361.377 2099.83 361.857C2100.31 362.337 2100.58 362.987 2100.58 363.666V467.228C2100.58 467.907 2100.31 468.558 2099.83 469.038C2099.35 469.518 2098.7 469.788 2098.02 469.788Z" fill="#FF6884"/>
<path d="M1902.62 419.76C1905.48 419.76 1907.8 417.443 1907.8 414.585C1907.8 411.727 1905.48 409.41 1902.62 409.41C1899.77 409.41 1897.45 411.727 1897.45 414.585C1897.45 417.443 1899.77 419.76 1902.62 419.76Z" fill="#3F3D56"/>
<path d="M1948.34 386.12C1951.2 386.12 1953.51 383.803 1953.51 380.945C1953.51 378.087 1951.2 375.77 1948.34 375.77C1945.48 375.77 1943.16 378.087 1943.16 380.945C1943.16 383.803 1945.48 386.12 1948.34 386.12Z" fill="#3F3D56"/>
<path d="M1994.05 419.76C1996.91 419.76 1999.23 417.443 1999.23 414.585C1999.23 411.727 1996.91 409.41 1994.05 409.41C1991.2 409.41 1988.88 411.727 1988.88 414.585C1988.88 417.443 1991.2 419.76 1994.05 419.76Z" fill="#3F3D56"/>
<path d="M2039.77 369.732C2042.63 369.732 2044.95 367.414 2044.95 364.556C2044.95 361.698 2042.63 359.381 2039.77 359.381C2036.91 359.381 2034.59 361.698 2034.59 364.556C2034.59 367.414 2036.91 369.732 2039.77 369.732Z" fill="#3F3D56"/>
<path d="M2085.49 350.756C2088.34 350.756 2090.66 348.438 2090.66 345.58C2090.66 342.722 2088.34 340.405 2085.49 340.405C2082.63 340.405 2080.31 342.722 2080.31 345.58C2080.31 348.438 2082.63 350.756 2085.49 350.756Z" fill="#3F3D56"/>
<path d="M1994.16 415.744L1948.34 381.421L1903.14 415.275L1902.11 413.895L1948.34 379.265L1993.94 413.425L2039.27 363.83L2039.45 363.756L2085.16 345.337L2085.81 346.937L2040.27 365.283L1994.16 415.744Z" fill="#3F3D56"/>
<path d="M2677.55 840.439H2296.55C2296.28 840.439 2296.03 840.334 2295.84 840.146C2295.65 839.959 2295.55 839.704 2295.55 839.439C2295.55 839.174 2295.65 838.919 2295.84 838.732C2296.03 838.544 2296.28 838.439 2296.55 838.439H2677.55C2677.81 838.439 2678.07 838.544 2678.25 838.732C2678.44 838.919 2678.55 839.174 2678.55 839.439C2678.55 839.704 2678.44 839.959 2678.25 840.146C2678.07 840.334 2677.81 840.439 2677.55 840.439Z" fill="#CCCCCC"/>
</g>
<defs>
<linearGradient id="paint0_linear_95_552" x1="245.5" y1="525.001" x2="2929" y2="525.004" gradientUnits="userSpaceOnUse">
<stop stop-color="#705ECE"/>
<stop offset="0.796261" stop-color="#705ECE" stop-opacity="0"/>
</linearGradient>
</defs>
</svg>
