<svg width="998" height="250" viewBox="0 0 998 250" fill="none" xmlns="http://www.w3.org/2000/svg">
<g style="mix-blend-mode:color-dodge">
<g filter="url(#filter0_i_142_3)">
<line y1="-6" x2="159.941" y2="-6" transform="matrix(0.999946 0.0104385 -0.0103937 0.999946 15.0532 161.428)" stroke="white" stroke-width="12"/>
</g>
<g filter="url(#filter1_i_142_3)">
<path d="M226.878 233.849C229.221 236.192 233.02 236.192 235.364 233.849C237.707 231.506 237.707 227.707 235.364 225.364L226.878 233.849ZM165.638 172.609L226.878 233.849L235.364 225.364L174.124 164.124L165.638 172.609Z" fill="white"/>
</g>
<g filter="url(#filter2_i_142_3)">
<mask id="path-3-inside-1_142_3" fill="white">
<rect x="75" y="59" width="40" height="101.929" rx="6"/>
</mask>
<rect x="75" y="59" width="40" height="101.929" rx="6" stroke="white" stroke-width="24" stroke-linejoin="round" mask="url(#path-3-inside-1_142_3)"/>
</g>
<g filter="url(#filter3_i_142_3)">
<mask id="path-4-inside-2_142_3" fill="white">
<rect x="29" y="90.9778" width="40" height="69.9512" rx="6"/>
</mask>
<rect x="29" y="90.9778" width="40" height="69.9512" rx="6" stroke="white" stroke-width="24" stroke-linejoin="round" mask="url(#path-4-inside-2_142_3)"/>
</g>
<g filter="url(#filter4_i_142_3)">
<mask id="path-5-inside-3_142_3" fill="white">
<rect x="121" y="108.299" width="40" height="52.6299" rx="6"/>
</mask>
<rect x="121" y="108.299" width="40" height="52.6299" rx="6" stroke="white" stroke-width="24" stroke-linejoin="round" mask="url(#path-5-inside-3_142_3)"/>
</g>
<g filter="url(#filter5_i_142_3)">
<path d="M182.166 114.285C182.166 163.056 142.717 202.571 94.0828 202.571C45.4482 202.571 6 163.056 6 114.285C6 65.5145 45.4482 26 94.0828 26C142.717 26 182.166 65.5145 182.166 114.285Z" stroke="white" stroke-width="12"/>
</g>
</g>
<path d="M303.4 60C310.733 60 317.333 61.8 323.2 65.4C329.067 69 333.667 73.9333 337 80.2C340.467 86.4667 342.2 93.6 342.2 101.6C342.2 109.467 340.467 116.6 337 123C333.667 129.4 329.067 134.467 323.2 138.2C317.333 141.933 310.733 143.8 303.4 143.8H262.8L264.2 141.4V191.8C264.2 194.067 263.467 196 262 197.6C260.533 199.2 258.667 200 256.4 200C254 200 252.067 199.2 250.6 197.6C249.267 196 248.6 194.067 248.6 191.8V68C248.6 65.7333 249.333 63.8667 250.8 62.4C252.4 60.8 254.333 60 256.6 60H303.4ZM303.4 128.4C307.8 128.4 311.667 127.2 315 124.8C318.333 122.4 321 119.133 323 115C325 110.867 326 106.4 326 101.6C326 96.5333 325 92.0667 323 88.2C321 84.3333 318.333 81.2667 315 79C311.667 76.6 307.8 75.4 303.4 75.4H262.8L264.2 73.2V130.4L262.8 128.4H303.4ZM367.527 200C365.26 200 363.327 199.2 361.727 197.6C360.26 196 359.527 194.067 359.527 191.8V104.6C359.527 102.333 360.26 100.467 361.727 99C363.327 97.4 365.26 96.6 367.527 96.6C369.927 96.6 371.86 97.4 373.327 99C374.793 100.467 375.527 102.333 375.527 104.6V131L373.127 126.8C373.927 122.667 375.327 118.667 377.327 114.8C379.46 110.8 382.127 107.267 385.327 104.2C388.527 101 392.193 98.5333 396.327 96.8C400.46 94.9333 404.993 94 409.927 94C412.86 94 415.527 94.7333 417.927 96.2C420.46 97.5333 421.727 99.4667 421.727 102C421.727 104.8 420.993 106.867 419.527 108.2C418.06 109.533 416.393 110.2 414.527 110.2C412.793 110.2 411.127 109.867 409.527 109.2C407.927 108.4 405.927 108 403.527 108C400.193 108 396.86 108.933 393.527 110.8C390.327 112.533 387.327 115.067 384.527 118.4C381.86 121.733 379.66 125.533 377.927 129.8C376.327 133.933 375.527 138.4 375.527 143.2V191.8C375.527 194.067 374.727 196 373.127 197.6C371.66 199.2 369.793 200 367.527 200ZM477.108 202C466.441 202 457.108 199.733 449.108 195.2C441.108 190.667 434.841 184.467 430.308 176.6C425.908 168.6 423.708 159.4 423.708 149C423.708 137.4 425.974 127.533 430.508 119.4C435.174 111.133 441.174 104.867 448.508 100.6C455.974 96.2 463.841 94 472.108 94C478.241 94 484.174 95.1333 489.908 97.4C495.641 99.6667 500.708 103 505.108 107.4C509.508 111.667 513.041 116.867 515.708 123C518.374 129 519.774 135.733 519.908 143.2C519.908 145.333 519.108 147.133 517.508 148.6C515.908 150.067 514.041 150.8 511.908 150.8H432.908L429.308 137H506.308L503.108 139.8V135.4C502.574 129.933 500.708 125.267 497.508 121.4C494.441 117.4 490.641 114.333 486.108 112.2C481.708 110.067 477.041 109 472.108 109C468.108 109 464.108 109.733 460.108 111.2C456.241 112.533 452.708 114.8 449.508 118C446.441 121.067 443.908 125.067 441.908 130C440.041 134.933 439.108 140.867 439.108 147.8C439.108 155.533 440.641 162.333 443.708 168.2C446.908 174.067 451.308 178.733 456.908 182.2C462.508 185.533 469.041 187.2 476.508 187.2C481.174 187.2 485.241 186.6 488.708 185.4C492.174 184.2 495.174 182.733 497.708 181C500.241 179.133 502.374 177.267 504.108 175.4C505.841 174.2 507.508 173.6 509.108 173.6C511.108 173.6 512.708 174.267 513.908 175.6C515.241 176.933 515.908 178.533 515.908 180.4C515.908 182.667 514.841 184.667 512.708 186.4C508.974 190.533 503.908 194.2 497.508 197.4C491.108 200.467 484.308 202 477.108 202ZM623.156 52C625.423 52 627.29 52.8 628.756 54.4C630.356 55.8667 631.156 57.7333 631.156 60V191.8C631.156 194.067 630.356 196 628.756 197.6C627.29 199.2 625.423 200 623.156 200C620.756 200 618.823 199.2 617.356 197.6C615.89 196 615.156 194.067 615.156 191.8V172.8L618.956 171.4C618.956 174.6 617.956 178 615.956 181.6C613.956 185.067 611.223 188.333 607.756 191.4C604.29 194.467 600.156 197 595.356 199C590.69 201 585.623 202 580.156 202C571.223 202 563.09 199.667 555.756 195C548.556 190.333 542.823 183.933 538.556 175.8C534.423 167.667 532.356 158.4 532.356 148C532.356 137.467 534.423 128.133 538.556 120C542.823 111.867 548.556 105.533 555.756 101C562.956 96.3333 570.956 94 579.756 94C585.356 94 590.623 94.9333 595.556 96.8C600.49 98.6667 604.756 101.2 608.356 104.4C612.09 107.6 615.023 111.133 617.156 115C619.29 118.867 620.356 122.733 620.356 126.6L615.156 125.4V60C615.156 57.7333 615.89 55.8667 617.356 54.4C618.823 52.8 620.756 52 623.156 52ZM581.956 187.2C588.623 187.2 594.49 185.533 599.556 182.2C604.756 178.733 608.756 174.067 611.556 168.2C614.49 162.2 615.956 155.467 615.956 148C615.956 140.4 614.49 133.667 611.556 127.8C608.756 121.933 604.756 117.333 599.556 114C594.49 110.533 588.623 108.8 581.956 108.8C575.423 108.8 569.556 110.533 564.356 114C559.29 117.333 555.29 121.933 552.356 127.8C549.423 133.667 547.956 140.4 547.956 148C547.956 155.333 549.423 162 552.356 168C555.29 173.867 559.29 178.533 564.356 182C569.556 185.467 575.423 187.2 581.956 187.2ZM670.208 191.8C670.208 194.067 669.408 196 667.808 197.6C666.341 199.2 664.474 200 662.208 200C659.808 200 657.874 199.2 656.408 197.6C654.941 196 654.208 194.067 654.208 191.8V103C654.208 100.733 654.941 98.8667 656.408 97.4C658.008 95.8 659.941 95 662.208 95C664.474 95 666.341 95.8 667.808 97.4C669.408 98.8667 670.208 100.733 670.208 103V191.8ZM662.208 81.6C658.874 81.6 656.408 80.9333 654.808 79.6C653.208 78.2667 652.408 76.2 652.408 73.4V70.6C652.408 67.8 653.274 65.7333 655.008 64.4C656.741 63.0667 659.208 62.4 662.408 62.4C665.608 62.4 668.008 63.0667 669.608 64.4C671.208 65.7333 672.008 67.8 672.008 70.6V73.4C672.008 76.2 671.141 78.2667 669.408 79.6C667.808 80.9333 665.408 81.6 662.208 81.6ZM738.948 94C745.748 94 751.882 94.7333 757.348 96.2C762.815 97.6667 767.148 99.6667 770.348 102.2C773.548 104.733 775.148 107.6 775.148 110.8C775.148 112.533 774.548 114.2 773.348 115.8C772.148 117.4 770.548 118.2 768.548 118.2C766.682 118.2 765.148 117.867 763.948 117.2C762.882 116.533 761.815 115.667 760.748 114.6C759.815 113.533 758.482 112.6 756.748 111.8C755.148 110.867 752.815 110.133 749.748 109.6C746.682 109.067 743.615 108.8 740.548 108.8C733.215 108.8 726.748 110.533 721.148 114C715.682 117.467 711.348 122.133 708.148 128C704.948 133.867 703.348 140.533 703.348 148C703.348 155.467 704.882 162.133 707.948 168C711.015 173.867 715.282 178.533 720.748 182C726.215 185.467 732.548 187.2 739.748 187.2C744.415 187.2 748.148 186.8 750.948 186C753.748 185.2 756.082 184.267 757.948 183.2C760.348 181.867 762.148 180.533 763.348 179.2C764.682 177.867 766.415 177.2 768.548 177.2C770.815 177.2 772.548 177.933 773.748 179.4C775.082 180.867 775.748 182.667 775.748 184.8C775.748 187.2 774.082 189.733 770.748 192.4C767.415 195.067 762.882 197.333 757.148 199.2C751.548 201.067 745.148 202 737.948 202C727.815 202 718.948 199.667 711.348 195C703.748 190.2 697.815 183.733 693.548 175.6C689.415 167.333 687.348 158.133 687.348 148C687.348 137.867 689.482 128.733 693.748 120.6C698.148 112.467 704.215 106 711.948 101.2C719.682 96.4 728.682 94 738.948 94ZM786.659 97.2H833.659C835.793 97.2 837.526 97.9333 838.859 99.4C840.326 100.867 841.059 102.6 841.059 104.6C841.059 106.733 840.326 108.533 838.859 110C837.526 111.333 835.793 112 833.659 112H786.659C784.659 112 782.926 111.267 781.459 109.8C779.993 108.333 779.259 106.533 779.259 104.4C779.259 102.4 779.993 100.733 781.459 99.4C782.926 97.9333 784.659 97.2 786.659 97.2ZM807.659 70C809.926 70 811.793 70.8 813.259 72.4C814.726 73.8667 815.459 75.7333 815.459 78V174.6C815.459 177.8 815.926 180.2 816.859 181.8C817.793 183.4 818.993 184.533 820.459 185.2C822.059 185.733 823.593 186 825.059 186C826.393 186 827.526 185.8 828.459 185.4C829.526 184.867 830.726 184.6 832.059 184.6C833.393 184.6 834.593 185.267 835.659 186.6C836.859 187.8 837.459 189.4 837.459 191.4C837.459 193.8 836.059 195.867 833.259 197.6C830.459 199.2 827.326 200 823.859 200C821.993 200 819.659 199.867 816.859 199.6C814.193 199.333 811.526 198.467 808.859 197C806.193 195.533 803.926 193.133 802.059 189.8C800.326 186.333 799.459 181.533 799.459 175.4V78C799.459 75.7333 800.259 73.8667 801.859 72.4C803.459 70.8 805.393 70 807.659 70ZM874.916 191.8C874.916 194.067 874.116 196 872.516 197.6C870.916 199.2 868.982 200 866.716 200C864.449 200 862.582 199.2 861.116 197.6C859.649 196 858.916 194.067 858.916 191.8V60C858.916 57.7333 859.649 55.8667 861.116 54.4C862.716 52.8 864.649 52 866.916 52C869.316 52 871.249 52.8 872.716 54.4C874.182 55.8667 874.916 57.7333 874.916 60V191.8ZM974.419 95C976.685 95 978.552 95.8 980.019 97.4C981.619 98.8667 982.419 100.733 982.419 103V190.2C982.419 201.4 980.219 210.667 975.819 218C971.419 225.467 965.485 231 958.019 234.6C950.685 238.2 942.352 240 933.019 240C927.819 240 922.819 239.467 918.019 238.4C913.219 237.333 909.285 235.933 906.219 234.2C903.685 233 901.885 231.467 900.819 229.6C899.885 227.867 899.752 226 900.419 224C901.352 221.6 902.685 219.933 904.419 219C906.285 218.067 908.219 218.067 910.219 219C912.352 219.933 915.419 221.2 919.419 222.8C923.552 224.533 928.152 225.4 933.219 225.4C940.152 225.4 946.085 224.067 951.019 221.4C955.952 218.733 959.752 214.8 962.419 209.6C965.085 204.533 966.419 198.2 966.419 190.6V176.4L968.819 181.4C966.685 185.533 963.819 189.133 960.219 192.2C956.619 195.267 952.485 197.667 947.819 199.4C943.152 201.133 938.019 202 932.419 202C924.819 202 918.352 200.4 913.019 197.2C907.819 193.867 903.819 189.333 901.019 183.6C898.352 177.733 897.019 171 897.019 163.4V103C897.019 100.733 897.752 98.8667 899.219 97.4C900.819 95.8 902.752 95 905.019 95C907.419 95 909.352 95.8 910.819 97.4C912.285 98.8667 913.019 100.733 913.019 103V159.8C913.019 168.867 915.019 175.733 919.019 180.4C923.019 184.933 929.219 187.2 937.619 187.2C942.952 187.2 947.752 186 952.019 183.6C956.419 181.2 959.885 177.933 962.419 173.8C965.085 169.533 966.419 164.867 966.419 159.8V103C966.419 100.733 967.152 98.8667 968.619 97.4C970.085 95.8 972.019 95 974.419 95Z" fill="white"/>
<defs>
<filter id="filter0_i_142_3" x="15.0532" y="149.429" width="160.057" height="17.6689" filterUnits="userSpaceOnUse" color-interpolation-filters="sRGB">
<feFlood flood-opacity="0" result="BackgroundImageFix"/>
<feBlend mode="normal" in="SourceGraphic" in2="BackgroundImageFix" result="shape"/>
<feColorMatrix in="SourceAlpha" type="matrix" values="0 0 0 0 0 0 0 0 0 0 0 0 0 0 0 0 0 0 127 0" result="hardAlpha"/>
<feOffset dy="4"/>
<feGaussianBlur stdDeviation="2"/>
<feComposite in2="hardAlpha" operator="arithmetic" k2="-1" k3="1"/>
<feColorMatrix type="matrix" values="0 0 0 0 0 0 0 0 0 0 0 0 0 0 0 0 0 0 0.25 0"/>
<feBlend mode="normal" in2="shape" result="effect1_innerShadow_142_3"/>
</filter>
<filter id="filter1_i_142_3" x="165.638" y="164.124" width="71.4824" height="75.4825" filterUnits="userSpaceOnUse" color-interpolation-filters="sRGB">
<feFlood flood-opacity="0" result="BackgroundImageFix"/>
<feBlend mode="normal" in="SourceGraphic" in2="BackgroundImageFix" result="shape"/>
<feColorMatrix in="SourceAlpha" type="matrix" values="0 0 0 0 0 0 0 0 0 0 0 0 0 0 0 0 0 0 127 0" result="hardAlpha"/>
<feOffset dy="4"/>
<feGaussianBlur stdDeviation="2"/>
<feComposite in2="hardAlpha" operator="arithmetic" k2="-1" k3="1"/>
<feColorMatrix type="matrix" values="0 0 0 0 0 0 0 0 0 0 0 0 0 0 0 0 0 0 0.25 0"/>
<feBlend mode="normal" in2="shape" result="effect1_innerShadow_142_3"/>
</filter>
<filter id="filter2_i_142_3" x="75" y="59" width="40" height="105.929" filterUnits="userSpaceOnUse" color-interpolation-filters="sRGB">
<feFlood flood-opacity="0" result="BackgroundImageFix"/>
<feBlend mode="normal" in="SourceGraphic" in2="BackgroundImageFix" result="shape"/>
<feColorMatrix in="SourceAlpha" type="matrix" values="0 0 0 0 0 0 0 0 0 0 0 0 0 0 0 0 0 0 127 0" result="hardAlpha"/>
<feOffset dy="4"/>
<feGaussianBlur stdDeviation="2"/>
<feComposite in2="hardAlpha" operator="arithmetic" k2="-1" k3="1"/>
<feColorMatrix type="matrix" values="0 0 0 0 0 0 0 0 0 0 0 0 0 0 0 0 0 0 0.25 0"/>
<feBlend mode="normal" in2="shape" result="effect1_innerShadow_142_3"/>
</filter>
<filter id="filter3_i_142_3" x="29" y="90.9778" width="40" height="73.9512" filterUnits="userSpaceOnUse" color-interpolation-filters="sRGB">
<feFlood flood-opacity="0" result="BackgroundImageFix"/>
<feBlend mode="normal" in="SourceGraphic" in2="BackgroundImageFix" result="shape"/>
<feColorMatrix in="SourceAlpha" type="matrix" values="0 0 0 0 0 0 0 0 0 0 0 0 0 0 0 0 0 0 127 0" result="hardAlpha"/>
<feOffset dy="4"/>
<feGaussianBlur stdDeviation="2"/>
<feComposite in2="hardAlpha" operator="arithmetic" k2="-1" k3="1"/>
<feColorMatrix type="matrix" values="0 0 0 0 0 0 0 0 0 0 0 0 0 0 0 0 0 0 0.25 0"/>
<feBlend mode="normal" in2="shape" result="effect1_innerShadow_142_3"/>
</filter>
<filter id="filter4_i_142_3" x="121" y="108.299" width="40" height="56.6299" filterUnits="userSpaceOnUse" color-interpolation-filters="sRGB">
<feFlood flood-opacity="0" result="BackgroundImageFix"/>
<feBlend mode="normal" in="SourceGraphic" in2="BackgroundImageFix" result="shape"/>
<feColorMatrix in="SourceAlpha" type="matrix" values="0 0 0 0 0 0 0 0 0 0 0 0 0 0 0 0 0 0 127 0" result="hardAlpha"/>
<feOffset dy="4"/>
<feGaussianBlur stdDeviation="2"/>
<feComposite in2="hardAlpha" operator="arithmetic" k2="-1" k3="1"/>
<feColorMatrix type="matrix" values="0 0 0 0 0 0 0 0 0 0 0 0 0 0 0 0 0 0 0.25 0"/>
<feBlend mode="normal" in2="shape" result="effect1_innerShadow_142_3"/>
</filter>
<filter id="filter5_i_142_3" x="0" y="20" width="188.166" height="192.571" filterUnits="userSpaceOnUse" color-interpolation-filters="sRGB">
<feFlood flood-opacity="0" result="BackgroundImageFix"/>
<feBlend mode="normal" in="SourceGraphic" in2="BackgroundImageFix" result="shape"/>
<feColorMatrix in="SourceAlpha" type="matrix" values="0 0 0 0 0 0 0 0 0 0 0 0 0 0 0 0 0 0 127 0" result="hardAlpha"/>
<feOffset dy="4"/>
<feGaussianBlur stdDeviation="2"/>
<feComposite in2="hardAlpha" operator="arithmetic" k2="-1" k3="1"/>
<feColorMatrix type="matrix" values="0 0 0 0 0 0 0 0 0 0 0 0 0 0 0 0 0 0 0.25 0"/>
<feBlend mode="normal" in2="shape" result="effect1_innerShadow_142_3"/>
</filter>
</defs>
</svg>
