<svg width="927" height="601" viewBox="0 0 927 601" fill="none" xmlns="http://www.w3.org/2000/svg">
<g clip-path="url(#clip0_86_332)">
<path d="M150.534 279.434C164.099 279.434 175.095 268.437 175.095 254.873C175.095 241.308 164.099 230.312 150.534 230.312C136.969 230.312 125.973 241.308 125.973 254.873C125.973 268.437 136.969 279.434 150.534 279.434Z" fill="#FFB8B8"/>
<path d="M67.543 549.197L73.762 559.763L117.474 540.803L108.295 525.21L67.543 549.197Z" fill="#FFB8B8"/>
<path d="M69.4065 544.473L81.6538 565.28C82.6788 567.021 83.3512 568.948 83.6317 570.949C83.9122 572.95 83.7959 574.987 83.2893 576.943C82.7827 578.899 81.8958 580.736 80.6792 582.349C79.4626 583.962 77.9402 585.32 76.1988 586.345L75.7679 586.599L55.7155 552.532L69.4065 544.473Z" fill="#2F2E41"/>
<path d="M139.6 587.26L151.86 587.259L157.692 539.971L139.598 539.972L139.6 587.26Z" fill="#FFB8B8"/>
<path d="M136.473 583.257L160.617 583.256C162.637 583.256 164.639 583.654 166.506 584.427C168.373 585.2 170.069 586.333 171.498 587.762C172.927 589.191 174.06 590.887 174.833 592.754C175.606 594.621 176.004 596.622 176.004 598.642V599.142L136.474 599.144L136.473 583.257Z" fill="#2F2E41"/>
<path d="M90.3114 558.609C89.6059 558.61 88.9101 558.444 88.2805 558.126C87.6509 557.807 87.1052 557.345 86.6874 556.776L74.8637 540.718C74.503 540.228 74.2453 539.67 74.1063 539.078C73.9673 538.486 73.9499 537.871 74.055 537.272C74.1601 536.673 74.3856 536.101 74.7179 535.592C75.0502 535.082 75.4823 534.645 75.9882 534.308L128.602 499.166L96.8556 415.691L164.745 421.294L167.031 493.027C167.246 499.56 165.68 506.028 162.502 511.74C159.323 517.451 154.651 522.191 148.986 525.451L92.5597 558.005C91.8765 558.401 91.101 558.609 90.3114 558.609Z" fill="#2F2E41"/>
<path d="M139.97 577.659C138.806 577.657 137.688 577.204 136.851 576.394C136.014 575.585 135.523 574.483 135.481 573.319L132.993 503.437L163.802 501.814L161.349 572.198C161.313 573.313 160.862 574.375 160.086 575.176C159.309 575.977 158.262 576.46 157.149 576.531L140.276 577.649C140.174 577.656 140.072 577.659 139.97 577.659Z" fill="#2F2E41"/>
<path d="M172.602 435.172C164.763 435.172 137.385 426.355 127.881 423.213C126.459 424.35 118.647 430.191 109.529 429.124C103.903 428.464 98.9506 425.279 94.8086 419.658C85.6616 407.244 96.9592 354.007 108.048 311.532C110.271 302.947 115.735 295.557 123.294 290.917C130.852 286.278 139.914 284.749 148.576 286.652C154.854 288.038 160.621 291.147 165.23 295.63C169.838 300.113 173.105 305.793 174.664 312.03C176.751 320.528 174.956 330.524 173.644 337.824C173.028 341.256 172.541 343.967 172.707 345.299C173.351 350.447 176.926 431.19 174.627 434.639C174.382 435.006 173.674 435.172 172.602 435.172Z" fill="#9F6EFA"/>
<path d="M143.927 435.315C145.187 434.377 146.225 433.174 146.97 431.791C147.715 430.409 148.147 428.88 148.237 427.312C148.327 425.744 148.072 424.175 147.49 422.716C146.908 421.258 146.013 419.944 144.868 418.869L145.354 321.025L122.309 324.863L129.078 419.833C127.399 421.876 126.527 424.463 126.628 427.105C126.729 429.747 127.796 432.261 129.626 434.169C131.456 436.077 133.923 437.248 136.559 437.459C139.195 437.67 141.816 436.907 143.927 435.315Z" fill="#FFB8B8"/>
<path d="M149.257 383.86H124.435C123.25 383.857 122.113 383.387 121.271 382.553C120.429 381.719 119.949 380.587 119.935 379.401L119.326 312.109C119.305 309.782 119.745 307.475 120.621 305.319C121.498 303.164 122.793 301.203 124.432 299.551C126.071 297.9 128.021 296.589 130.17 295.696C132.318 294.802 134.622 294.344 136.949 294.347C139.276 294.35 141.58 294.814 143.726 295.712C145.872 296.611 147.819 297.926 149.454 299.582C151.089 301.238 152.379 303.201 153.25 305.359C154.122 307.517 154.557 309.826 154.53 312.152L153.757 379.412C153.739 380.595 153.258 381.724 152.416 382.556C151.575 383.388 150.44 383.856 149.257 383.86Z" fill="#9F6EFA"/>
<path d="M144.28 279.331C133.035 279.352 122.426 270.463 120.477 259.388C119.78 255.037 120.094 250.584 121.397 246.374C122.811 241.582 125.236 237.148 128.508 233.373C131.781 229.597 135.825 226.567 140.367 224.487C144.91 222.406 149.846 221.324 154.842 221.313C159.839 221.301 164.78 222.361 169.332 224.421C172.34 225.783 175.303 227.738 176.681 230.739C178.058 233.74 177.196 237.934 174.183 239.284C172.214 240.167 169.743 239.733 167.996 241C165.486 242.819 166.132 246.691 167.253 249.581C168.373 252.471 169.641 255.968 167.762 258.433C166.012 260.731 162.514 260.66 159.758 259.795C157.002 258.93 154.282 257.482 151.409 257.777C147.219 258.206 144.208 262.374 143.65 266.55C143.093 270.725 144.405 274.899 145.7 278.907L144.28 279.331Z" fill="#2F2E41"/>
<path d="M259 600.085H1C0.734784 600.085 0.480429 599.98 0.292892 599.792C0.105356 599.605 0 599.35 0 599.085C0 598.82 0.105356 598.565 0.292892 598.378C0.480429 598.19 0.734784 598.085 1 598.085H259C259.265 598.085 259.52 598.19 259.707 598.378C259.895 598.565 260 598.82 260 599.085C260 599.35 259.895 599.605 259.707 599.792C259.52 599.98 259.265 600.085 259 600.085Z" fill="#CCCCCC"/>
<path d="M910.122 434.548H269.283C264.909 434.543 260.715 432.803 257.621 429.71C254.528 426.616 252.788 422.422 252.783 418.048V22.894C252.787 19.6892 254.061 16.6166 256.328 14.3504C258.594 12.0842 261.666 10.8094 264.871 10.8057H914.325C917.585 10.8094 920.711 12.1062 923.016 14.4116C925.321 16.717 926.618 19.8427 926.622 23.103V418.048C926.617 422.422 924.877 426.616 921.784 429.71C918.69 432.803 914.496 434.543 910.122 434.548Z" fill="#F2F2F2"/>
<path d="M889.402 413.716H292.157C283.402 413.716 276.28 407.046 276.28 398.848V54.7427C276.28 48.6626 281.558 43.7158 288.045 43.7158H893.319C899.914 43.7158 905.28 48.7441 905.28 54.9243V398.848C905.28 407.046 898.157 413.716 889.402 413.716Z" fill="white"/>
<path d="M926.392 24.9502H252.552V16.5498C252.558 12.1607 254.305 7.95333 257.41 4.85072C260.514 1.74811 264.722 0.00363937 269.112 0H909.832C914.221 0.00360236 918.429 1.74806 921.534 4.85068C924.639 7.95329 926.386 12.1607 926.392 16.5498V24.9502Z" fill="#3F3D56"/>
<path d="M282.647 16.7836C285.013 16.7836 286.93 14.8659 286.93 12.5002C286.93 10.1345 285.013 8.2168 282.647 8.2168C280.281 8.2168 278.364 10.1345 278.364 12.5002C278.364 14.8659 280.281 16.7836 282.647 16.7836Z" fill="white"/>
<path d="M298.906 16.7836C301.271 16.7836 303.189 14.8659 303.189 12.5002C303.189 10.1345 301.271 8.2168 298.906 8.2168C296.54 8.2168 294.622 10.1345 294.622 12.5002C294.622 14.8659 296.54 16.7836 298.906 16.7836Z" fill="white"/>
<path d="M315.165 16.7836C317.53 16.7836 319.448 14.8659 319.448 12.5002C319.448 10.1345 317.53 8.2168 315.165 8.2168C312.799 8.2168 310.881 10.1345 310.881 12.5002C310.881 14.8659 312.799 16.7836 315.165 16.7836Z" fill="white"/>
<path d="M576.61 118.955H459.802C458.061 118.955 456.391 118.263 455.159 117.031C453.928 115.8 453.236 114.13 453.236 112.388C453.236 110.647 453.928 108.977 455.159 107.745C456.391 106.514 458.061 105.822 459.802 105.822H576.61C578.352 105.822 580.022 106.514 581.253 107.745C582.485 108.977 583.177 110.647 583.177 112.388C583.177 114.13 582.485 115.8 581.253 117.031C580.022 118.263 578.352 118.955 576.61 118.955Z" fill="#CCCCCC"/>
<path d="M721.757 118.955H604.949C603.207 118.955 601.537 118.263 600.306 117.031C599.074 115.8 598.382 114.13 598.382 112.388C598.382 110.647 599.074 108.977 600.306 107.745C601.537 106.514 603.207 105.822 604.949 105.822H721.757C723.498 105.822 725.168 106.514 726.4 107.745C727.631 108.977 728.323 110.647 728.323 112.388C728.323 114.13 727.631 115.8 726.4 117.031C725.168 118.263 723.498 118.955 721.757 118.955Z" fill="#CCCCCC"/>
<path d="M721.757 143.836H518.552C516.811 143.836 515.14 143.145 513.909 141.913C512.678 140.682 511.986 139.012 511.986 137.27C511.986 135.529 512.678 133.859 513.909 132.627C515.14 131.396 516.811 130.704 518.552 130.704H721.757C723.498 130.704 725.168 131.396 726.4 132.627C727.631 133.859 728.323 135.529 728.323 137.27C728.323 139.012 727.631 140.682 726.4 141.913C725.168 143.145 723.498 143.836 721.757 143.836Z" fill="#CCCCCC"/>
<path d="M576.61 93.727H459.802C458.062 93.7248 456.394 93.0321 455.165 91.801C453.935 90.5698 453.244 88.9009 453.244 87.1609C453.244 85.4208 453.935 83.7519 455.165 82.5208C456.394 81.2896 458.062 80.5969 459.802 80.5947H576.61C577.473 80.5937 578.328 80.7627 579.126 81.0922C579.923 81.4217 580.648 81.9052 581.259 82.515C581.869 83.1249 582.354 83.8491 582.684 84.6462C583.015 85.4434 583.185 86.2979 583.185 87.1609C583.185 88.0238 583.015 88.8783 582.684 89.6755C582.354 90.4726 581.869 91.1969 581.259 91.8067C580.648 92.4165 579.923 92.9 579.126 93.2295C578.328 93.559 577.473 93.7281 576.61 93.727Z" fill="#CCCCCC"/>
<path d="M640.889 94.0727H607.713C605.972 94.0727 604.302 93.3809 603.07 92.1495C601.839 90.9181 601.147 89.248 601.147 87.5066C601.147 85.7651 601.839 84.095 603.07 82.8636C604.302 81.6322 605.972 80.9404 607.713 80.9404H640.889C642.631 80.9404 644.301 81.6322 645.532 82.8636C646.764 84.095 647.456 85.7651 647.456 87.5066C647.456 89.248 646.764 90.9181 645.532 92.1495C644.301 93.3809 642.631 94.0727 640.889 94.0727Z" fill="#CCCCCC"/>
<path d="M492.979 143.836H459.802C458.062 143.834 456.394 143.142 455.165 141.91C453.935 140.679 453.244 139.01 453.244 137.27C453.244 135.53 453.935 133.861 455.165 132.63C456.394 131.399 458.062 130.706 459.802 130.704H492.979C493.842 130.703 494.696 130.872 495.494 131.202C496.291 131.531 497.016 132.015 497.627 132.624C498.237 133.234 498.722 133.958 499.052 134.756C499.383 135.553 499.553 136.407 499.553 137.27C499.553 138.133 499.383 138.988 499.052 139.785C498.722 140.582 498.237 141.306 497.627 141.916C497.016 142.526 496.291 143.009 495.494 143.339C494.696 143.668 493.842 143.837 492.979 143.836Z" fill="#CCCCCC"/>
<path d="M576.61 351.955H459.802C458.061 351.955 456.391 351.263 455.159 350.031C453.928 348.8 453.236 347.13 453.236 345.388C453.236 343.647 453.928 341.977 455.159 340.745C456.391 339.514 458.061 338.822 459.802 338.822H576.61C577.473 338.822 578.327 338.992 579.123 339.322C579.92 339.652 580.644 340.136 581.253 340.745C581.863 341.355 582.347 342.079 582.677 342.876C583.007 343.672 583.177 344.526 583.177 345.388C583.177 346.251 583.007 347.105 582.677 347.901C582.347 348.698 581.863 349.422 581.253 350.031C580.644 350.641 579.92 351.125 579.123 351.455C578.327 351.785 577.473 351.955 576.61 351.955Z" fill="#CCCCCC"/>
<path d="M721.757 351.955H604.949C603.207 351.955 601.537 351.263 600.306 350.031C599.074 348.8 598.382 347.13 598.382 345.388C598.382 343.647 599.074 341.977 600.306 340.745C601.537 339.514 603.207 338.822 604.949 338.822H721.757C722.619 338.822 723.473 338.992 724.269 339.322C725.066 339.652 725.79 340.136 726.4 340.745C727.009 341.355 727.493 342.079 727.823 342.876C728.153 343.672 728.323 344.526 728.323 345.388C728.323 346.251 728.153 347.105 727.823 347.901C727.493 348.698 727.009 349.422 726.4 350.031C725.79 350.641 725.066 351.125 724.269 351.455C723.473 351.785 722.619 351.955 721.757 351.955Z" fill="#CCCCCC"/>
<path d="M721.757 376.836H518.552C516.811 376.836 515.14 376.145 513.909 374.913C512.678 373.682 511.986 372.012 511.986 370.27C511.986 368.529 512.678 366.859 513.909 365.627C515.14 364.396 516.811 363.704 518.552 363.704H721.757C722.62 363.703 723.474 363.872 724.272 364.202C725.069 364.531 725.794 365.015 726.405 365.624C727.015 366.234 727.5 366.958 727.83 367.756C728.161 368.553 728.331 369.407 728.331 370.27C728.331 371.133 728.161 371.988 727.83 372.785C727.5 373.582 727.015 374.306 726.405 374.916C725.794 375.526 725.069 376.009 724.272 376.339C723.474 376.668 722.62 376.837 721.757 376.836Z" fill="#CCCCCC"/>
<path d="M576.61 326.727H459.802C458.061 326.727 456.391 326.035 455.159 324.804C453.928 323.572 453.236 321.902 453.236 320.161C453.236 318.419 453.928 316.749 455.159 315.518C456.391 314.287 458.061 313.595 459.802 313.595H576.61C578.352 313.595 580.022 314.287 581.253 315.518C582.485 316.749 583.177 318.419 583.177 320.161C583.177 321.902 582.485 323.572 581.253 324.804C580.022 326.035 578.352 326.727 576.61 326.727Z" fill="#CCCCCC"/>
<path d="M640.889 327.073H607.713C605.972 327.073 604.302 326.381 603.07 325.15C601.839 323.918 601.147 322.248 601.147 320.507C601.147 318.765 601.839 317.095 603.07 315.864C604.302 314.632 605.972 313.94 607.713 313.94H640.889C642.631 313.94 644.301 314.632 645.532 315.864C646.764 317.095 647.456 318.765 647.456 320.507C647.456 322.248 646.764 323.918 645.532 325.15C644.301 326.381 642.631 327.073 640.889 327.073Z" fill="#CCCCCC"/>
<path d="M492.979 376.836H459.802C458.061 376.836 456.391 376.145 455.159 374.913C453.928 373.682 453.236 372.012 453.236 370.27C453.236 368.529 453.928 366.859 455.159 365.627C456.391 364.396 458.061 363.704 459.802 363.704H492.979C493.842 363.703 494.696 363.872 495.494 364.202C496.291 364.531 497.016 365.015 497.627 365.624C498.237 366.234 498.722 366.958 499.052 367.756C499.383 368.553 499.553 369.407 499.553 370.27C499.553 371.133 499.383 371.988 499.052 372.785C498.722 373.582 498.237 374.306 497.627 374.916C497.016 375.526 496.291 376.009 495.494 376.339C494.696 376.668 493.842 376.837 492.979 376.836Z" fill="#CCCCCC"/>
<path d="M546.104 281.461C543.625 281.467 541.244 280.493 539.48 278.751L495.572 235.392C494.71 234.541 494.025 233.527 493.558 232.409C493.091 231.291 492.85 230.092 492.85 228.88C492.85 227.669 493.091 226.469 493.558 225.352C494.025 224.234 494.71 223.22 495.572 222.369L539.303 179.184C541.125 177.394 543.579 176.394 546.133 176.402C548.688 176.41 551.136 177.426 552.946 179.227C554.759 181.044 555.777 183.505 555.777 186.071C555.777 188.636 554.759 191.098 552.947 192.914L520.451 225.411C519.438 226.425 518.87 227.8 518.87 229.234C518.87 230.667 519.438 232.042 520.451 233.057L552.77 265.377C554.09 266.695 554.989 268.374 555.354 270.203C555.718 272.031 555.532 273.927 554.818 275.649C554.104 277.372 552.895 278.844 551.343 279.879C549.792 280.913 547.969 281.464 546.104 281.461Z" fill="#FF6884"/>
<path d="M616.069 281.461C614.205 281.464 612.381 280.913 610.83 279.879C609.279 278.844 608.069 277.372 607.356 275.65C606.642 273.927 606.455 272.031 606.82 270.203C607.184 268.374 608.083 266.695 609.403 265.377L641.723 233.057C642.735 232.042 643.304 230.667 643.304 229.234C643.304 227.8 642.735 226.426 641.723 225.411L609.227 192.914C608.328 192.015 607.615 190.948 607.129 189.774C606.642 188.6 606.392 187.342 606.392 186.071C606.392 184.8 606.642 183.541 607.129 182.367C607.615 181.193 608.328 180.126 609.227 179.227C611.037 177.426 613.485 176.41 616.04 176.402C618.594 176.394 621.048 177.394 622.87 179.184L666.602 222.369C667.464 223.22 668.148 224.234 668.615 225.352C669.082 226.469 669.323 227.669 669.323 228.88C669.323 230.092 669.082 231.291 668.615 232.409C668.148 233.527 667.464 234.541 666.602 235.392L622.693 278.751C620.929 280.493 618.548 281.467 616.069 281.461Z" fill="#FF6884"/>
</g>
<defs>
<clipPath id="clip0_86_332">
<rect width="926.622" height="600.085" fill="white"/>
</clipPath>
</defs>
</svg>
