<svg width="943" height="602" viewBox="0 0 943 602" fill="none" xmlns="http://www.w3.org/2000/svg">
<g clip-path="url(#clip0_86_218)">
<path d="M167.722 596.506C176.715 588.908 182.177 576.904 180.745 565.218C179.312 553.533 170.44 542.79 158.931 540.309C147.423 537.827 134.304 544.696 130.808 555.938C128.884 534.264 126.668 511.681 115.144 493.223C104.71 476.51 86.6375 464.551 67.0511 462.412C47.4648 460.273 26.8428 468.353 14.6275 483.812C2.41221 499.272 -0.578678 521.746 7.9766 539.495C14.279 552.569 25.8902 562.3 38.0558 570.216C77.3674 595.58 124.516 605.895 170.828 599.262L167.722 596.506Z" fill="#F2F2F2"/>
<path d="M33.9961 468.801C50.1572 481.964 64.9834 496.687 78.2602 512.755C91.539 528.807 103.23 546.109 113.168 564.418C118.723 574.688 123.713 585.254 128.116 596.069C129.014 598.269 125.441 599.227 124.554 597.051C116.755 577.985 107.106 559.729 95.7458 542.546C84.4408 525.424 71.5016 509.439 57.1099 494.817C48.97 486.55 40.3817 478.737 31.3838 471.413C29.5395 469.911 32.167 467.311 33.9961 468.801Z" fill="white"/>
<path d="M704.354 0H217.354C215.498 0.00205925 213.719 0.740212 212.407 2.05252C211.095 3.36483 210.356 5.14412 210.354 7V337C210.356 338.856 211.095 340.635 212.407 341.947C213.719 343.26 215.498 343.998 217.354 344H704.354C706.21 343.998 707.989 343.26 709.302 341.947C710.614 340.635 711.352 338.856 711.354 337V7C711.352 5.14412 710.614 3.36483 709.302 2.05252C707.989 0.740212 706.21 0.00205925 704.354 0ZM709.354 337C709.354 338.326 708.827 339.597 707.889 340.535C706.952 341.473 705.68 341.999 704.354 342H217.354C216.028 341.999 214.757 341.473 213.819 340.535C212.882 339.597 212.355 338.326 212.354 337V7C212.355 5.67408 212.882 4.40262 213.819 3.46506C214.757 2.52749 216.028 2.00053 217.354 2H704.354C705.68 2.00053 706.952 2.52749 707.889 3.46506C708.827 4.40262 709.354 5.67408 709.354 7V337Z" fill="#3F3D56"/>
<path d="M710.354 28.04H211.354V30.04H710.354V28.04Z" fill="#3F3D56"/>
<path d="M228.354 21C231.668 21 234.354 18.3137 234.354 15C234.354 11.6863 231.668 9 228.354 9C225.041 9 222.354 11.6863 222.354 15C222.354 18.3137 225.041 21 228.354 21Z" fill="#3F3D56"/>
<path d="M245.604 21C248.918 21 251.604 18.3137 251.604 15C251.604 11.6863 248.918 9 245.604 9C242.291 9 239.604 11.6863 239.604 15C239.604 18.3137 242.291 21 245.604 21Z" fill="#3F3D56"/>
<path d="M262.854 21C266.168 21 268.854 18.3137 268.854 15C268.854 11.6863 266.168 9 262.854 9C259.541 9 256.854 11.6863 256.854 15C256.854 18.3137 259.541 21 262.854 21Z" fill="#3F3D56"/>
<path d="M502.854 74.5H418.854C416.998 74.5 415.217 73.7625 413.904 72.4498C412.592 71.137 411.854 69.3565 411.854 67.5C411.854 65.6435 412.592 63.863 413.904 62.5502C415.217 61.2375 416.998 60.5 418.854 60.5H502.854C504.711 60.5 506.491 61.2375 507.804 62.5502C509.117 63.863 509.854 65.6435 509.854 67.5C509.854 69.3565 509.117 71.137 507.804 72.4498C506.491 73.7625 504.711 74.5 502.854 74.5Z" fill="#CCCCCC"/>
<path d="M560.354 108.5H361.354C359.498 108.5 357.717 107.763 356.405 106.45C355.092 105.137 354.354 103.357 354.354 101.5C354.354 99.6435 355.092 97.863 356.405 96.5502C357.717 95.2375 359.498 94.5 361.354 94.5H560.354C562.211 94.5 563.991 95.2375 565.304 96.5502C566.617 97.863 567.354 99.6435 567.354 101.5C567.354 103.357 566.617 105.137 565.304 106.45C563.991 107.763 562.211 108.5 560.354 108.5Z" fill="#CCCCCC"/>
<path d="M620.035 317.451C612.492 317.451 605.119 315.214 598.847 311.024C592.575 306.833 587.687 300.877 584.801 293.908C581.914 286.939 581.159 279.271 582.63 271.873C584.102 264.475 587.734 257.679 593.068 252.346C598.401 247.012 605.197 243.38 612.595 241.908C619.993 240.437 627.661 241.192 634.63 244.078C641.599 246.965 647.555 251.853 651.746 258.125C655.937 264.397 658.173 271.77 658.173 279.313C658.162 289.425 654.14 299.118 646.99 306.268C639.841 313.418 630.147 317.44 620.035 317.451ZM620.035 243.806C613.013 243.806 606.148 245.888 600.308 249.79C594.469 253.691 589.918 259.237 587.231 265.725C584.543 272.213 583.84 279.353 585.21 286.24C586.58 293.128 589.962 299.455 594.928 304.421C599.894 309.387 606.22 312.769 613.108 314.139C619.996 315.509 627.135 314.806 633.624 312.118C640.112 309.431 645.657 304.879 649.559 299.04C653.461 293.201 655.543 286.336 655.543 279.313C655.532 269.899 651.788 260.874 645.131 254.217C638.475 247.561 629.449 243.816 620.035 243.806Z" fill="#3F3D56"/>
<path d="M300.299 215.308C292.756 215.308 285.383 213.071 279.111 208.881C272.839 204.69 267.951 198.734 265.064 191.765C262.178 184.796 261.423 177.128 262.894 169.73C264.366 162.332 267.998 155.536 273.332 150.203C278.665 144.869 285.461 141.237 292.859 139.765C300.257 138.293 307.925 139.049 314.894 141.935C321.863 144.822 327.819 149.71 332.01 155.982C336.2 162.254 338.437 169.627 338.437 177.17C338.426 187.281 334.404 196.975 327.254 204.125C320.104 211.275 310.411 215.297 300.299 215.308ZM300.299 141.662C293.276 141.662 286.411 143.745 280.572 147.647C274.733 151.548 270.182 157.094 267.494 163.582C264.807 170.07 264.104 177.21 265.474 184.097C266.844 190.985 270.226 197.312 275.191 202.278C280.157 207.244 286.484 210.626 293.372 211.996C300.26 213.366 307.399 212.663 313.887 209.975C320.376 207.288 325.921 202.736 329.823 196.897C333.724 191.058 335.807 184.193 335.807 177.17C335.796 167.756 332.052 158.731 325.395 152.074C318.738 145.418 309.713 141.673 300.299 141.662Z" fill="#3F3D56"/>
<path d="M315.113 197.388C314.115 197.388 313.157 196.992 312.45 196.286C311.744 195.581 311.346 194.623 311.344 193.625V172.226C311.345 171.229 311.742 170.272 312.447 169.567C313.153 168.862 314.109 168.465 315.107 168.464H315.113C316.111 168.465 317.067 168.862 317.773 169.567C318.478 170.272 318.875 171.229 318.876 172.226V193.625C318.875 194.622 318.478 195.579 317.773 196.284C317.067 196.99 316.111 197.386 315.113 197.388ZM305.289 197.388C304.791 197.393 304.297 197.299 303.835 197.112C303.373 196.926 302.953 196.65 302.598 196.3C302.244 195.95 301.962 195.534 301.768 195.075C301.575 194.616 301.475 194.123 301.473 193.625V182.098C301.474 181.101 301.871 180.144 302.576 179.439C303.281 178.734 304.238 178.337 305.235 178.336H305.289C306.287 178.337 307.243 178.734 307.948 179.439C308.654 180.144 309.051 181.101 309.052 182.098V193.625C309.051 194.622 308.654 195.579 307.948 196.284C307.243 196.99 306.287 197.386 305.289 197.388ZM295.37 197.388C294.372 197.388 293.414 196.992 292.707 196.286C292 195.581 291.602 194.623 291.601 193.625V160.716C291.602 159.718 291.999 158.762 292.704 158.056C293.41 157.351 294.366 156.954 295.363 156.953H295.37C296.368 156.954 297.324 157.351 298.029 158.056C298.735 158.762 299.132 159.718 299.133 160.716V193.625C299.132 194.622 298.735 195.579 298.029 196.284C297.324 196.99 296.368 197.386 295.37 197.388ZM285.489 197.388C284.994 197.388 284.504 197.291 284.047 197.102C283.59 196.913 283.175 196.636 282.825 196.286C282.475 195.936 282.197 195.521 282.008 195.064C281.819 194.607 281.722 194.117 281.722 193.622L281.727 188.679C281.727 187.681 282.124 186.725 282.83 186.019C283.536 185.314 284.493 184.918 285.491 184.919C286.488 184.919 287.445 185.316 288.15 186.022C288.856 186.728 289.252 187.685 289.251 188.683V193.625C289.25 194.622 288.853 195.579 288.148 196.284C287.443 196.99 286.486 197.386 285.489 197.388Z" fill="#9F6EFA"/>
<path d="M878.842 599.308C871.299 599.308 863.926 597.071 857.654 592.881C851.382 588.69 846.494 582.734 843.607 575.765C840.721 568.796 839.966 561.128 841.437 553.73C842.909 546.332 846.541 539.536 851.875 534.203C857.208 528.869 864.004 525.237 871.402 523.765C878.8 522.294 886.468 523.049 893.437 525.935C900.406 528.822 906.362 533.71 910.553 539.982C914.743 546.254 916.98 553.627 916.98 561.17C916.969 571.281 912.947 580.975 905.797 588.125C898.647 595.275 888.954 599.297 878.842 599.308ZM878.842 525.662C871.82 525.662 864.954 527.745 859.115 531.647C853.276 535.548 848.725 541.094 846.037 547.582C843.35 554.07 842.647 561.21 844.017 568.097C845.387 574.985 848.769 581.312 853.735 586.278C858.7 591.244 865.027 594.626 871.915 595.996C878.803 597.366 885.942 596.663 892.431 593.975C898.919 591.288 904.464 586.736 908.366 580.897C912.268 575.058 914.35 568.193 914.35 561.17C914.339 551.756 910.595 542.731 903.938 536.074C897.282 529.418 888.256 525.673 878.842 525.662Z" fill="#3F3D56"/>
<path d="M889.356 554.551L881.92 565.921C882.517 566.646 882.842 567.557 882.839 568.496C882.837 569.58 882.405 570.619 881.638 571.384C880.871 572.15 879.832 572.58 878.748 572.58C877.664 572.58 876.625 572.15 875.858 571.384C875.091 570.619 874.659 569.58 874.657 568.496C874.659 568.233 874.683 567.97 874.728 567.711L869.821 564.853C869.187 565.466 868.372 565.857 867.497 565.968C866.622 566.078 865.735 565.902 864.969 565.465L859.747 570.357V575.232C859.749 576.197 860.133 577.121 860.814 577.804C861.495 578.486 862.418 578.871 863.383 578.876H894.294C895.259 578.871 896.183 578.486 896.866 577.804C897.548 577.122 897.933 576.197 897.937 575.232V557.15L892.944 553.829C892.442 554.219 891.857 554.487 891.235 554.612C890.612 554.738 889.969 554.717 889.356 554.551Z" fill="#9F6EFA"/>
<path d="M866.986 557.849C868.071 557.849 869.112 558.28 869.879 559.047C870.646 559.814 871.077 560.855 871.077 561.94V562.466L876.196 565.331C876.927 564.732 877.843 564.405 878.787 564.405C879.086 564.407 879.383 564.439 879.675 564.499L887.126 552.965C886.754 552.442 886.51 551.839 886.415 551.204C886.321 550.569 886.377 549.921 886.58 549.312C886.783 548.704 887.127 548.151 887.584 547.701C888.041 547.25 888.598 546.913 889.21 546.719C889.821 546.524 890.47 546.476 891.103 546.58C891.737 546.683 892.337 546.935 892.855 547.314C893.372 547.693 893.793 548.19 894.083 548.762C894.373 549.335 894.523 549.968 894.522 550.61C894.522 550.935 894.485 551.259 894.412 551.576L897.937 553.931V547.108C897.933 546.143 897.548 545.219 896.866 544.536C896.183 543.854 895.259 543.469 894.294 543.465H863.383C862.418 543.469 861.495 543.854 860.814 544.537C860.133 545.219 859.749 546.144 859.747 547.108V566.651L863.155 563.384C862.927 562.767 862.852 562.104 862.936 561.451C863.02 560.799 863.26 560.176 863.636 559.636C864.012 559.096 864.514 558.656 865.097 558.351C865.68 558.047 866.328 557.888 866.986 557.888V557.849Z" fill="#9F6EFA"/>
<path d="M462.367 215.308C454.824 215.308 447.45 213.071 441.178 208.881C434.907 204.69 430.018 198.734 427.132 191.765C424.245 184.796 423.49 177.128 424.962 169.73C426.433 162.332 430.065 155.536 435.399 150.203C440.733 144.869 447.528 141.237 454.926 139.765C462.324 138.293 469.993 139.049 476.961 141.935C483.93 144.822 489.887 149.71 494.077 155.982C498.268 162.254 500.505 169.627 500.505 177.17C500.493 187.281 496.471 196.975 489.322 204.125C482.172 211.275 472.478 215.297 462.367 215.308ZM462.367 141.662C455.344 141.662 448.479 143.745 442.64 147.647C436.8 151.548 432.249 157.094 429.562 163.582C426.874 170.07 426.171 177.21 427.541 184.097C428.911 190.985 432.293 197.312 437.259 202.278C442.225 207.244 448.552 210.626 455.439 211.996C462.327 213.366 469.467 212.663 475.955 209.975C482.443 207.288 487.989 202.736 491.89 196.897C495.792 191.058 497.874 184.193 497.874 177.17C497.864 167.756 494.119 158.731 487.463 152.074C480.806 145.418 471.781 141.673 462.367 141.662Z" fill="#3F3D56"/>
<path d="M442.105 190.995C441.557 190.995 441.021 190.832 440.565 190.528C440.109 190.224 439.754 189.791 439.544 189.285C439.334 188.779 439.279 188.221 439.385 187.684C439.491 187.146 439.754 186.652 440.141 186.264L454.233 172.133C454.452 171.911 454.713 171.736 455.001 171.617C455.289 171.497 455.597 171.436 455.909 171.437H455.91C456.221 171.436 456.529 171.497 456.817 171.616C457.104 171.735 457.365 171.91 457.585 172.13L464.12 178.666C464.252 178.798 464.408 178.903 464.581 178.975C464.753 179.046 464.938 179.083 465.125 179.082C465.312 179.083 465.498 179.046 465.67 178.974C465.842 178.903 465.999 178.798 466.131 178.665L475.358 169.423C475.402 169.379 475.436 169.327 475.46 169.269C475.484 169.212 475.496 169.15 475.496 169.088C475.496 169.025 475.484 168.964 475.46 168.906C475.436 168.849 475.401 168.797 475.357 168.753L472.372 165.772C472.173 165.574 472.037 165.321 471.982 165.045C471.927 164.769 471.955 164.483 472.062 164.223C472.17 163.964 472.352 163.742 472.586 163.585C472.819 163.429 473.094 163.346 473.375 163.346H483.979C484.356 163.346 484.717 163.496 484.983 163.762C485.25 164.029 485.4 164.39 485.4 164.767V175.364C485.4 175.645 485.317 175.92 485.161 176.153C485.005 176.387 484.783 176.569 484.523 176.677C484.263 176.785 483.978 176.813 483.702 176.758C483.426 176.703 483.173 176.568 482.974 176.369L479.984 173.379C479.94 173.335 479.888 173.3 479.831 173.276C479.773 173.252 479.712 173.24 479.649 173.24C479.587 173.24 479.526 173.252 479.468 173.276C479.411 173.3 479.359 173.335 479.315 173.379L466.82 185.865C466.6 186.086 466.339 186.26 466.052 186.379C465.765 186.498 465.457 186.559 465.145 186.558C464.834 186.559 464.526 186.498 464.238 186.379C463.951 186.26 463.69 186.085 463.471 185.865L456.932 179.326C456.661 179.068 456.301 178.923 455.927 178.923C455.553 178.923 455.193 179.068 454.922 179.326L444.066 190.182C443.809 190.441 443.503 190.646 443.167 190.785C442.83 190.925 442.469 190.996 442.105 190.995Z" fill="#FF6884"/>
<path d="M462.367 315.308C454.824 315.308 447.45 313.071 441.178 308.881C434.907 304.69 430.018 298.734 427.132 291.765C424.245 284.796 423.49 277.128 424.962 269.73C426.433 262.332 430.065 255.536 435.399 250.203C440.733 244.869 447.528 241.237 454.926 239.765C462.324 238.293 469.993 239.049 476.961 241.935C483.93 244.822 489.887 249.71 494.077 255.982C498.268 262.254 500.505 269.627 500.505 277.17C500.493 287.281 496.471 296.975 489.322 304.125C482.172 311.275 472.478 315.297 462.367 315.308Z" fill="#E6E6E6"/>
<path d="M620.367 212.308C612.824 212.308 605.45 210.071 599.178 205.881C592.907 201.69 588.018 195.734 585.132 188.765C582.245 181.796 581.49 174.128 582.962 166.73C584.433 159.332 588.065 152.536 593.399 147.203C598.733 141.869 605.528 138.237 612.926 136.765C620.324 135.293 627.993 136.049 634.961 138.935C641.93 141.822 647.887 146.71 652.077 152.982C656.268 159.254 658.505 166.627 658.505 174.17C658.493 184.281 654.471 193.975 647.322 201.125C640.172 208.275 630.478 212.297 620.367 212.308Z" fill="#E6E6E6"/>
<path d="M300.3 239.032C293.754 239.04 287.319 240.727 281.61 243.932C289.86 244.661 297.596 248.25 303.479 254.078C309.363 259.907 313.025 267.608 313.831 275.851C314.638 284.093 312.539 292.359 307.897 299.217C303.255 306.076 296.362 311.097 288.411 313.412C289.9 313.905 291.42 314.303 292.96 314.602C295.378 315.077 297.836 315.315 300.3 315.312C310.416 315.312 320.117 311.293 327.269 304.141C334.422 296.988 338.44 287.287 338.44 277.172C338.44 267.056 334.422 257.355 327.269 250.203C320.117 243.05 310.416 239.032 300.3 239.032Z" fill="#E6E6E6"/>
<path d="M285.83 241.891C283.414 241.408 280.955 241.166 278.49 241.171C268.684 241.161 259.25 244.925 252.143 251.682C245.036 258.439 240.802 267.671 240.317 277.466C239.833 287.26 243.136 296.865 249.541 304.29C255.947 311.716 264.964 316.391 274.723 317.349C284.483 318.306 294.237 315.471 301.963 309.432C309.689 303.393 314.795 294.613 316.223 284.911C317.651 275.209 315.292 265.33 309.633 257.321C303.975 249.312 295.452 243.787 285.83 241.891ZM288.41 313.411C283.526 314.832 278.394 315.187 273.361 314.452C268.327 313.717 263.511 311.909 259.237 309.151C254.963 306.393 251.331 302.749 248.588 298.465C245.844 294.182 244.053 289.359 243.336 284.323C242.618 279.288 242.99 274.156 244.428 269.277C245.866 264.398 248.335 259.884 251.668 256.042C255.001 252.2 259.121 249.118 263.749 247.007C268.376 244.895 273.403 243.802 278.49 243.801C279.54 243.801 280.58 243.851 281.61 243.931C289.86 244.661 297.596 248.25 303.479 254.078C309.363 259.907 313.025 267.608 313.831 275.851C314.638 284.093 312.539 292.358 307.897 299.217C303.255 306.076 296.362 311.097 288.41 313.411Z" fill="#3F3D56"/>
<path d="M300.696 272.598C299.436 267.073 296.034 262.274 291.238 259.254C286.442 256.235 280.644 255.242 275.117 256.493C274.577 256.616 274.018 256.768 273.525 256.919L278.622 279.315L301.018 274.228C300.924 273.707 300.819 273.138 300.696 272.598Z" fill="#FF6884"/>
<path d="M298.527 278.159L276.121 283.247L271.034 260.851C267.127 262.059 263.649 264.363 261.012 267.488C258.375 270.613 256.689 274.429 256.155 278.483C255.621 282.537 256.26 286.66 257.997 290.361C259.734 294.063 262.497 297.189 265.956 299.369C269.416 301.549 273.429 302.691 277.518 302.659C281.607 302.628 285.601 301.425 289.027 299.193C292.453 296.96 295.167 293.792 296.848 290.064C298.528 286.336 299.104 282.205 298.508 278.159H298.527Z" fill="#9F6EFA"/>
<path d="M692.236 457.451C684.694 457.451 677.32 455.214 671.048 451.023C664.776 446.833 659.888 440.876 657.002 433.908C654.115 426.939 653.36 419.27 654.831 411.872C656.303 404.474 659.935 397.679 665.269 392.345C670.603 387.011 677.398 383.379 684.796 381.908C692.194 380.436 699.862 381.191 706.831 384.078C713.8 386.964 719.756 391.853 723.947 398.124C728.138 404.396 730.374 411.77 730.374 419.313C730.363 429.424 726.341 439.118 719.191 446.268C712.042 453.417 702.348 457.439 692.236 457.451ZM692.236 383.805C685.214 383.805 678.349 385.888 672.509 389.789C666.67 393.691 662.119 399.236 659.432 405.725C656.744 412.213 656.041 419.352 657.411 426.24C658.781 433.128 662.163 439.455 667.129 444.421C672.095 449.386 678.421 452.768 685.309 454.138C692.197 455.508 699.336 454.805 705.825 452.118C712.313 449.43 717.858 444.879 721.76 439.04C725.662 433.201 727.744 426.335 727.744 419.313C727.733 409.899 723.989 400.873 717.332 394.217C710.676 387.56 701.65 383.816 692.236 383.805Z" fill="#3F3D56"/>
<path d="M708.692 434.594C707.297 434.595 705.932 434.182 704.77 433.407C703.609 432.632 702.704 431.531 702.169 430.241C701.634 428.952 701.493 427.533 701.764 426.164C702.036 424.795 702.707 423.536 703.694 422.549C704.68 421.561 705.937 420.888 707.306 420.615C708.675 420.341 710.094 420.48 711.384 421.014C712.674 421.547 713.777 422.451 714.554 423.611C715.33 424.771 715.745 426.135 715.746 427.531C715.746 429.403 715.003 431.198 713.681 432.523C712.358 433.847 710.564 434.592 708.692 434.594ZM692.236 434.594C690.366 434.592 688.574 433.848 687.251 432.526C685.929 431.204 685.185 429.411 685.183 427.541V411.085C685.185 409.216 685.93 407.424 687.252 406.103C688.575 404.782 690.367 404.04 692.236 404.04C694.106 404.04 695.898 404.782 697.221 406.103C698.543 407.424 699.287 409.216 699.29 411.085V427.541C699.287 429.411 698.544 431.204 697.221 432.526C695.899 433.848 694.106 434.592 692.236 434.594ZM675.785 434.594C673.914 434.592 672.12 433.848 670.797 432.524C669.473 431.201 668.729 429.407 668.727 427.536V420.961C668.727 419.089 669.471 417.294 670.794 415.97C672.118 414.647 673.913 413.903 675.785 413.903C677.657 413.903 679.452 414.647 680.776 415.97C682.1 417.294 682.843 419.089 682.843 420.961V427.536C682.841 429.407 682.097 431.201 680.774 432.524C679.45 433.848 677.656 434.592 675.785 434.594Z" fill="#FF6884"/>
<path d="M208.63 590.417L220.255 589.098L220.699 543.633L203.542 545.58L208.63 590.417Z" fill="#A0616A"/>
<path d="M243.898 597.348L207.364 601.493L205.762 587.378L228.181 584.834C231.925 584.409 235.684 585.489 238.631 587.836C241.579 590.182 243.473 593.604 243.898 597.348Z" fill="#2F2E41"/>
<path d="M89.081 589.691L100.78 589.69L106.345 544.565L89.079 544.566L89.081 589.691Z" fill="#A0616A"/>
<path d="M123.343 600.553L86.5741 600.554L86.5734 586.348L109.136 586.347C112.904 586.347 116.517 587.844 119.181 590.508C121.845 593.172 123.342 596.785 123.343 600.553Z" fill="#2F2E41"/>
<path d="M173.019 387.895L179.699 409.622L215.961 488.092L225.503 562.525L203.555 563.479L190.196 494.772L144.391 445.15L104.312 574.93L86.1809 573.022C86.1809 573.022 101.449 405.071 122.443 387.895C122.443 387.895 156.796 371.672 173.019 387.895Z" fill="#2F2E41"/>
<path d="M143.388 294.142C156.332 294.142 166.825 283.649 166.825 270.705C166.825 257.76 156.332 247.267 143.388 247.267C130.443 247.267 119.95 257.76 119.95 270.705C119.95 283.649 130.443 294.142 143.388 294.142Z" fill="#A0616A"/>
<path d="M175.404 392.189C175.404 392.189 178.267 294.854 138.188 301.534C98.1091 308.214 114.809 402.209 114.809 402.209C114.809 402.209 123.397 419.385 144.391 400.3C165.385 381.215 175.404 392.189 175.404 392.189Z" fill="#9F6EFA"/>
<path d="M258.378 311.172C257.626 312.356 256.623 313.36 255.44 314.115C254.257 314.869 252.924 315.355 251.533 315.539C250.142 315.722 248.728 315.598 247.39 315.176C246.052 314.754 244.824 314.043 243.79 313.094L213.769 329.268L215.341 311.618L243.608 298.965C245.317 297.334 247.565 296.387 249.925 296.303C252.285 296.219 254.595 297.003 256.415 298.508C258.236 300.013 259.441 302.133 259.803 304.467C260.165 306.801 259.658 309.187 258.378 311.172Z" fill="#A0616A"/>
<path d="M143.164 313.418L191.895 321.655L235.565 301.04L242.195 315.217L194.389 345.667C194.389 345.667 143.777 349.104 132.075 335.756C127.687 330.751 127.186 326.196 128.273 322.456C129.225 319.392 131.264 316.782 134.007 315.118C136.75 313.453 140.006 312.848 143.164 313.418Z" fill="#9F6EFA"/>
<path d="M140.6 295.332C140.712 295.231 140.799 295.106 140.854 294.966C140.91 294.827 140.931 294.676 140.918 294.526C140.905 294.376 140.857 294.232 140.778 294.104C140.699 293.976 140.591 293.868 140.464 293.789C138.382 292.5 136.687 290.674 135.555 288.504C134.423 286.333 133.896 283.898 134.031 281.453C134.165 279.009 134.955 276.646 136.318 274.612C137.681 272.579 139.567 270.95 141.777 269.897C148.668 266.611 158.005 269.167 163.099 262.854C164.135 261.503 164.867 259.945 165.247 258.285C165.626 256.626 165.643 254.904 165.296 253.238C164.197 247.275 159.714 242.846 154.694 239.811C148.527 236.083 141.439 234.157 134.234 234.251C127.028 234.345 119.993 236.455 113.925 240.342C107.857 244.229 102.999 249.738 99.9013 256.245C96.8038 262.751 95.5906 269.995 96.3992 277.156C97.0472 282.895 98.818 289.33 95.4055 293.99C92.4021 298.091 86.733 298.86 81.7531 299.879C71.0719 302.064 60.7673 307.106 53.5188 315.25C46.2704 323.394 42.4035 334.82 44.5889 345.502C46.7744 356.183 55.542 365.57 66.3181 367.225C75.0893 368.573 84.1463 364.848 90.5874 358.744C97.0285 352.639 101.1 344.396 103.668 335.902C106.716 325.819 107.918 314.955 113.421 305.974C118.806 297.186 130.411 290.886 139.506 295.463C139.68 295.554 139.878 295.59 140.073 295.567C140.269 295.543 140.452 295.461 140.6 295.332Z" fill="#2F2E41"/>
<path d="M819.808 468.816C821.077 468.185 822.191 467.283 823.073 466.174C823.956 465.066 824.584 463.778 824.915 462.4C825.245 461.022 825.269 459.589 824.986 458.201C824.702 456.813 824.118 455.504 823.274 454.366L845.856 329.39L824.783 329.113L809.101 452.697C807.284 454.242 806.096 456.4 805.763 458.762C805.43 461.124 805.975 463.526 807.295 465.512C808.615 467.499 810.618 468.933 812.924 469.542C815.23 470.151 817.68 469.892 819.808 468.816Z" fill="#FFB8B8"/>
<path d="M754.406 462.891L746.406 500.891L747.406 585.891H762.406L769.406 502.891L780.406 467.891L754.406 462.891Z" fill="#FFB8B8"/>
<path d="M803.98 465.742L795.98 503.742L796.98 588.742H811.98L818.98 505.742L829.98 470.742L803.98 465.742Z" fill="#FFB8B8"/>
<path d="M742.167 584.925L765.811 584.865L765.849 599.752L727.318 599.849C727.313 597.894 727.693 595.957 728.437 594.149C729.18 592.341 730.273 590.697 731.652 589.311C733.031 587.925 734.669 586.825 736.473 586.072C738.277 585.319 740.212 584.929 742.167 584.925Z" fill="#2F2E41"/>
<path d="M792.11 586.532L815.754 586.473L815.791 601.36L777.26 601.456C777.256 599.501 777.636 597.564 778.379 595.756C779.123 593.948 780.215 592.305 781.594 590.919C782.973 589.533 784.612 588.432 786.416 587.68C788.22 586.927 790.155 586.537 792.11 586.532Z" fill="#2F2E41"/>
<path d="M790.906 276.534C804.471 276.534 815.467 265.538 815.467 251.973C815.467 238.408 804.471 227.412 790.906 227.412C777.341 227.412 766.345 238.408 766.345 251.973C766.345 265.538 777.341 276.534 790.906 276.534Z" fill="#FFB8B8"/>
<path d="M845.184 312.723C837.711 300.997 814.249 273.189 779.337 289.151C776.587 290.423 774.291 292.507 772.759 295.122C771.228 297.737 770.533 300.759 770.77 303.78C772.459 326.079 774.591 382.893 756.406 416.891C756.406 416.891 809.406 432.891 838.406 417.891C838.406 417.891 828.406 350.891 838.406 337.891C841.74 333.736 844.441 329.111 846.419 324.165C847.113 322.292 847.363 320.284 847.149 318.298C846.935 316.312 846.262 314.404 845.184 312.723Z" fill="#3F3D56"/>
<path d="M835.406 311.891L845.219 315.98C845.873 316.252 846.435 316.705 846.84 317.285C847.244 317.866 847.475 318.55 847.504 319.257L848.406 340.891L826.406 338.891L835.406 311.891Z" fill="#3F3D56"/>
<path d="M760.406 414.891C760.406 414.891 738.406 455.891 742.406 493.891L773.406 498.891L795.406 445.891L790.406 499.891L822.406 500.891C822.406 500.891 843.406 422.891 836.406 415.891L760.406 414.891Z" fill="#2F2E41"/>
<path d="M729.16 418.55C730.561 418.336 731.897 417.817 733.075 417.031C734.254 416.244 735.245 415.209 735.98 413.997C736.715 412.786 737.175 411.429 737.329 410.02C737.482 408.612 737.325 407.187 736.868 405.846L781.497 321.716L761.513 315.023L723.88 399.933C721.678 400.85 719.889 402.543 718.851 404.691C717.814 406.839 717.6 409.292 718.251 411.587C718.902 413.882 720.372 415.858 722.383 417.141C724.393 418.425 726.805 418.926 729.16 418.55Z" fill="#FFB8B8"/>
<path d="M787.59 298.941L779.324 295.243C779.324 295.243 772.315 290.898 766.103 300.459C759.89 310.019 753.179 330.971 753.179 330.971L780.15 338.56L787.59 298.941Z" fill="#3F3D56"/>
<path d="M794.84 263.798C795.722 260.736 795.467 256.593 792.499 255.434C790.952 254.831 789.227 255.307 787.575 255.476C784.343 255.794 781.109 254.903 778.495 252.977C775.424 250.694 773.527 247.205 771.727 243.829L769.003 238.724C768.396 237.659 767.879 236.547 767.457 235.397C765.941 230.89 767.587 225.671 770.956 222.315C774.477 219.04 779.11 217.223 783.919 217.233C788.69 217.267 793.404 218.277 797.77 220.2C805.531 223.364 812.56 228.086 818.423 234.075C822.255 237.995 825.744 243.102 824.943 248.525C824.32 252.747 821.243 256.127 818.308 259.225L807.663 270.462C805.778 272.452 803.764 274.523 801.132 275.288C798.499 276.053 795.108 274.929 794.391 272.284C794.391 272.284 793.958 266.859 794.84 263.798Z" fill="#2F2E41"/>
<path d="M942 601.742H1C0.734784 601.742 0.480429 601.636 0.292892 601.449C0.105356 601.261 0 601.007 0 600.742C0 600.476 0.105356 600.222 0.292892 600.035C0.480429 599.847 0.734784 599.742 1 599.742H942C942.265 599.742 942.52 599.847 942.707 600.035C942.895 600.222 943 600.476 943 600.742C943 601.007 942.895 601.261 942.707 601.449C942.52 601.636 942.265 601.742 942 601.742Z" fill="#3F3D56"/>
<path d="M634.035 295.313H606.035C605.24 295.313 604.477 294.997 603.914 294.434C603.351 293.872 603.035 293.109 603.035 292.313C603.035 291.517 603.351 290.754 603.914 290.192C604.477 289.629 605.24 289.313 606.035 289.313H634.035C634.831 289.313 635.594 289.629 636.157 290.192C636.719 290.754 637.035 291.517 637.035 292.313C637.035 293.109 636.719 293.872 636.157 294.434C635.594 294.997 634.831 295.313 634.035 295.313Z" fill="#9F6EFA"/>
<path d="M634.035 282.313H606.035C605.24 282.313 604.477 281.997 603.914 281.434C603.351 280.872 603.035 280.109 603.035 279.313C603.035 278.517 603.351 277.754 603.914 277.192C604.477 276.629 605.24 276.313 606.035 276.313H634.035C634.831 276.313 635.594 276.629 636.157 277.192C636.719 277.754 637.035 278.517 637.035 279.313C637.035 280.109 636.719 280.872 636.157 281.434C635.594 281.997 634.831 282.313 634.035 282.313Z" fill="#9F6EFA"/>
<path d="M634.035 269.313H606.035C605.24 269.313 604.477 268.997 603.914 268.434C603.351 267.872 603.035 267.109 603.035 266.313C603.035 265.517 603.351 264.754 603.914 264.192C604.477 263.629 605.24 263.313 606.035 263.313H634.035C634.831 263.313 635.594 263.629 636.157 264.192C636.719 264.754 637.035 265.517 637.035 266.313C637.035 267.109 636.719 267.872 636.157 268.434C635.594 268.997 634.831 269.313 634.035 269.313Z" fill="#9F6EFA"/>
</g>
<defs>
<clipPath id="clip0_86_218">
<rect width="943" height="601.742" fill="white"/>
</clipPath>
</defs>
</svg>
