<svg width="943" height="632" viewBox="0 0 943 632" fill="none" xmlns="http://www.w3.org/2000/svg">
<g clip-path="url(#clip0_86_270)">
<path d="M750.864 279.44L753.662 257.013C754.656 249.043 758.776 241.794 765.115 236.861C771.454 231.929 779.492 229.716 787.463 230.711C795.433 231.705 802.682 235.825 807.614 242.164C812.547 248.503 814.759 256.541 813.765 264.511L810.967 286.938C810.832 288.008 810.279 288.981 809.427 289.643C808.576 290.306 807.497 290.603 806.427 290.471L754.397 283.98C753.327 283.845 752.354 283.292 751.692 282.44C751.029 281.589 750.732 280.51 750.864 279.44Z" fill="#2F2E41"/>
<path d="M775.787 286.13C788.049 286.13 797.99 276.189 797.99 263.927C797.99 251.664 788.049 241.723 775.787 241.723C763.524 241.723 753.583 251.664 753.583 263.927C753.583 276.189 763.524 286.13 775.787 286.13Z" fill="#FFB8B8"/>
<path d="M746.328 257.92C747.122 251.619 750.383 245.889 755.395 241.988C760.408 238.088 766.763 236.335 773.066 237.114L777.552 237.673C783.854 238.467 789.583 241.728 793.484 246.74C797.384 251.753 799.137 258.108 798.358 264.411L798.302 264.86L788.823 263.677L786.719 254.221L784.944 263.193L780.045 262.582L778.983 257.811L778.087 262.338L746.272 258.369L746.328 257.92Z" fill="#2F2E41"/>
<path d="M667.19 343.131C667.868 344.463 668.831 345.631 670.009 346.551C671.188 347.471 672.554 348.121 674.011 348.456C675.469 348.792 676.981 348.803 678.444 348.49C679.906 348.177 681.282 347.548 682.474 346.646L702.641 358.459L712.809 347.955L684.095 331.672C682.447 329.769 680.158 328.537 677.662 328.209C675.166 327.881 672.637 328.48 670.553 329.892C668.469 331.305 666.976 333.433 666.356 335.873C665.736 338.313 666.033 340.895 667.19 343.131Z" fill="#FFB8B8"/>
<path d="M733.286 364.359C718.411 364.359 692.234 357.7 690.785 357.328L690.327 357.21L694.447 336.352L734.429 344.249L756.149 313.662L781.087 311.126L780.391 312.042C780.066 312.469 747.921 354.786 742.918 361.884C741.656 363.675 738.05 364.359 733.286 364.359Z" fill="#3F3D56"/>
<path d="M737.274 442.647L736.679 442.363C736.552 442.302 723.914 436.155 717.368 424.154C710.853 412.209 741.351 361.542 743.484 358.026L743.515 341.935L754.487 312.314L768.478 304.406L756.465 332.436L737.274 442.647Z" fill="#3F3D56"/>
<path d="M723.257 615.591L709.885 615.59L703.523 564.011L723.259 564.012L723.257 615.591Z" fill="#FFB8B8"/>
<path d="M726.667 628.553L683.549 628.551V628.006C683.55 623.555 685.318 619.287 688.465 616.139C691.613 612.992 695.881 611.224 700.332 611.224H700.333L726.668 611.225L726.667 628.553Z" fill="#2F2E41"/>
<path d="M866.891 603.872L854.184 608.035L832.077 561.002L850.832 554.857L866.891 603.872Z" fill="#FFB8B8"/>
<path d="M874.168 615.128L833.194 628.553L833.024 628.035C831.638 623.805 831.989 619.198 834 615.227C836.011 611.257 839.517 608.247 843.746 606.861L843.747 606.861L868.773 598.661L874.168 615.128Z" fill="#2F2E41"/>
<path d="M841 595.439L802.88 531.798L770.699 463.805L741.741 523.866L730.237 601.654L689.894 602.214L690.053 601.584L751.791 356.273L800.143 363.497L797.942 395.413L799.253 397.277C810.175 412.793 821.469 428.836 814.991 446.13L833.354 500.653L874 591.439L841 595.439Z" fill="#2F2E41"/>
<path d="M754 409.439C746.994 409.439 739 401.439 743.147 387.781L742.879 387.586L752.839 343.579C744.147 331.147 755.607 320.887 756.681 319.971L762.152 310.124L786.29 294.815L798.503 396.29L798.322 396.462C789.501 404.902 759.877 409.439 754 409.439Z" fill="#FF6884"/>
<path d="M803.433 432.337C802.474 432.352 801.517 432.25 800.582 432.035C799.643 431.8 798.123 430.604 795.775 422.958C786.439 392.56 775.416 301.098 783.424 292.147L783.607 291.942L796.756 294.134C797.849 293.327 803.585 289.323 808.878 290.019C809.967 290.156 811.017 290.516 811.963 291.074C812.908 291.633 813.729 292.38 814.374 293.268L814.465 293.387L818.654 352.981L834 423.112L833.632 423.279C832.739 423.685 813.577 432.337 803.433 432.337Z" fill="#3F3D56"/>
<path d="M794.59 409.044C796.085 408.994 797.55 408.617 798.883 407.94C800.216 407.262 801.384 406.301 802.305 405.123C803.226 403.945 803.878 402.58 804.215 401.123C804.551 399.666 804.564 398.153 804.253 396.691L823.501 383.433L818.297 369.771L791.378 388.875C788.956 389.561 786.869 391.112 785.514 393.234C784.159 395.355 783.63 397.9 784.025 400.386C784.421 402.872 785.716 405.127 787.663 406.723C789.61 408.318 792.075 409.144 794.59 409.044Z" fill="#FFB8B8"/>
<path d="M817.15 394.056L800.004 381.483L824.105 348.619L805.61 315.98L813.885 292.319L814.419 293.338C814.668 293.813 839.367 340.865 843.676 348.406C848.159 356.249 818.706 392.166 817.45 393.691L817.15 394.056Z" fill="#3F3D56"/>
<path d="M431.48 541.974L416.887 535.83L406.877 462.679H273.573L262.722 535.531L249.667 542.059C249.042 542.371 248.542 542.885 248.246 543.518C247.95 544.15 247.876 544.864 248.036 545.544C248.197 546.224 248.582 546.829 249.13 547.263C249.677 547.696 250.355 547.932 251.054 547.932H430.277C430.993 547.932 431.686 547.684 432.24 547.231C432.794 546.778 433.174 546.147 433.316 545.445C433.458 544.744 433.352 544.015 433.017 543.382C432.683 542.749 432.139 542.252 431.48 541.974Z" fill="#E6E6E6"/>
<path d="M668.371 472.411H13.542C10.1063 472.404 6.81391 471.033 4.38722 468.601C1.96053 466.169 0.597679 462.874 0.597656 459.438V367.099H681.315V459.438C681.315 462.874 679.953 466.169 677.526 468.601C675.099 471.033 671.807 472.404 668.371 472.411Z" fill="#CCCCCC"/>
<path d="M682 410.74H0V15.6391C0.00479067 11.4927 1.65408 7.51755 4.58606 4.58568C7.51803 1.6538 11.4933 0.00465016 15.6396 0H666.36C670.507 0.00463948 674.482 1.65379 677.414 4.58566C680.346 7.51753 681.995 11.4927 682 15.6391V410.74Z" fill="#3F3D56"/>
<path d="M641.267 382.064H40.7331C37.5366 382.06 34.4719 380.789 32.2115 378.529C29.9512 376.268 28.6797 373.204 28.6761 370.007V40.7332C28.6797 37.5365 29.9511 34.4718 32.2115 32.2114C34.4718 29.951 37.5365 28.6795 40.7331 28.6758H641.267C644.464 28.6795 647.528 29.951 649.789 32.2114C652.049 34.4718 653.32 37.5365 653.324 40.7332V370.007C653.32 373.204 652.049 376.268 649.788 378.529C647.528 380.789 644.463 382.06 641.267 382.064Z" fill="white"/>
<path d="M509.42 548.695H171.972C171.626 548.702 171.288 548.595 171.009 548.39C170.731 548.185 170.528 547.894 170.433 547.562C170.373 547.335 170.366 547.099 170.412 546.869C170.459 546.64 170.557 546.424 170.7 546.239C170.842 546.054 171.026 545.903 171.236 545.8C171.445 545.697 171.676 545.643 171.91 545.643H509.295C509.66 545.63 510.018 545.741 510.311 545.958C510.605 546.174 510.816 546.484 510.911 546.836C510.961 547.06 510.959 547.291 510.908 547.514C510.856 547.737 510.754 547.945 510.611 548.123C510.468 548.302 510.287 548.446 510.081 548.545C509.874 548.644 509.649 548.695 509.42 548.695Z" fill="#CCCCCC"/>
<path d="M634.856 81.9097H489.86V192.683H634.856V81.9097Z" fill="#F2F2F2"/>
<path d="M627.651 87.4136H497.064V187.178H627.651V87.4136Z" fill="white"/>
<path d="M564.651 161.414C564.668 161.415 564.686 161.414 564.703 161.413C573.542 160.951 581.874 157.139 588.003 150.753C594.133 144.366 597.599 135.885 597.699 127.034C597.798 118.183 594.522 109.627 588.538 103.105C582.553 96.5825 574.309 92.5848 565.482 91.9243C565.373 91.9157 565.263 91.9298 565.16 91.9657C565.056 92.0015 564.961 92.0584 564.881 92.1327C564.801 92.2057 564.736 92.2945 564.692 92.3936C564.648 92.4926 564.625 92.5997 564.624 92.7082L563.863 160.61C563.861 160.821 563.943 161.025 564.091 161.175C564.238 161.326 564.44 161.412 564.651 161.414Z" fill="#3F3D56"/>
<path d="M537.346 103.152C537.617 103.156 537.875 103.266 538.065 103.46L561.441 127.366C561.535 127.461 561.609 127.575 561.659 127.699C561.709 127.824 561.734 127.957 561.732 128.091L561.368 160.582C561.367 160.722 561.337 160.859 561.28 160.987C561.223 161.114 561.141 161.228 561.038 161.322C560.934 161.417 560.812 161.49 560.68 161.536C560.547 161.582 560.406 161.6 560.266 161.59C553.767 161.103 547.532 158.814 542.262 154.979C536.992 151.144 532.896 145.916 530.434 139.881C527.972 133.846 527.241 127.245 528.325 120.818C529.408 114.391 532.263 108.393 536.567 103.499C536.66 103.394 536.774 103.309 536.901 103.249C537.029 103.189 537.167 103.157 537.308 103.153C537.32 103.152 537.333 103.152 537.346 103.152Z" fill="#E6E6E6"/>
<path d="M561.116 91.6465C561.376 91.6497 561.626 91.7519 561.815 91.9324C561.916 92.0286 561.996 92.1447 562.05 92.2735C562.104 92.4022 562.131 92.5407 562.129 92.6802L561.8 121.996C561.798 122.198 561.736 122.394 561.622 122.561C561.508 122.728 561.347 122.857 561.16 122.932C560.972 123.007 560.767 123.025 560.569 122.983C560.372 122.942 560.191 122.843 560.05 122.698L539.652 101.837C539.555 101.738 539.479 101.62 539.429 101.491C539.379 101.362 539.356 101.223 539.361 101.085C539.366 100.946 539.4 100.81 539.459 100.685C539.518 100.559 539.603 100.448 539.707 100.356C545.639 95.1339 553.16 92.0658 561.052 91.6478C561.073 91.6467 561.094 91.6463 561.116 91.6465Z" fill="#FF6884"/>
<path d="M550.607 175.495C550.593 176.732 550.213 177.936 549.514 178.957C548.816 179.978 547.83 180.768 546.682 181.229C545.534 181.689 544.276 181.799 543.065 181.544C541.855 181.289 540.748 180.681 539.883 179.797C539.018 178.913 538.435 177.792 538.208 176.576C537.98 175.36 538.118 174.104 538.604 172.967C539.09 171.83 539.902 170.862 540.938 170.187C541.974 169.511 543.187 169.158 544.424 169.172C546.082 169.192 547.664 169.869 548.823 171.055C549.982 172.24 550.624 173.837 550.607 175.495Z" fill="#9F6EFA"/>
<path d="M568.473 175.695C568.459 176.932 568.079 178.137 567.38 179.157C566.682 180.178 565.696 180.968 564.548 181.429C563.4 181.889 562.142 181.999 560.931 181.744C559.721 181.489 558.614 180.881 557.749 179.997C556.884 179.113 556.301 177.992 556.073 176.776C555.846 175.561 555.984 174.305 556.47 173.167C556.956 172.03 557.768 171.062 558.804 170.387C559.84 169.711 561.053 169.358 562.29 169.372C563.948 169.392 565.53 170.07 566.689 171.255C567.848 172.44 568.49 174.037 568.473 175.695Z" fill="#3F3D56"/>
<path d="M586.339 175.895C586.325 177.132 585.945 178.337 585.246 179.357C584.547 180.378 583.562 181.169 582.414 181.629C581.266 182.09 580.007 182.199 578.797 181.944C577.587 181.69 576.479 181.082 575.615 180.197C574.75 179.313 574.167 178.192 573.939 176.976C573.711 175.761 573.849 174.505 574.335 173.367C574.822 172.23 575.634 171.263 576.67 170.587C577.706 169.911 578.919 169.558 580.156 169.572C581.814 169.593 583.396 170.27 584.555 171.455C585.714 172.641 586.355 174.237 586.339 175.895Z" fill="#E6E6E6"/>
<path d="M633.329 210.116H488.333V320.89H633.329V210.116Z" fill="#F2F2F2"/>
<path d="M626.125 215.621H495.538V315.385H626.125V215.621Z" fill="white"/>
<path d="M517.695 248.41C520.689 248.41 523.117 245.982 523.117 242.988C523.117 239.993 520.689 237.566 517.695 237.566C514.7 237.566 512.273 239.993 512.273 242.988C512.273 245.982 514.7 248.41 517.695 248.41Z" fill="#3F3D56"/>
<path d="M604.812 238.769C605.296 238.768 605.775 238.862 606.222 239.047C606.668 239.231 607.074 239.502 607.417 239.844C607.759 240.185 608.03 240.591 608.215 241.037C608.4 241.484 608.496 241.962 608.496 242.446C608.496 242.929 608.4 243.408 608.215 243.854C608.03 244.301 607.759 244.707 607.417 245.048C607.074 245.39 606.668 245.66 606.222 245.845C605.775 246.029 605.296 246.124 604.812 246.123H547.787C546.812 246.123 545.876 245.736 545.187 245.046C544.497 244.356 544.11 243.421 544.11 242.446C544.11 241.471 544.497 240.535 545.187 239.846C545.876 239.156 546.812 238.769 547.787 238.769H604.812ZM604.812 237.868H547.787C547.185 237.867 546.589 237.985 546.033 238.215C545.477 238.444 544.971 238.781 544.546 239.207C544.12 239.632 543.782 240.137 543.552 240.693C543.321 241.248 543.202 241.844 543.202 242.446C543.202 243.048 543.321 243.643 543.552 244.199C543.782 244.755 544.12 245.26 544.546 245.685C544.971 246.11 545.477 246.447 546.033 246.677C546.589 246.907 547.185 247.024 547.787 247.024H604.812C605.414 247.024 606.01 246.907 606.566 246.677C607.123 246.447 607.628 246.11 608.054 245.685C608.48 245.26 608.817 244.755 609.048 244.199C609.278 243.643 609.397 243.048 609.397 242.446C609.397 241.844 609.278 241.248 609.048 240.693C608.817 240.137 608.48 239.632 608.054 239.207C607.628 238.781 607.123 238.444 606.566 238.215C606.01 237.985 605.414 237.867 604.812 237.868Z" fill="#3F3D56"/>
<path d="M582.311 247.024H539.383C538.169 247.024 537.004 246.541 536.146 245.683C535.288 244.824 534.805 243.66 534.805 242.446C534.805 241.232 535.288 240.067 536.146 239.209C537.004 238.35 538.169 237.868 539.383 237.868H582.311C583.525 237.868 584.69 238.35 585.548 239.209C586.407 240.067 586.889 241.232 586.889 242.446C586.889 243.66 586.407 244.824 585.548 245.683C584.69 246.541 583.525 247.024 582.311 247.024Z" fill="#9F6EFA"/>
<path d="M517.695 270.925C520.689 270.925 523.117 268.498 523.117 265.503C523.117 262.509 520.689 260.081 517.695 260.081C514.7 260.081 512.273 262.509 512.273 265.503C512.273 268.498 514.7 270.925 517.695 270.925Z" fill="#3F3D56"/>
<path d="M604.812 261.284C605.296 261.283 605.775 261.378 606.221 261.562C606.668 261.747 607.074 262.017 607.416 262.359C607.759 262.7 608.03 263.106 608.215 263.552C608.4 263.999 608.496 264.478 608.496 264.961C608.496 265.444 608.4 265.923 608.215 266.37C608.03 266.816 607.759 267.222 607.416 267.563C607.074 267.905 606.668 268.176 606.221 268.36C605.775 268.544 605.296 268.639 604.812 268.638H547.787C546.812 268.638 545.876 268.251 545.187 267.561C544.497 266.872 544.11 265.936 544.11 264.961C544.11 263.986 544.497 263.05 545.187 262.361C545.876 261.671 546.812 261.284 547.787 261.284H604.812ZM604.812 260.383H547.787C546.573 260.383 545.408 260.866 544.55 261.724C543.691 262.583 543.209 263.747 543.209 264.961C543.209 266.175 543.691 267.339 544.55 268.198C545.408 269.056 546.573 269.539 547.787 269.539H604.812C606.027 269.539 607.191 269.056 608.049 268.198C608.908 267.339 609.39 266.175 609.39 264.961C609.39 263.747 608.908 262.583 608.049 261.724C607.191 260.866 606.027 260.383 604.812 260.383Z" fill="#3F3D56"/>
<path d="M598.522 269.539H539.383C538.169 269.539 537.004 269.056 536.146 268.198C535.287 267.339 534.805 266.175 534.805 264.961C534.805 263.747 535.287 262.583 536.146 261.724C537.004 260.866 538.169 260.383 539.383 260.383H598.522C599.736 260.383 600.9 260.866 601.759 261.724C602.617 262.583 603.1 263.747 603.1 264.961C603.1 266.175 602.617 267.339 601.759 268.198C600.9 269.056 599.736 269.539 598.522 269.539Z" fill="#9F6EFA"/>
<path d="M517.695 293.44C520.689 293.44 523.117 291.012 523.117 288.018C523.117 285.023 520.689 282.596 517.695 282.596C514.7 282.596 512.273 285.023 512.273 288.018C512.273 291.012 514.7 293.44 517.695 293.44Z" fill="#3F3D56"/>
<path d="M604.812 283.799C605.296 283.798 605.775 283.892 606.221 284.077C606.668 284.261 607.074 284.532 607.416 284.873C607.759 285.215 608.03 285.621 608.215 286.067C608.4 286.514 608.496 286.992 608.496 287.476C608.496 287.959 608.4 288.438 608.215 288.884C608.03 289.331 607.759 289.736 607.416 290.078C607.074 290.419 606.668 290.69 606.221 290.875C605.775 291.059 605.296 291.154 604.812 291.153H547.787C546.812 291.153 545.876 290.765 545.187 290.076C544.497 289.386 544.11 288.451 544.11 287.476C544.11 286.5 544.497 285.565 545.187 284.876C545.876 284.186 546.812 283.799 547.787 283.799H604.812ZM604.812 282.898H547.787C546.573 282.898 545.408 283.38 544.55 284.239C543.691 285.097 543.209 286.262 543.209 287.476C543.209 288.69 543.691 289.854 544.55 290.713C545.408 291.571 546.573 292.053 547.787 292.053H604.812C606.027 292.053 607.191 291.571 608.049 290.713C608.908 289.854 609.39 288.69 609.39 287.476C609.39 286.262 608.908 285.097 608.049 284.239C607.191 283.38 606.027 282.898 604.812 282.898Z" fill="#3F3D56"/>
<path d="M563.399 292.053H539.383C538.781 292.054 538.185 291.937 537.629 291.707C537.073 291.477 536.567 291.14 536.141 290.715C535.716 290.29 535.378 289.785 535.147 289.229C534.917 288.673 534.798 288.077 534.798 287.476C534.798 286.874 534.917 286.278 535.147 285.722C535.378 285.166 535.716 284.662 536.141 284.236C536.567 283.811 537.073 283.474 537.629 283.244C538.185 283.015 538.781 282.897 539.383 282.898H563.399C564.611 282.9 565.774 283.383 566.631 284.241C567.488 285.099 567.97 286.263 567.97 287.476C567.97 288.689 567.488 289.852 566.631 290.71C565.774 291.569 564.611 292.052 563.399 292.053Z" fill="#9F6EFA"/>
<path d="M456.282 101.508H51.1884V309.118H456.282V101.508Z" fill="#F2F2F2"/>
<path d="M442.779 111.824H64.6915V298.802H442.779V111.824Z" fill="white"/>
<path d="M395.888 270.277H120.27C120.041 270.277 119.822 270.186 119.66 270.024C119.498 269.862 119.407 269.643 119.407 269.414V137.31C119.407 137.082 119.498 136.862 119.66 136.7C119.822 136.539 120.041 136.448 120.27 136.448C120.498 136.448 120.718 136.539 120.88 136.7C121.041 136.862 121.132 137.082 121.132 137.31V268.552H395.888C396.117 268.552 396.336 268.642 396.498 268.804C396.66 268.966 396.75 269.185 396.75 269.414C396.75 269.643 396.66 269.862 396.498 270.024C396.336 270.186 396.117 270.277 395.888 270.277Z" fill="#3F3D56"/>
<path d="M179.157 260.789H154.089C153.41 260.788 152.759 260.518 152.279 260.038C151.799 259.558 151.529 258.907 151.528 258.228V223.671C151.529 222.992 151.799 222.342 152.279 221.862C152.759 221.382 153.41 221.112 154.089 221.111H179.157C179.836 221.112 180.487 221.382 180.967 221.862C181.447 222.342 181.717 222.992 181.718 223.671V258.228C181.717 258.907 181.447 259.558 180.967 260.038C180.487 260.518 179.836 260.788 179.157 260.789Z" fill="#9F6EFA"/>
<path d="M224.873 260.788H199.804C199.126 260.788 198.475 260.518 197.995 260.038C197.515 259.558 197.245 258.907 197.244 258.228V190.894C197.245 190.215 197.515 189.564 197.995 189.084C198.475 188.604 199.126 188.334 199.804 188.333H224.873C225.552 188.334 226.203 188.604 226.683 189.084C227.163 189.564 227.433 190.215 227.433 190.894V258.228C227.433 258.907 227.163 259.558 226.683 260.038C226.203 260.518 225.552 260.788 224.873 260.788Z" fill="#FF6884"/>
<path d="M270.589 260.789H245.52C244.841 260.788 244.19 260.518 243.71 260.038C243.23 259.558 242.96 258.907 242.959 258.228V223.671C242.96 222.992 243.23 222.342 243.71 221.862C244.19 221.382 244.841 221.112 245.52 221.111H270.589C271.267 221.112 271.918 221.382 272.398 221.862C272.878 222.342 273.148 222.992 273.149 223.671V258.228C273.148 258.907 272.878 259.558 272.398 260.038C271.918 260.518 271.267 260.788 270.589 260.789Z" fill="#9F6EFA"/>
<path d="M316.304 260.789H291.236C290.572 260.803 289.93 260.554 289.45 260.095C288.97 259.637 288.692 259.008 288.675 258.344V177.839C288.692 177.176 288.97 176.546 289.45 176.088C289.93 175.63 290.572 175.381 291.236 175.395H316.304C316.967 175.381 317.609 175.63 318.089 176.088C318.569 176.546 318.848 177.176 318.865 177.839V258.344C318.848 259.007 318.569 259.637 318.089 260.095C317.609 260.554 316.967 260.803 316.304 260.789Z" fill="#9F6EFA"/>
<path d="M362.02 260.788H336.951C336.272 260.788 335.622 260.518 335.142 260.038C334.662 259.558 334.392 258.907 334.391 258.228V154.666C334.392 153.987 334.662 153.337 335.142 152.857C335.622 152.377 336.272 152.107 336.951 152.106H362.02C362.699 152.107 363.349 152.377 363.829 152.857C364.309 153.337 364.58 153.987 364.58 154.666V258.228C364.58 258.907 364.309 259.558 363.829 260.038C363.349 260.518 362.699 260.788 362.02 260.788Z" fill="#FF6884"/>
<path d="M166.623 210.76C169.481 210.76 171.798 208.443 171.798 205.585C171.798 202.727 169.481 200.41 166.623 200.41C163.765 200.41 161.448 202.727 161.448 205.585C161.448 208.443 163.765 210.76 166.623 210.76Z" fill="#3F3D56"/>
<path d="M212.339 177.12C215.197 177.12 217.514 174.803 217.514 171.945C217.514 169.087 215.197 166.77 212.339 166.77C209.48 166.77 207.163 169.087 207.163 171.945C207.163 174.803 209.48 177.12 212.339 177.12Z" fill="#3F3D56"/>
<path d="M258.054 210.76C260.913 210.76 263.23 208.443 263.23 205.585C263.23 202.727 260.913 200.41 258.054 200.41C255.196 200.41 252.879 202.727 252.879 205.585C252.879 208.443 255.196 210.76 258.054 210.76Z" fill="#3F3D56"/>
<path d="M303.77 160.732C306.628 160.732 308.945 158.414 308.945 155.556C308.945 152.698 306.628 150.381 303.77 150.381C300.912 150.381 298.594 152.698 298.594 155.556C298.594 158.414 300.912 160.732 303.77 160.732Z" fill="#3F3D56"/>
<path d="M349.486 141.756C352.344 141.756 354.661 139.438 354.661 136.58C354.661 133.722 352.344 131.405 349.486 131.405C346.627 131.405 344.31 133.722 344.31 136.58C344.31 139.438 346.627 141.756 349.486 141.756Z" fill="#3F3D56"/>
<path d="M258.163 206.744L212.339 172.421L167.14 206.275L166.106 204.895L212.339 170.265L257.945 204.425L303.266 154.83L303.447 154.756L349.163 136.337L349.808 137.937L304.274 156.283L258.163 206.744Z" fill="#3F3D56"/>
<path d="M941.547 631.439H560.547C560.282 631.439 560.028 631.334 559.84 631.146C559.653 630.959 559.547 630.704 559.547 630.439C559.547 630.174 559.653 629.919 559.84 629.732C560.028 629.544 560.282 629.439 560.547 629.439H941.547C941.812 629.439 942.067 629.544 942.254 629.732C942.442 629.919 942.547 630.174 942.547 630.439C942.547 630.704 942.442 630.959 942.254 631.146C942.067 631.334 941.812 631.439 941.547 631.439Z" fill="#CCCCCC"/>
</g>
<defs>
<clipPath id="clip0_86_270">
<rect width="942.547" height="631.439" fill="white"/>
</clipPath>
</defs>
</svg>
