<svg width="2038" height="761" viewBox="0 0 2038 761" fill="none" xmlns="http://www.w3.org/2000/svg">
<path d="M0 0C795.888 0 1242.11 0 2038 0V761H0V0Z" fill="url(#paint0_linear_86_328)"/>
<path d="M1820.86 350.44L1823.66 328.013C1824.66 320.043 1828.78 312.794 1835.11 307.862C1841.45 302.929 1849.49 300.716 1857.46 301.711C1865.43 302.705 1872.68 306.825 1877.61 313.164C1882.55 319.503 1884.76 327.541 1883.77 335.512L1880.97 357.938C1880.83 359.008 1880.28 359.981 1879.43 360.643C1878.58 361.306 1877.5 361.604 1876.43 361.471L1824.4 354.98C1823.33 354.845 1822.35 354.292 1821.69 353.44C1821.03 352.589 1820.73 351.51 1820.86 350.44Z" fill="#2F2E41"/>
<path d="M1845.79 357.13C1858.05 357.13 1867.99 347.189 1867.99 334.927C1867.99 322.664 1858.05 312.723 1845.79 312.723C1833.52 312.723 1823.58 322.664 1823.58 334.927C1823.58 347.189 1833.52 357.13 1845.79 357.13Z" fill="#FFB8B8"/>
<path d="M1816.33 328.92C1817.12 322.619 1820.38 316.889 1825.4 312.988C1830.41 309.088 1836.76 307.335 1843.07 308.114L1847.55 308.674C1853.85 309.467 1859.58 312.728 1863.48 317.74C1867.38 322.753 1869.14 329.108 1868.36 335.411L1868.3 335.86L1858.82 334.677L1856.72 325.221L1854.94 334.193L1850.04 333.582L1848.98 328.811L1848.09 333.338L1816.27 329.369L1816.33 328.92Z" fill="#2F2E41"/>
<path d="M1737.19 414.131C1737.87 415.463 1738.83 416.631 1740.01 417.551C1741.19 418.471 1742.55 419.122 1744.01 419.457C1745.47 419.792 1746.98 419.803 1748.44 419.49C1749.91 419.178 1751.28 418.548 1752.47 417.646L1772.64 429.46L1782.81 418.955L1754.1 402.672C1752.45 400.769 1750.16 399.537 1747.66 399.209C1745.17 398.881 1742.64 399.48 1740.55 400.893C1738.47 402.305 1736.98 404.433 1736.36 406.873C1735.74 409.313 1736.03 411.895 1737.19 414.131Z" fill="#FFB8B8"/>
<path d="M1803.29 435.359C1788.41 435.359 1762.23 428.7 1760.78 428.328L1760.33 428.211L1764.45 407.352L1804.43 415.249L1826.15 384.662L1851.09 382.127L1850.39 383.043C1850.07 383.469 1817.92 425.786 1812.92 432.884C1811.66 434.675 1808.05 435.359 1803.29 435.359Z" fill="#3F3D56"/>
<path d="M1807.27 513.647L1806.68 513.363C1806.55 513.302 1793.91 507.155 1787.37 495.154C1780.85 483.209 1811.35 432.542 1813.48 429.026L1813.52 412.935L1824.49 383.314L1838.48 375.406L1826.47 403.436L1807.27 513.647Z" fill="#3F3D56"/>
<path d="M1793.26 686.591L1779.89 686.59L1773.52 635.011L1793.26 635.012L1793.26 686.591Z" fill="#FFB8B8"/>
<path d="M1796.67 699.553L1753.55 699.551V699.006C1753.55 694.555 1755.32 690.286 1758.47 687.139C1761.61 683.992 1765.88 682.224 1770.33 682.224L1796.67 682.225L1796.67 699.553Z" fill="#2F2E41"/>
<path d="M1936.89 674.872L1924.18 679.035L1902.08 632.002L1920.83 625.857L1936.89 674.872Z" fill="#FFB8B8"/>
<path d="M1944.17 686.128L1903.19 699.553L1903.02 699.035C1901.64 694.805 1901.99 690.198 1904 686.227C1906.01 682.256 1909.52 679.247 1913.75 677.861L1913.75 677.86L1938.77 669.661L1944.17 686.128Z" fill="#2F2E41"/>
<path d="M1911 666.439L1872.88 602.798L1840.7 534.805L1811.74 594.866L1800.24 672.654L1759.89 673.214L1821.79 427.273L1870.14 434.497L1867.94 466.413L1869.25 468.277C1880.18 483.793 1891.47 499.836 1884.99 517.13L1903.35 571.653L1944 662.439L1911 666.439Z" fill="#2F2E41"/>
<path d="M1824 480.439C1816.99 480.439 1809 472.439 1813.15 458.781L1812.88 458.587L1822.84 414.579C1814.15 402.147 1825.61 391.887 1826.68 390.971L1832.15 381.124L1856.29 365.815L1868.5 467.29L1868.32 467.462C1859.5 475.902 1829.88 480.439 1824 480.439Z" fill="#FF6884"/>
<path d="M1873.43 503.337C1872.47 503.351 1871.52 503.25 1870.58 503.035C1869.64 502.799 1868.12 501.604 1865.77 493.958C1856.44 463.56 1845.42 372.097 1853.42 363.147L1853.61 362.942L1866.76 365.133C1867.85 364.327 1873.58 360.323 1878.88 361.019C1879.97 361.156 1881.02 361.515 1881.96 362.074C1882.91 362.633 1883.73 363.38 1884.37 364.268L1884.46 364.387L1888.65 423.981L1904 494.112L1903.63 494.279C1902.74 494.685 1883.58 503.337 1873.43 503.337Z" fill="#3F3D56"/>
<path d="M1864.59 480.044C1866.08 479.994 1867.55 479.617 1868.88 478.94C1870.22 478.262 1871.38 477.301 1872.31 476.123C1873.23 474.945 1873.88 473.58 1874.21 472.123C1874.55 470.666 1874.56 469.153 1874.25 467.691L1893.5 454.433L1888.3 440.771L1861.38 459.875C1858.96 460.561 1856.87 462.112 1855.51 464.234C1854.16 466.355 1853.63 468.9 1854.03 471.386C1854.42 473.872 1855.72 476.127 1857.66 477.723C1859.61 479.318 1862.07 480.144 1864.59 480.044Z" fill="#FFB8B8"/>
<path d="M1887.15 465.056L1870 452.483L1894.1 419.619L1875.61 386.98L1883.88 363.319L1884.42 364.338C1884.67 364.813 1909.37 411.865 1913.68 419.406C1918.16 427.25 1888.71 463.167 1887.45 464.691L1887.15 465.056Z" fill="#3F3D56"/>
<path d="M1501.48 612.974L1486.89 606.83L1476.88 533.679H1343.57L1332.72 606.531L1319.67 613.059C1319.04 613.371 1318.54 613.885 1318.25 614.518C1317.95 615.15 1317.88 615.864 1318.04 616.544C1318.2 617.224 1318.58 617.829 1319.13 618.263C1319.68 618.696 1320.36 618.932 1321.05 618.932H1500.28C1500.99 618.932 1501.69 618.684 1502.24 618.231C1502.79 617.778 1503.17 617.147 1503.32 616.445C1503.46 615.744 1503.35 615.015 1503.02 614.382C1502.68 613.749 1502.14 613.252 1501.48 612.974Z" fill="#E6E6E6"/>
<path d="M1738.37 543.411H1083.54C1080.11 543.404 1076.81 542.033 1074.39 539.601C1071.96 537.169 1070.6 533.874 1070.6 530.438V438.099H1751.32V530.438C1751.32 533.874 1749.95 537.169 1747.53 539.601C1745.1 542.033 1741.81 543.404 1738.37 543.411Z" fill="#CCCCCC"/>
<path d="M1752 481.74H1070V86.6391C1070 82.4927 1071.65 78.5176 1074.59 75.5857C1077.52 72.6538 1081.49 71.0047 1085.64 71H1736.36C1740.51 71.0046 1744.48 72.6538 1747.41 75.5857C1750.35 78.5175 1752 82.4927 1752 86.6391V481.74Z" fill="#3F3D56"/>
<path d="M1711.27 453.064H1110.73C1107.54 453.06 1104.47 451.789 1102.21 449.529C1099.95 447.268 1098.68 444.204 1098.68 441.007V111.733C1098.68 108.537 1099.95 105.472 1102.21 103.211C1104.47 100.951 1107.54 99.6795 1110.73 99.6758H1711.27C1714.46 99.6795 1717.53 100.951 1719.79 103.211C1722.05 105.472 1723.32 108.537 1723.32 111.733V441.007C1723.32 444.204 1722.05 447.268 1719.79 449.529C1717.53 451.789 1714.46 453.06 1711.27 453.064Z" fill="white"/>
<path d="M1579.42 619.695H1241.97C1241.63 619.702 1241.29 619.595 1241.01 619.39C1240.73 619.185 1240.53 618.894 1240.43 618.561C1240.37 618.335 1240.37 618.098 1240.41 617.869C1240.46 617.64 1240.56 617.424 1240.7 617.239C1240.84 617.053 1241.03 616.903 1241.24 616.8C1241.45 616.696 1241.68 616.643 1241.91 616.642H1579.29C1579.66 616.63 1580.02 616.741 1580.31 616.957C1580.6 617.174 1580.82 617.484 1580.91 617.836C1580.96 618.059 1580.96 618.291 1580.91 618.514C1580.86 618.736 1580.75 618.945 1580.61 619.123C1580.47 619.301 1580.29 619.445 1580.08 619.544C1579.87 619.643 1579.65 619.695 1579.42 619.695Z" fill="#CCCCCC"/>
<path d="M1704.86 152.909H1559.86V263.683H1704.86V152.909Z" fill="#F2F2F2"/>
<path d="M1697.65 158.414H1567.06V258.178H1697.65V158.414Z" fill="white"/>
<path d="M1634.65 232.414C1634.67 232.414 1634.69 232.414 1634.7 232.413C1643.54 231.951 1651.87 228.139 1658 221.753C1664.13 215.366 1667.6 206.885 1667.7 198.034C1667.8 189.183 1664.52 180.627 1658.54 174.104C1652.55 167.582 1644.31 163.585 1635.48 162.924C1635.37 162.916 1635.26 162.93 1635.16 162.966C1635.06 163.001 1634.96 163.058 1634.88 163.133C1634.8 163.206 1634.74 163.294 1634.69 163.394C1634.65 163.493 1634.62 163.6 1634.62 163.708L1633.86 231.61C1633.86 231.821 1633.94 232.024 1634.09 232.175C1634.24 232.326 1634.44 232.412 1634.65 232.414Z" fill="#3F3D56"/>
<path d="M1607.35 174.152C1607.62 174.156 1607.88 174.266 1608.07 174.46L1631.44 198.366C1631.54 198.461 1631.61 198.575 1631.66 198.699C1631.71 198.824 1631.73 198.957 1631.73 199.091L1631.37 231.582C1631.37 231.722 1631.34 231.859 1631.28 231.987C1631.22 232.114 1631.14 232.228 1631.04 232.322C1630.93 232.417 1630.81 232.49 1630.68 232.536C1630.55 232.582 1630.41 232.6 1630.27 232.59C1623.77 232.103 1617.53 229.814 1612.26 225.979C1606.99 222.144 1602.9 216.916 1600.43 210.881C1597.97 204.846 1597.24 198.245 1598.32 191.818C1599.41 185.391 1602.26 179.393 1606.57 174.499C1606.66 174.394 1606.77 174.309 1606.9 174.249C1607.03 174.189 1607.17 174.157 1607.31 174.153C1607.32 174.152 1607.33 174.152 1607.35 174.152Z" fill="#E6E6E6"/>
<path d="M1631.12 162.647C1631.38 162.65 1631.63 162.752 1631.81 162.933C1631.92 163.029 1632 163.145 1632.05 163.274C1632.1 163.402 1632.13 163.541 1632.13 163.68L1631.8 192.996C1631.8 193.198 1631.74 193.395 1631.62 193.561C1631.51 193.728 1631.35 193.857 1631.16 193.932C1630.97 194.007 1630.77 194.025 1630.57 193.984C1630.37 193.942 1630.19 193.843 1630.05 193.698L1609.65 172.838C1609.55 172.738 1609.48 172.621 1609.43 172.491C1609.38 172.362 1609.36 172.224 1609.36 172.085C1609.37 171.946 1609.4 171.81 1609.46 171.685C1609.52 171.56 1609.6 171.448 1609.71 171.356C1615.64 166.134 1623.16 163.066 1631.05 162.648C1631.07 162.647 1631.09 162.647 1631.12 162.647Z" fill="#FF6884"/>
<path d="M1620.61 246.495C1620.59 247.732 1620.21 248.936 1619.51 249.957C1618.82 250.978 1617.83 251.768 1616.68 252.229C1615.53 252.689 1614.28 252.799 1613.07 252.544C1611.86 252.289 1610.75 251.681 1609.88 250.797C1609.02 249.913 1608.44 248.792 1608.21 247.576C1607.98 246.36 1608.12 245.104 1608.6 243.967C1609.09 242.83 1609.9 241.862 1610.94 241.187C1611.97 240.511 1613.19 240.158 1614.42 240.172C1616.08 240.192 1617.66 240.869 1618.82 242.055C1619.98 243.24 1620.62 244.837 1620.61 246.495Z" fill="#9F6EFA"/>
<path d="M1638.47 246.695C1638.46 247.932 1638.08 249.137 1637.38 250.157C1636.68 251.178 1635.7 251.968 1634.55 252.429C1633.4 252.889 1632.14 252.999 1630.93 252.744C1629.72 252.489 1628.61 251.881 1627.75 250.997C1626.88 250.113 1626.3 248.992 1626.07 247.776C1625.85 246.561 1625.98 245.305 1626.47 244.167C1626.96 243.03 1627.77 242.062 1628.8 241.387C1629.84 240.711 1631.05 240.358 1632.29 240.372C1633.95 240.393 1635.53 241.07 1636.69 242.255C1637.85 243.441 1638.49 245.037 1638.47 246.695Z" fill="#3F3D56"/>
<path d="M1656.34 246.896C1656.33 248.132 1655.94 249.337 1655.25 250.358C1654.55 251.378 1653.56 252.169 1652.41 252.629C1651.27 253.09 1650.01 253.199 1648.8 252.945C1647.59 252.69 1646.48 252.082 1645.61 251.197C1644.75 250.313 1644.17 249.192 1643.94 247.977C1643.71 246.761 1643.85 245.505 1644.34 244.368C1644.82 243.23 1645.63 242.263 1646.67 241.587C1647.71 240.912 1648.92 240.559 1650.16 240.572C1651.81 240.593 1653.4 241.27 1654.55 242.455C1655.71 243.641 1656.36 245.238 1656.34 246.896Z" fill="#E6E6E6"/>
<path d="M1703.33 281.116H1558.33V391.89H1703.33V281.116Z" fill="#F2F2F2"/>
<path d="M1696.12 286.621H1565.54V386.385H1696.12V286.621Z" fill="white"/>
<path d="M1587.69 319.41C1590.69 319.41 1593.12 316.983 1593.12 313.988C1593.12 310.994 1590.69 308.566 1587.69 308.566C1584.7 308.566 1582.27 310.994 1582.27 313.988C1582.27 316.983 1584.7 319.41 1587.69 319.41Z" fill="#3F3D56"/>
<path d="M1674.81 309.769C1675.3 309.768 1675.77 309.863 1676.22 310.047C1676.67 310.231 1677.07 310.502 1677.42 310.844C1677.76 311.185 1678.03 311.591 1678.22 312.037C1678.4 312.484 1678.5 312.963 1678.5 313.446C1678.5 313.929 1678.4 314.408 1678.22 314.855C1678.03 315.301 1677.76 315.707 1677.42 316.048C1677.07 316.39 1676.67 316.66 1676.22 316.845C1675.77 317.029 1675.3 317.124 1674.81 317.123H1617.79C1616.81 317.123 1615.88 316.736 1615.19 316.046C1614.5 315.356 1614.11 314.421 1614.11 313.446C1614.11 312.471 1614.5 311.535 1615.19 310.846C1615.88 310.156 1616.81 309.769 1617.79 309.769H1674.81ZM1674.81 308.868H1617.79C1617.19 308.867 1616.59 308.985 1616.03 309.215C1615.48 309.444 1614.97 309.781 1614.55 310.207C1614.12 310.632 1613.78 311.137 1613.55 311.693C1613.32 312.248 1613.2 312.844 1613.2 313.446C1613.2 314.048 1613.32 314.643 1613.55 315.199C1613.78 315.755 1614.12 316.26 1614.55 316.685C1614.97 317.11 1615.48 317.448 1616.03 317.677C1616.59 317.907 1617.19 318.025 1617.79 318.024H1674.81C1675.41 318.025 1676.01 317.907 1676.57 317.677C1677.12 317.448 1677.63 317.11 1678.05 316.685C1678.48 316.26 1678.82 315.755 1679.05 315.199C1679.28 314.643 1679.4 314.048 1679.4 313.446C1679.4 312.844 1679.28 312.248 1679.05 311.693C1678.82 311.137 1678.48 310.632 1678.05 310.207C1677.63 309.781 1677.12 309.444 1676.57 309.215C1676.01 308.985 1675.41 308.867 1674.81 308.868Z" fill="#3F3D56"/>
<path d="M1652.31 318.024H1609.38C1608.17 318.024 1607 317.541 1606.15 316.683C1605.29 315.824 1604.81 314.66 1604.81 313.446C1604.81 312.232 1605.29 311.067 1606.15 310.209C1607 309.35 1608.17 308.868 1609.38 308.868H1652.31C1653.53 308.868 1654.69 309.35 1655.55 310.209C1656.41 311.067 1656.89 312.232 1656.89 313.446C1656.89 314.66 1656.41 315.824 1655.55 316.683C1654.69 317.541 1653.53 318.024 1652.31 318.024Z" fill="#9F6EFA"/>
<path d="M1587.69 341.925C1590.69 341.925 1593.12 339.498 1593.12 336.503C1593.12 333.509 1590.69 331.081 1587.69 331.081C1584.7 331.081 1582.27 333.509 1582.27 336.503C1582.27 339.498 1584.7 341.925 1587.69 341.925Z" fill="#3F3D56"/>
<path d="M1674.81 332.284C1675.3 332.283 1675.77 332.377 1676.22 332.562C1676.67 332.746 1677.07 333.017 1677.42 333.359C1677.76 333.7 1678.03 334.106 1678.22 334.552C1678.4 334.999 1678.5 335.477 1678.5 335.961C1678.5 336.444 1678.4 336.923 1678.22 337.369C1678.03 337.816 1677.76 338.222 1677.42 338.563C1677.07 338.905 1676.67 339.175 1676.22 339.36C1675.77 339.544 1675.3 339.639 1674.81 339.638H1617.79C1616.81 339.638 1615.88 339.251 1615.19 338.561C1614.5 337.871 1614.11 336.936 1614.11 335.961C1614.11 334.986 1614.5 334.05 1615.19 333.361C1615.88 332.671 1616.81 332.284 1617.79 332.284H1674.81ZM1674.81 331.383H1617.79C1616.57 331.383 1615.41 331.865 1614.55 332.724C1613.69 333.582 1613.21 334.747 1613.21 335.961C1613.21 337.175 1613.69 338.339 1614.55 339.198C1615.41 340.056 1616.57 340.539 1617.79 340.539H1674.81C1676.03 340.539 1677.19 340.056 1678.05 339.198C1678.91 338.339 1679.39 337.175 1679.39 335.961C1679.39 334.747 1678.91 333.582 1678.05 332.724C1677.19 331.865 1676.03 331.383 1674.81 331.383Z" fill="#3F3D56"/>
<path d="M1668.52 340.539H1609.38C1608.17 340.539 1607 340.056 1606.15 339.198C1605.29 338.339 1604.81 337.175 1604.81 335.961C1604.81 334.747 1605.29 333.582 1606.15 332.724C1607 331.865 1608.17 331.383 1609.38 331.383H1668.52C1669.74 331.383 1670.9 331.865 1671.76 332.724C1672.62 333.582 1673.1 334.747 1673.1 335.961C1673.1 337.175 1672.62 338.339 1671.76 339.198C1670.9 340.056 1669.74 340.539 1668.52 340.539Z" fill="#9F6EFA"/>
<path d="M1587.69 364.44C1590.69 364.44 1593.12 362.012 1593.12 359.018C1593.12 356.023 1590.69 353.596 1587.69 353.596C1584.7 353.596 1582.27 356.023 1582.27 359.018C1582.27 362.012 1584.7 364.44 1587.69 364.44Z" fill="#3F3D56"/>
<path d="M1674.81 354.799C1675.3 354.798 1675.77 354.892 1676.22 355.077C1676.67 355.261 1677.07 355.532 1677.42 355.873C1677.76 356.215 1678.03 356.621 1678.22 357.067C1678.4 357.514 1678.5 357.992 1678.5 358.476C1678.5 358.959 1678.4 359.438 1678.22 359.884C1678.03 360.331 1677.76 360.736 1677.42 361.078C1677.07 361.42 1676.67 361.69 1676.22 361.875C1675.77 362.059 1675.3 362.154 1674.81 362.153H1617.79C1616.81 362.153 1615.88 361.765 1615.19 361.076C1614.5 360.386 1614.11 359.451 1614.11 358.476C1614.11 357.501 1614.5 356.565 1615.19 355.876C1615.88 355.186 1616.81 354.799 1617.79 354.799H1674.81ZM1674.81 353.898H1617.79C1616.57 353.898 1615.41 354.38 1614.55 355.239C1613.69 356.097 1613.21 357.262 1613.21 358.476C1613.21 359.69 1613.69 360.854 1614.55 361.713C1615.41 362.571 1616.57 363.053 1617.79 363.053H1674.81C1676.03 363.053 1677.19 362.571 1678.05 361.713C1678.91 360.854 1679.39 359.69 1679.39 358.476C1679.39 357.262 1678.91 356.097 1678.05 355.239C1677.19 354.38 1676.03 353.898 1674.81 353.898Z" fill="#3F3D56"/>
<path d="M1633.4 363.053H1609.38C1608.78 363.054 1608.19 362.937 1607.63 362.707C1607.07 362.477 1606.57 362.14 1606.14 361.715C1605.72 361.29 1605.38 360.785 1605.15 360.229C1604.92 359.673 1604.8 359.077 1604.8 358.476C1604.8 357.874 1604.92 357.278 1605.15 356.722C1605.38 356.167 1605.72 355.662 1606.14 355.236C1606.57 354.811 1607.07 354.474 1607.63 354.245C1608.19 354.015 1608.78 353.897 1609.38 353.898H1633.4C1634.61 353.9 1635.77 354.383 1636.63 355.241C1637.49 356.099 1637.97 357.263 1637.97 358.476C1637.97 359.689 1637.49 360.852 1636.63 361.71C1635.77 362.569 1634.61 363.052 1633.4 363.053Z" fill="#9F6EFA"/>
<path d="M1526.28 172.508H1121.19V380.118H1526.28V172.508Z" fill="#F2F2F2"/>
<path d="M1512.78 182.824H1134.69V369.802H1512.78V182.824Z" fill="white"/>
<path d="M1465.89 341.277H1190.27C1190.04 341.277 1189.82 341.186 1189.66 341.024C1189.5 340.862 1189.41 340.643 1189.41 340.414V208.31C1189.41 208.082 1189.5 207.862 1189.66 207.7C1189.82 207.539 1190.04 207.448 1190.27 207.448C1190.5 207.448 1190.72 207.539 1190.88 207.7C1191.04 207.862 1191.13 208.082 1191.13 208.31V339.552H1465.89C1466.12 339.552 1466.34 339.642 1466.5 339.804C1466.66 339.966 1466.75 340.185 1466.75 340.414C1466.75 340.643 1466.66 340.862 1466.5 341.024C1466.34 341.186 1466.12 341.277 1465.89 341.277Z" fill="#3F3D56"/>
<path d="M1249.16 331.789H1224.09C1223.41 331.788 1222.76 331.518 1222.28 331.038C1221.8 330.558 1221.53 329.907 1221.53 329.228V294.671C1221.53 293.992 1221.8 293.342 1222.28 292.862C1222.76 292.382 1223.41 292.112 1224.09 292.111H1249.16C1249.84 292.112 1250.49 292.382 1250.97 292.862C1251.45 293.342 1251.72 293.992 1251.72 294.671V329.228C1251.72 329.907 1251.45 330.558 1250.97 331.038C1250.49 331.518 1249.84 331.788 1249.16 331.789Z" fill="#9F6EFA"/>
<path d="M1294.87 331.789H1269.8C1269.13 331.788 1268.47 331.518 1267.99 331.038C1267.51 330.558 1267.24 329.907 1267.24 329.228V261.894C1267.24 261.215 1267.51 260.564 1267.99 260.084C1268.47 259.604 1269.13 259.334 1269.8 259.334H1294.87C1295.55 259.334 1296.2 259.604 1296.68 260.084C1297.16 260.564 1297.43 261.215 1297.43 261.894V329.228C1297.43 329.907 1297.16 330.558 1296.68 331.038C1296.2 331.518 1295.55 331.788 1294.87 331.789Z" fill="#FF6884"/>
<path d="M1340.59 331.789H1315.52C1314.84 331.788 1314.19 331.518 1313.71 331.038C1313.23 330.558 1312.96 329.907 1312.96 329.228V294.671C1312.96 293.992 1313.23 293.342 1313.71 292.862C1314.19 292.382 1314.84 292.112 1315.52 292.111H1340.59C1341.27 292.112 1341.92 292.382 1342.4 292.862C1342.88 293.342 1343.15 293.992 1343.15 294.671V329.228C1343.15 329.907 1342.88 330.558 1342.4 331.038C1341.92 331.518 1341.27 331.788 1340.59 331.789Z" fill="#9F6EFA"/>
<path d="M1386.3 331.789H1361.24C1360.57 331.803 1359.93 331.554 1359.45 331.095C1358.97 330.637 1358.69 330.008 1358.68 329.344V248.84C1358.69 248.176 1358.97 247.546 1359.45 247.088C1359.93 246.63 1360.57 246.381 1361.24 246.395H1386.3C1386.97 246.381 1387.61 246.63 1388.09 247.088C1388.57 247.546 1388.85 248.176 1388.86 248.84V329.344C1388.85 330.008 1388.57 330.637 1388.09 331.095C1387.61 331.554 1386.97 331.803 1386.3 331.789Z" fill="#9F6EFA"/>
<path d="M1432.02 331.789H1406.95C1406.27 331.788 1405.62 331.518 1405.14 331.038C1404.66 330.558 1404.39 329.907 1404.39 329.228V225.666C1404.39 224.988 1404.66 224.337 1405.14 223.857C1405.62 223.377 1406.27 223.107 1406.95 223.106H1432.02C1432.7 223.107 1433.35 223.377 1433.83 223.857C1434.31 224.337 1434.58 224.988 1434.58 225.666V329.228C1434.58 329.907 1434.31 330.558 1433.83 331.038C1433.35 331.518 1432.7 331.788 1432.02 331.789Z" fill="#FF6884"/>
<path d="M1236.62 281.76C1239.48 281.76 1241.8 279.443 1241.8 276.585C1241.8 273.727 1239.48 271.409 1236.62 271.409C1233.76 271.409 1231.45 273.727 1231.45 276.585C1231.45 279.443 1233.76 281.76 1236.62 281.76Z" fill="#3F3D56"/>
<path d="M1282.34 248.12C1285.2 248.12 1287.51 245.803 1287.51 242.945C1287.51 240.087 1285.2 237.77 1282.34 237.77C1279.48 237.77 1277.16 240.087 1277.16 242.945C1277.16 245.803 1279.48 248.12 1282.34 248.12Z" fill="#3F3D56"/>
<path d="M1328.05 281.76C1330.91 281.76 1333.23 279.443 1333.23 276.585C1333.23 273.727 1330.91 271.409 1328.05 271.409C1325.2 271.409 1322.88 273.727 1322.88 276.585C1322.88 279.443 1325.2 281.76 1328.05 281.76Z" fill="#3F3D56"/>
<path d="M1373.77 231.732C1376.63 231.732 1378.95 229.415 1378.95 226.556C1378.95 223.698 1376.63 221.381 1373.77 221.381C1370.91 221.381 1368.59 223.698 1368.59 226.556C1368.59 229.415 1370.91 231.732 1373.77 231.732Z" fill="#3F3D56"/>
<path d="M1419.49 212.755C1422.34 212.755 1424.66 210.438 1424.66 207.58C1424.66 204.722 1422.34 202.405 1419.49 202.405C1416.63 202.405 1414.31 204.722 1414.31 207.58C1414.31 210.438 1416.63 212.755 1419.49 212.755Z" fill="#3F3D56"/>
<path d="M1328.16 277.744L1282.34 243.421L1237.14 277.275L1236.11 275.895L1282.34 241.265L1327.95 275.425L1373.27 225.83L1373.45 225.756L1419.16 207.337L1419.81 208.937L1374.27 227.283L1328.16 277.744Z" fill="#3F3D56"/>
<path d="M2011.55 702.439H1630.55C1630.28 702.439 1630.03 702.334 1629.84 702.146C1629.65 701.959 1629.55 701.704 1629.55 701.439C1629.55 701.174 1629.65 700.919 1629.84 700.732C1630.03 700.544 1630.28 700.439 1630.55 700.439H2011.55C2011.81 700.439 2012.07 700.544 2012.25 700.732C2012.44 700.919 2012.55 701.174 2012.55 701.439C2012.55 701.704 2012.44 701.959 2012.25 702.146C2012.07 702.334 2011.81 702.439 2011.55 702.439Z" fill="#CCCCCC"/>
<defs>
<linearGradient id="paint0_linear_86_328" x1="412.009" y1="913.2" x2="1771.42" y2="922.895" gradientUnits="userSpaceOnUse">
<stop stop-color="#705ECE"/>
<stop offset="1" stop-color="#705ECE" stop-opacity="0"/>
</linearGradient>
</defs>
</svg>
