<svg width="2080" height="807" viewBox="0 0 2080 807" fill="none" xmlns="http://www.w3.org/2000/svg">
<path d="M1887.86 412.44L1890.66 390.013C1891.66 382.043 1895.78 374.794 1902.11 369.862C1908.45 364.929 1916.49 362.716 1924.46 363.711C1932.43 364.705 1939.68 368.825 1944.61 375.164C1949.55 381.503 1951.76 389.541 1950.77 397.512L1947.97 419.938C1947.83 421.008 1947.28 421.981 1946.43 422.643C1945.58 423.306 1944.5 423.604 1943.43 423.471L1891.4 416.98C1890.33 416.845 1889.35 416.292 1888.69 415.44C1888.03 414.589 1887.73 413.51 1887.86 412.44Z" fill="#2F2E41"/>
<path d="M1912.79 419.13C1925.05 419.13 1934.99 409.189 1934.99 396.927C1934.99 384.664 1925.05 374.723 1912.79 374.723C1900.52 374.723 1890.58 384.664 1890.58 396.927C1890.58 409.189 1900.52 419.13 1912.79 419.13Z" fill="#FFB8B8"/>
<path d="M1883.33 390.92C1884.12 384.619 1887.38 378.889 1892.4 374.988C1897.41 371.088 1903.76 369.335 1910.07 370.114L1914.55 370.674C1920.85 371.467 1926.58 374.728 1930.48 379.74C1934.38 384.753 1936.14 391.108 1935.36 397.411L1935.3 397.86L1925.82 396.677L1923.72 387.221L1921.94 396.193L1917.04 395.582L1915.98 390.811L1915.09 395.338L1883.27 391.369L1883.33 390.92Z" fill="#2F2E41"/>
<path d="M1804.19 476.131C1804.87 477.463 1805.83 478.631 1807.01 479.551C1808.19 480.471 1809.55 481.122 1811.01 481.457C1812.47 481.792 1813.98 481.803 1815.44 481.49C1816.91 481.178 1818.28 480.548 1819.47 479.646L1839.64 491.46L1849.81 480.955L1821.1 464.672C1819.45 462.769 1817.16 461.537 1814.66 461.209C1812.17 460.881 1809.64 461.48 1807.55 462.893C1805.47 464.305 1803.98 466.433 1803.36 468.873C1802.74 471.313 1803.03 473.895 1804.19 476.131Z" fill="#FFB8B8"/>
<path d="M1870.29 497.359C1855.41 497.359 1829.23 490.7 1827.78 490.328L1827.33 490.211L1831.45 469.352L1871.43 477.249L1893.15 446.662L1918.09 444.127L1917.39 445.043C1917.07 445.469 1884.92 487.786 1879.92 494.884C1878.66 496.675 1875.05 497.359 1870.29 497.359Z" fill="#3F3D56"/>
<path d="M1874.27 575.647L1873.68 575.363C1873.55 575.302 1860.91 569.155 1854.37 557.154C1847.85 545.209 1878.35 494.542 1880.48 491.026L1880.52 474.935L1891.49 445.314L1905.48 437.406L1893.47 465.436L1874.27 575.647Z" fill="#3F3D56"/>
<path d="M1860.26 748.591L1846.89 748.59L1840.52 697.011L1860.26 697.012L1860.26 748.591Z" fill="#FFB8B8"/>
<path d="M1863.67 761.553L1820.55 761.551V761.006C1820.55 756.555 1822.32 752.286 1825.47 749.139C1828.61 745.992 1832.88 744.224 1837.33 744.224L1863.67 744.225L1863.67 761.553Z" fill="#2F2E41"/>
<path d="M2003.89 736.872L1991.18 741.035L1969.08 694.002L1987.83 687.857L2003.89 736.872Z" fill="#FFB8B8"/>
<path d="M2011.17 748.128L1970.19 761.553L1970.02 761.035C1968.64 756.805 1968.99 752.198 1971 748.227C1973.01 744.256 1976.52 741.247 1980.75 739.861L1980.75 739.86L2005.77 731.661L2011.17 748.128Z" fill="#2F2E41"/>
<path d="M1978 728.439L1939.88 664.798L1907.7 596.805L1878.74 656.866L1867.24 734.654L1826.89 735.214L1888.79 489.273L1937.14 496.497L1934.94 528.413L1936.25 530.277C1947.18 545.793 1958.47 561.836 1951.99 579.13L1970.35 633.653L2011 724.439L1978 728.439Z" fill="#2F2E41"/>
<path d="M1891 542.439C1883.99 542.439 1876 534.439 1880.15 520.781L1879.88 520.587L1889.84 476.579C1881.15 464.147 1892.61 453.887 1893.68 452.971L1899.15 443.124L1923.29 427.815L1935.5 529.29L1935.32 529.462C1926.5 537.902 1896.88 542.439 1891 542.439Z" fill="#9F6EFA"/>
<path d="M1940.43 565.337C1939.47 565.351 1938.52 565.25 1937.58 565.035C1936.64 564.799 1935.12 563.604 1932.77 555.958C1923.44 525.56 1912.42 434.097 1920.42 425.147L1920.61 424.942L1933.76 427.133C1934.85 426.327 1940.58 422.323 1945.88 423.019C1946.97 423.156 1948.02 423.515 1948.96 424.074C1949.91 424.633 1950.73 425.38 1951.37 426.268L1951.46 426.387L1955.65 485.981L1971 556.112L1970.63 556.279C1969.74 556.685 1950.58 565.337 1940.43 565.337Z" fill="#3F3D56"/>
<path d="M1931.59 542.044C1933.08 541.994 1934.55 541.617 1935.88 540.94C1937.22 540.262 1938.38 539.301 1939.31 538.123C1940.23 536.945 1940.88 535.58 1941.21 534.123C1941.55 532.666 1941.56 531.153 1941.25 529.691L1960.5 516.433L1955.3 502.771L1928.38 521.875C1925.96 522.561 1923.87 524.112 1922.51 526.234C1921.16 528.355 1920.63 530.9 1921.03 533.386C1921.42 535.872 1922.72 538.127 1924.66 539.723C1926.61 541.318 1929.07 542.144 1931.59 542.044Z" fill="#FFB8B8"/>
<path d="M1954.15 527.056L1937 514.483L1961.1 481.619L1942.61 448.98L1950.88 425.319L1951.42 426.338C1951.67 426.813 1976.37 473.865 1980.68 481.406C1985.16 489.25 1955.71 525.167 1954.45 526.691L1954.15 527.056Z" fill="#3F3D56"/>
<path d="M1568.48 674.974L1553.89 668.83L1543.88 595.679H1410.57L1399.72 668.531L1386.67 675.059C1386.04 675.371 1385.54 675.885 1385.25 676.518C1384.95 677.15 1384.88 677.864 1385.04 678.544C1385.2 679.224 1385.58 679.829 1386.13 680.263C1386.68 680.696 1387.36 680.932 1388.05 680.932H1567.28C1567.99 680.932 1568.69 680.684 1569.24 680.231C1569.79 679.778 1570.17 679.147 1570.32 678.445C1570.46 677.744 1570.35 677.015 1570.02 676.382C1569.68 675.749 1569.14 675.252 1568.48 674.974Z" fill="#E6E6E6"/>
<path d="M1805.37 605.411H1150.54C1147.11 605.404 1143.81 604.033 1141.39 601.601C1138.96 599.169 1137.6 595.874 1137.6 592.438V500.099H1818.32V592.438C1818.32 595.874 1816.95 599.169 1814.53 601.601C1812.1 604.033 1808.81 605.404 1805.37 605.411Z" fill="#CCCCCC"/>
<path d="M1819 543.74H1137V148.639C1137 144.493 1138.65 140.518 1141.59 137.586C1144.52 134.654 1148.49 133.005 1152.64 133H1803.36C1807.51 133.005 1811.48 134.654 1814.41 137.586C1817.35 140.518 1819 144.493 1819 148.639V543.74Z" fill="#3F3D56"/>
<path d="M1778.27 515.064H1177.73C1174.54 515.06 1171.47 513.789 1169.21 511.529C1166.95 509.268 1165.68 506.204 1165.68 503.007V173.733C1165.68 170.537 1166.95 167.472 1169.21 165.211C1171.47 162.951 1174.54 161.679 1177.73 161.676H1778.27C1781.46 161.679 1784.53 162.951 1786.79 165.211C1789.05 167.472 1790.32 170.537 1790.32 173.733V503.007C1790.32 506.204 1789.05 509.268 1786.79 511.529C1784.53 513.789 1781.46 515.06 1778.27 515.064Z" fill="white"/>
<path d="M1646.42 681.695H1308.97C1308.63 681.702 1308.29 681.595 1308.01 681.39C1307.73 681.185 1307.53 680.894 1307.43 680.561C1307.37 680.335 1307.37 680.098 1307.41 679.869C1307.46 679.64 1307.56 679.424 1307.7 679.239C1307.84 679.053 1308.03 678.903 1308.24 678.8C1308.45 678.696 1308.68 678.643 1308.91 678.642H1646.29C1646.66 678.63 1647.02 678.741 1647.31 678.957C1647.6 679.174 1647.82 679.484 1647.91 679.836C1647.96 680.059 1647.96 680.291 1647.91 680.514C1647.86 680.736 1647.75 680.945 1647.61 681.123C1647.47 681.301 1647.29 681.445 1647.08 681.544C1646.87 681.643 1646.65 681.695 1646.42 681.695Z" fill="#CCCCCC"/>
<path d="M1771.86 214.909H1626.86V325.683H1771.86V214.909Z" fill="#F2F2F2"/>
<path d="M1764.65 220.414H1634.06V320.178H1764.65V220.414Z" fill="white"/>
<path d="M1701.65 294.414C1701.67 294.414 1701.69 294.414 1701.7 294.413C1710.54 293.951 1718.87 290.139 1725 283.753C1731.13 277.366 1734.6 268.885 1734.7 260.034C1734.8 251.183 1731.52 242.627 1725.54 236.104C1719.55 229.582 1711.31 225.585 1702.48 224.924C1702.37 224.916 1702.26 224.93 1702.16 224.966C1702.06 225.001 1701.96 225.058 1701.88 225.133C1701.8 225.206 1701.74 225.294 1701.69 225.394C1701.65 225.493 1701.62 225.6 1701.62 225.708L1700.86 293.61C1700.86 293.821 1700.94 294.024 1701.09 294.175C1701.24 294.326 1701.44 294.412 1701.65 294.414Z" fill="#3F3D56"/>
<path d="M1674.35 236.152C1674.62 236.156 1674.88 236.266 1675.07 236.46L1698.44 260.366C1698.54 260.461 1698.61 260.575 1698.66 260.699C1698.71 260.824 1698.73 260.957 1698.73 261.091L1698.37 293.582C1698.37 293.722 1698.34 293.859 1698.28 293.987C1698.22 294.114 1698.14 294.228 1698.04 294.322C1697.93 294.417 1697.81 294.49 1697.68 294.536C1697.55 294.582 1697.41 294.6 1697.27 294.59C1690.77 294.103 1684.53 291.814 1679.26 287.979C1673.99 284.144 1669.9 278.916 1667.43 272.881C1664.97 266.846 1664.24 260.245 1665.32 253.818C1666.41 247.391 1669.26 241.393 1673.57 236.499C1673.66 236.394 1673.77 236.309 1673.9 236.249C1674.03 236.189 1674.17 236.157 1674.31 236.153C1674.32 236.152 1674.33 236.152 1674.35 236.152Z" fill="#E6E6E6"/>
<path d="M1698.12 224.647C1698.38 224.65 1698.63 224.752 1698.81 224.933C1698.92 225.029 1699 225.145 1699.05 225.274C1699.1 225.402 1699.13 225.541 1699.13 225.68L1698.8 254.996C1698.8 255.198 1698.74 255.395 1698.62 255.561C1698.51 255.728 1698.35 255.857 1698.16 255.932C1697.97 256.007 1697.77 256.025 1697.57 255.984C1697.37 255.942 1697.19 255.843 1697.05 255.698L1676.65 234.838C1676.55 234.738 1676.48 234.621 1676.43 234.491C1676.38 234.362 1676.36 234.224 1676.36 234.085C1676.37 233.946 1676.4 233.81 1676.46 233.685C1676.52 233.56 1676.6 233.448 1676.71 233.356C1682.64 228.134 1690.16 225.066 1698.05 224.648C1698.07 224.647 1698.09 224.647 1698.12 224.647Z" fill="#9F6EFA"/>
<path d="M1687.61 308.495C1687.59 309.732 1687.21 310.936 1686.51 311.957C1685.82 312.978 1684.83 313.768 1683.68 314.229C1682.53 314.689 1681.28 314.799 1680.07 314.544C1678.86 314.289 1677.75 313.681 1676.88 312.797C1676.02 311.913 1675.44 310.792 1675.21 309.576C1674.98 308.36 1675.12 307.104 1675.6 305.967C1676.09 304.83 1676.9 303.862 1677.94 303.187C1678.97 302.511 1680.19 302.158 1681.42 302.172C1683.08 302.192 1684.66 302.869 1685.82 304.055C1686.98 305.24 1687.62 306.837 1687.61 308.495Z" fill="#9F6EFA"/>
<path d="M1705.47 308.695C1705.46 309.932 1705.08 311.137 1704.38 312.157C1703.68 313.178 1702.7 313.968 1701.55 314.429C1700.4 314.889 1699.14 314.999 1697.93 314.744C1696.72 314.489 1695.61 313.881 1694.75 312.997C1693.88 312.113 1693.3 310.992 1693.07 309.776C1692.85 308.561 1692.98 307.305 1693.47 306.167C1693.96 305.03 1694.77 304.062 1695.8 303.387C1696.84 302.711 1698.05 302.358 1699.29 302.372C1700.95 302.393 1702.53 303.07 1703.69 304.255C1704.85 305.441 1705.49 307.037 1705.47 308.695Z" fill="#3F3D56"/>
<path d="M1723.34 308.896C1723.33 310.132 1722.94 311.337 1722.25 312.358C1721.55 313.378 1720.56 314.169 1719.41 314.629C1718.27 315.09 1717.01 315.199 1715.8 314.945C1714.59 314.69 1713.48 314.082 1712.61 313.197C1711.75 312.313 1711.17 311.192 1710.94 309.977C1710.71 308.761 1710.85 307.505 1711.34 306.368C1711.82 305.23 1712.63 304.263 1713.67 303.587C1714.71 302.912 1715.92 302.559 1717.16 302.572C1718.81 302.593 1720.4 303.27 1721.55 304.455C1722.71 305.641 1723.36 307.238 1723.34 308.896Z" fill="#E6E6E6"/>
<path d="M1770.33 343.116H1625.33V453.89H1770.33V343.116Z" fill="#F2F2F2"/>
<path d="M1763.12 348.621H1632.54V448.385H1763.12V348.621Z" fill="white"/>
<path d="M1654.69 381.41C1657.69 381.41 1660.12 378.983 1660.12 375.988C1660.12 372.994 1657.69 370.566 1654.69 370.566C1651.7 370.566 1649.27 372.994 1649.27 375.988C1649.27 378.983 1651.7 381.41 1654.69 381.41Z" fill="#3F3D56"/>
<path d="M1741.81 371.769C1742.3 371.768 1742.77 371.863 1743.22 372.047C1743.67 372.231 1744.07 372.502 1744.42 372.844C1744.76 373.185 1745.03 373.591 1745.22 374.037C1745.4 374.484 1745.5 374.963 1745.5 375.446C1745.5 375.929 1745.4 376.408 1745.22 376.855C1745.03 377.301 1744.76 377.707 1744.42 378.048C1744.07 378.39 1743.67 378.66 1743.22 378.845C1742.77 379.029 1742.3 379.124 1741.81 379.123H1684.79C1683.81 379.123 1682.88 378.736 1682.19 378.046C1681.5 377.356 1681.11 376.421 1681.11 375.446C1681.11 374.471 1681.5 373.535 1682.19 372.846C1682.88 372.156 1683.81 371.769 1684.79 371.769H1741.81ZM1741.81 370.868H1684.79C1684.19 370.867 1683.59 370.985 1683.03 371.215C1682.48 371.444 1681.97 371.781 1681.55 372.207C1681.12 372.632 1680.78 373.137 1680.55 373.693C1680.32 374.248 1680.2 374.844 1680.2 375.446C1680.2 376.048 1680.32 376.643 1680.55 377.199C1680.78 377.755 1681.12 378.26 1681.55 378.685C1681.97 379.11 1682.48 379.448 1683.03 379.677C1683.59 379.907 1684.19 380.025 1684.79 380.024H1741.81C1742.41 380.025 1743.01 379.907 1743.57 379.677C1744.12 379.448 1744.63 379.11 1745.05 378.685C1745.48 378.26 1745.82 377.755 1746.05 377.199C1746.28 376.643 1746.4 376.048 1746.4 375.446C1746.4 374.844 1746.28 374.248 1746.05 373.693C1745.82 373.137 1745.48 372.632 1745.05 372.207C1744.63 371.781 1744.12 371.444 1743.57 371.215C1743.01 370.985 1742.41 370.867 1741.81 370.868Z" fill="#3F3D56"/>
<path d="M1719.31 380.024H1676.38C1675.17 380.024 1674 379.541 1673.15 378.683C1672.29 377.824 1671.81 376.66 1671.81 375.446C1671.81 374.232 1672.29 373.067 1673.15 372.209C1674 371.35 1675.17 370.868 1676.38 370.868H1719.31C1720.53 370.868 1721.69 371.35 1722.55 372.209C1723.41 373.067 1723.89 374.232 1723.89 375.446C1723.89 376.66 1723.41 377.824 1722.55 378.683C1721.69 379.541 1720.53 380.024 1719.31 380.024Z" fill="#9F6EFA"/>
<path d="M1654.69 403.925C1657.69 403.925 1660.12 401.498 1660.12 398.503C1660.12 395.509 1657.69 393.081 1654.69 393.081C1651.7 393.081 1649.27 395.509 1649.27 398.503C1649.27 401.498 1651.7 403.925 1654.69 403.925Z" fill="#3F3D56"/>
<path d="M1741.81 394.284C1742.3 394.283 1742.77 394.377 1743.22 394.562C1743.67 394.746 1744.07 395.017 1744.42 395.359C1744.76 395.7 1745.03 396.106 1745.22 396.552C1745.4 396.999 1745.5 397.477 1745.5 397.961C1745.5 398.444 1745.4 398.923 1745.22 399.369C1745.03 399.816 1744.76 400.222 1744.42 400.563C1744.07 400.905 1743.67 401.175 1743.22 401.36C1742.77 401.544 1742.3 401.639 1741.81 401.638H1684.79C1683.81 401.638 1682.88 401.251 1682.19 400.561C1681.5 399.871 1681.11 398.936 1681.11 397.961C1681.11 396.986 1681.5 396.05 1682.19 395.361C1682.88 394.671 1683.81 394.284 1684.79 394.284H1741.81ZM1741.81 393.383H1684.79C1683.57 393.383 1682.41 393.865 1681.55 394.724C1680.69 395.582 1680.21 396.747 1680.21 397.961C1680.21 399.175 1680.69 400.339 1681.55 401.198C1682.41 402.056 1683.57 402.539 1684.79 402.539H1741.81C1743.03 402.539 1744.19 402.056 1745.05 401.198C1745.91 400.339 1746.39 399.175 1746.39 397.961C1746.39 396.747 1745.91 395.582 1745.05 394.724C1744.19 393.865 1743.03 393.383 1741.81 393.383Z" fill="#3F3D56"/>
<path d="M1735.52 402.539H1676.38C1675.17 402.539 1674 402.056 1673.15 401.198C1672.29 400.339 1671.81 399.175 1671.81 397.961C1671.81 396.747 1672.29 395.582 1673.15 394.724C1674 393.865 1675.17 393.383 1676.38 393.383H1735.52C1736.74 393.383 1737.9 393.865 1738.76 394.724C1739.62 395.582 1740.1 396.747 1740.1 397.961C1740.1 399.175 1739.62 400.339 1738.76 401.198C1737.9 402.056 1736.74 402.539 1735.52 402.539Z" fill="#9F6EFA"/>
<path d="M1654.69 426.44C1657.69 426.44 1660.12 424.012 1660.12 421.018C1660.12 418.023 1657.69 415.596 1654.69 415.596C1651.7 415.596 1649.27 418.023 1649.27 421.018C1649.27 424.012 1651.7 426.44 1654.69 426.44Z" fill="#3F3D56"/>
<path d="M1741.81 416.799C1742.3 416.798 1742.77 416.892 1743.22 417.077C1743.67 417.261 1744.07 417.532 1744.42 417.873C1744.76 418.215 1745.03 418.621 1745.22 419.067C1745.4 419.514 1745.5 419.992 1745.5 420.476C1745.5 420.959 1745.4 421.438 1745.22 421.884C1745.03 422.331 1744.76 422.736 1744.42 423.078C1744.07 423.42 1743.67 423.69 1743.22 423.875C1742.77 424.059 1742.3 424.154 1741.81 424.153H1684.79C1683.81 424.153 1682.88 423.765 1682.19 423.076C1681.5 422.386 1681.11 421.451 1681.11 420.476C1681.11 419.501 1681.5 418.565 1682.19 417.876C1682.88 417.186 1683.81 416.799 1684.79 416.799H1741.81ZM1741.81 415.898H1684.79C1683.57 415.898 1682.41 416.38 1681.55 417.239C1680.69 418.097 1680.21 419.262 1680.21 420.476C1680.21 421.69 1680.69 422.854 1681.55 423.713C1682.41 424.571 1683.57 425.053 1684.79 425.053H1741.81C1743.03 425.053 1744.19 424.571 1745.05 423.713C1745.91 422.854 1746.39 421.69 1746.39 420.476C1746.39 419.262 1745.91 418.097 1745.05 417.239C1744.19 416.38 1743.03 415.898 1741.81 415.898Z" fill="#3F3D56"/>
<path d="M1700.4 425.053H1676.38C1675.78 425.054 1675.19 424.937 1674.63 424.707C1674.07 424.477 1673.57 424.14 1673.14 423.715C1672.72 423.29 1672.38 422.785 1672.15 422.229C1671.92 421.673 1671.8 421.077 1671.8 420.476C1671.8 419.874 1671.92 419.278 1672.15 418.722C1672.38 418.167 1672.72 417.662 1673.14 417.236C1673.57 416.811 1674.07 416.474 1674.63 416.245C1675.19 416.015 1675.78 415.897 1676.38 415.898H1700.4C1701.61 415.9 1702.77 416.383 1703.63 417.241C1704.49 418.099 1704.97 419.263 1704.97 420.476C1704.97 421.689 1704.49 422.852 1703.63 423.71C1702.77 424.569 1701.61 425.052 1700.4 425.053Z" fill="#9F6EFA"/>
<path d="M1593.28 234.508H1188.19V442.118H1593.28V234.508Z" fill="#F2F2F2"/>
<path d="M1579.78 244.824H1201.69V431.802H1579.78V244.824Z" fill="white"/>
<path d="M1532.89 403.277H1257.27C1257.04 403.277 1256.82 403.186 1256.66 403.024C1256.5 402.862 1256.41 402.643 1256.41 402.414V270.31C1256.41 270.082 1256.5 269.862 1256.66 269.7C1256.82 269.539 1257.04 269.448 1257.27 269.448C1257.5 269.448 1257.72 269.539 1257.88 269.7C1258.04 269.862 1258.13 270.082 1258.13 270.31V401.552H1532.89C1533.12 401.552 1533.34 401.642 1533.5 401.804C1533.66 401.966 1533.75 402.185 1533.75 402.414C1533.75 402.643 1533.66 402.862 1533.5 403.024C1533.34 403.186 1533.12 403.277 1532.89 403.277Z" fill="#3F3D56"/>
<path d="M1316.16 393.789H1291.09C1290.41 393.788 1289.76 393.518 1289.28 393.038C1288.8 392.558 1288.53 391.907 1288.53 391.228V356.671C1288.53 355.992 1288.8 355.342 1289.28 354.862C1289.76 354.382 1290.41 354.112 1291.09 354.111H1316.16C1316.84 354.112 1317.49 354.382 1317.97 354.862C1318.45 355.342 1318.72 355.992 1318.72 356.671V391.228C1318.72 391.907 1318.45 392.558 1317.97 393.038C1317.49 393.518 1316.84 393.788 1316.16 393.789Z" fill="#9F6EFA"/>
<path d="M1361.87 393.789H1336.8C1336.13 393.788 1335.47 393.518 1334.99 393.038C1334.51 392.558 1334.24 391.907 1334.24 391.228V323.894C1334.24 323.215 1334.51 322.564 1334.99 322.084C1335.47 321.604 1336.13 321.334 1336.8 321.334H1361.87C1362.55 321.334 1363.2 321.604 1363.68 322.084C1364.16 322.564 1364.43 323.215 1364.43 323.894V391.228C1364.43 391.907 1364.16 392.558 1363.68 393.038C1363.2 393.518 1362.55 393.788 1361.87 393.789Z" fill="#9F6EFA"/>
<path d="M1407.59 393.789H1382.52C1381.84 393.788 1381.19 393.518 1380.71 393.038C1380.23 392.558 1379.96 391.907 1379.96 391.228V356.671C1379.96 355.992 1380.23 355.342 1380.71 354.862C1381.19 354.382 1381.84 354.112 1382.52 354.111H1407.59C1408.27 354.112 1408.92 354.382 1409.4 354.862C1409.88 355.342 1410.15 355.992 1410.15 356.671V391.228C1410.15 391.907 1409.88 392.558 1409.4 393.038C1408.92 393.518 1408.27 393.788 1407.59 393.789Z" fill="#9F6EFA"/>
<path d="M1453.3 393.789H1428.24C1427.57 393.803 1426.93 393.554 1426.45 393.095C1425.97 392.637 1425.69 392.008 1425.68 391.344V310.84C1425.69 310.176 1425.97 309.546 1426.45 309.088C1426.93 308.63 1427.57 308.381 1428.24 308.395H1453.3C1453.97 308.381 1454.61 308.63 1455.09 309.088C1455.57 309.546 1455.85 310.176 1455.86 310.84V391.344C1455.85 392.008 1455.57 392.637 1455.09 393.095C1454.61 393.554 1453.97 393.803 1453.3 393.789Z" fill="#9F6EFA"/>
<path d="M1499.02 393.789H1473.95C1473.27 393.788 1472.62 393.518 1472.14 393.038C1471.66 392.558 1471.39 391.907 1471.39 391.228V287.666C1471.39 286.988 1471.66 286.337 1472.14 285.857C1472.62 285.377 1473.27 285.107 1473.95 285.106H1499.02C1499.7 285.107 1500.35 285.377 1500.83 285.857C1501.31 286.337 1501.58 286.988 1501.58 287.666V391.228C1501.58 391.907 1501.31 392.558 1500.83 393.038C1500.35 393.518 1499.7 393.788 1499.02 393.789Z" fill="#9F6EFA"/>
<path d="M1303.62 343.76C1306.48 343.76 1308.8 341.443 1308.8 338.585C1308.8 335.727 1306.48 333.409 1303.62 333.409C1300.76 333.409 1298.45 335.727 1298.45 338.585C1298.45 341.443 1300.76 343.76 1303.62 343.76Z" fill="#3F3D56"/>
<path d="M1349.34 310.12C1352.2 310.12 1354.51 307.803 1354.51 304.945C1354.51 302.087 1352.2 299.77 1349.34 299.77C1346.48 299.77 1344.16 302.087 1344.16 304.945C1344.16 307.803 1346.48 310.12 1349.34 310.12Z" fill="#3F3D56"/>
<path d="M1395.05 343.76C1397.91 343.76 1400.23 341.443 1400.23 338.585C1400.23 335.727 1397.91 333.409 1395.05 333.409C1392.2 333.409 1389.88 335.727 1389.88 338.585C1389.88 341.443 1392.2 343.76 1395.05 343.76Z" fill="#3F3D56"/>
<path d="M1440.77 293.732C1443.63 293.732 1445.95 291.415 1445.95 288.556C1445.95 285.698 1443.63 283.381 1440.77 283.381C1437.91 283.381 1435.59 285.698 1435.59 288.556C1435.59 291.415 1437.91 293.732 1440.77 293.732Z" fill="#3F3D56"/>
<path d="M1486.49 274.755C1489.34 274.755 1491.66 272.438 1491.66 269.58C1491.66 266.722 1489.34 264.405 1486.49 264.405C1483.63 264.405 1481.31 266.722 1481.31 269.58C1481.31 272.438 1483.63 274.755 1486.49 274.755Z" fill="#3F3D56"/>
<path d="M1395.16 339.744L1349.34 305.421L1304.14 339.275L1303.11 337.895L1349.34 303.265L1394.95 337.425L1440.27 287.83L1440.45 287.756L1486.16 269.337L1486.81 270.937L1441.27 289.283L1395.16 339.744Z" fill="#3F3D56"/>
<path d="M2078.55 764.439H1697.55C1697.28 764.439 1697.03 764.334 1696.84 764.146C1696.65 763.959 1696.55 763.704 1696.55 763.439C1696.55 763.174 1696.65 762.919 1696.84 762.732C1697.03 762.544 1697.28 762.439 1697.55 762.439H2078.55C2078.81 762.439 2079.07 762.544 2079.25 762.732C2079.44 762.919 2079.55 763.174 2079.55 763.439C2079.55 763.704 2079.44 763.959 2079.25 764.146C2079.07 764.334 2078.81 764.439 2078.55 764.439Z" fill="#CCCCCC"/>
<path d="M0 0H2080V807H0V0Z" fill="url(#paint0_linear_79_181)"/>
<defs>
<linearGradient id="paint0_linear_79_181" x1="818.5" y1="118.942" x2="1533" y2="123.924" gradientUnits="userSpaceOnUse">
<stop stop-color="#705ECE"/>
<stop offset="1" stop-color="#705ECE" stop-opacity="0"/>
</linearGradient>
</defs>
</svg>
